<svg width="101" height="29" viewBox="0 0 101 29" fill="none" xmlns="http://www.w3.org/2000/svg">
<g id="Union">
<mask id="path-1-inside-1_836_10778" fill="white">
<path fill-rule="evenodd" clip-rule="evenodd" d="M4 0C1.79086 0 0 1.79086 0 4V20C0 22.2091 1.79086 24 4 24H46L51 29L56 24H97C99.2091 24 101 22.2091 101 20V4C101 1.79086 99.2091 0 97 0H4Z"/>
</mask>
<path fill-rule="evenodd" clip-rule="evenodd" d="M4 0C1.79086 0 0 1.79086 0 4V20C0 22.2091 1.79086 24 4 24H46L51 29L56 24H97C99.2091 24 101 22.2091 101 20V4C101 1.79086 99.2091 0 97 0H4Z" fill="#24272D"/>
<path d="M46 24L46.7071 23.2929L46.4142 23H46V24ZM51 29L50.2929 29.7071L51 30.4142L51.7071 29.7071L51 29ZM56 24V23H55.5858L55.2929 23.2929L56 24ZM1 4C1 2.34315 2.34315 1 4 1V-1C1.23858 -1 -1 1.23858 -1 4H1ZM1 20V4H-1V20H1ZM4 23C2.34314 23 1 21.6569 1 20H-1C-1 22.7614 1.23857 25 4 25V23ZM46 23H4V25H46V23ZM51.7071 28.2929L46.7071 23.2929L45.2929 24.7071L50.2929 29.7071L51.7071 28.2929ZM55.2929 23.2929L50.2929 28.2929L51.7071 29.7071L56.7071 24.7071L55.2929 23.2929ZM97 23H56V25H97V23ZM100 20C100 21.6569 98.6569 23 97 23V25C99.7614 25 102 22.7614 102 20H100ZM100 4V20H102V4H100ZM97 1C98.6569 1 100 2.34315 100 4H102C102 1.23858 99.7614 -1 97 -1V1ZM4 1H97V-1H4V1Z" fill="white" fill-opacity="0.1" mask="url(#path-1-inside-1_836_10778)"/>
</g>
</svg>
