<svg width="30" height="30" viewBox="0 0 30 30" fill="none" xmlns="http://www.w3.org/2000/svg">
<g opacity="0.4">
<path fill-rule="evenodd" clip-rule="evenodd" d="M16.5071 21.4386L16.507 21.4386L16.5013 21.4462L15.0013 23.4402L15 23.442L14.9987 23.4402L13.5033 21.4523C13.2374 21.0931 12.8868 20.8604 12.6059 20.7216C12.3195 20.58 11.9297 20.4492 11.5 20.4492H11C9.026 20.4492 8.03627 20.1772 7.48608 19.6972C6.98687 19.2617 6.5 18.3292 6.5 15.9671V10.9821C6.5 9.22039 6.94057 8.17441 7.55907 7.55776C8.17839 6.94029 9.23009 6.5 11 6.5H19C20.7699 6.5 21.8216 6.94029 22.4409 7.55776C23.0594 8.17441 23.5 9.22039 23.5 10.9821V15.9671C23.5 17.7288 23.0594 18.7747 22.4409 19.3914C21.8216 20.0089 20.7699 20.4492 19 20.4492H18.5C17.716 20.4492 16.9771 20.822 16.5071 21.4386ZM11.5 21.9492C11.77 21.9492 12.14 22.1286 12.3 22.348L13.8 24.342C14.46 25.2193 15.54 25.2193 16.2 24.342L17.7 22.348C17.89 22.0987 18.19 21.9492 18.5 21.9492H19C23 21.9492 25 19.9551 25 15.9671V10.9821C25 6.99402 23 5 19 5H11C7 5 5 6.99402 5 10.9821V15.9671C5 20.9521 7 21.9492 11 21.9492H11.5ZM15 15C15.5523 15 16 14.5523 16 14C16 13.4477 15.5523 13 15 13C14.4477 13 14 13.4477 14 14C14 14.5523 14.4477 15 15 15ZM20 14C20 14.5523 19.5523 15 19 15C18.4477 15 18 14.5523 18 14C18 13.4477 18.4477 13 19 13C19.5523 13 20 13.4477 20 14ZM11 15C11.5523 15 12 14.5523 12 14C12 13.4477 11.5523 13 11 13C10.4477 13 10 13.4477 10 14C10 14.5523 10.4477 15 11 15Z" fill="white"/>
</g>
</svg>
