<svg width="24" height="24" viewBox="0 0 24 24" fill="none" xmlns="http://www.w3.org/2000/svg">
<path fill-rule="evenodd" clip-rule="evenodd" d="M10.0518 9.94824C9.49947 9.94824 9.05176 9.50053 9.05176 8.94824C9.05176 8.39596 9.49947 7.94824 10.0518 7.94824H15.0518C15.5695 7.94824 15.9954 8.34174 16.0466 8.846C16.05 8.87962 16.0518 8.91372 16.0518 8.94824L16.0518 13.9482C16.0518 14.5005 15.604 14.9482 15.0518 14.9482C14.4995 14.9482 14.0518 14.5005 14.0518 13.9482V11.3625L9.65535 15.759C9.26482 16.1495 8.63166 16.1495 8.24114 15.759C7.85061 15.3684 7.85061 14.7353 8.24114 14.3447L12.6376 9.94824L10.0518 9.94824Z" fill="white" fill-opacity="0.6"/>
</svg>
