<svg width="24" height="24" viewBox="0 0 24 24" fill="none" xmlns="http://www.w3.org/2000/svg">
<g opacity="0.6">
<path fill-rule="evenodd" clip-rule="evenodd" d="M16 4H8C5.79086 4 4 5.79086 4 8V16C4 18.2091 5.79086 20 8 20H16C18.2091 20 20 18.2091 20 16V8C20 5.79086 18.2091 4 16 4ZM8 3C5.23858 3 3 5.23858 3 8V16C3 18.7614 5.23858 21 8 21H16C18.7614 21 21 18.7614 21 16V8C21 5.23858 18.7614 3 16 3H8ZM8.41998 14.4124C7.82904 14.4124 7.34998 14.8915 7.34998 15.4824C7.34998 16.0734 7.82904 16.5524 8.41998 16.5524C9.01093 16.5524 9.48999 16.0734 9.48999 15.4824C9.48999 14.8915 9.01093 14.4124 8.41998 14.4124ZM6.34998 15.4824C6.34998 14.3392 7.27675 13.4124 8.41998 13.4124C8.81575 13.4124 9.18558 13.5235 9.5 13.7162V11.082C9.48616 11.0143 9.48682 10.9466 9.5 10.8823V9.15246C9.5 8.26207 10.0552 7.6271 10.8249 7.41105L10.8279 7.4102L13.9665 6.55062C14.4308 6.42205 15.0067 6.37238 15.488 6.65297C16.008 6.9561 16.25 7.5381 16.25 8.29241V9.4014C16.2502 9.40896 16.2502 9.4165 16.25 9.42401V14.4324V14.4324C16.25 15.5757 15.3232 16.5024 14.18 16.5024C13.0368 16.5024 12.11 15.5757 12.11 14.4324C12.11 13.2892 13.0368 12.3624 14.18 12.3624C14.5716 12.3624 14.9378 12.4712 15.25 12.6601V10.0669L10.5 11.3616V15.4924C10.5 15.5329 10.4952 15.5722 10.4861 15.6099C10.4203 16.6937 9.52042 17.5524 8.41998 17.5524C7.27675 17.5524 6.34998 16.6257 6.34998 15.4824ZM10.5 10.3252L15.25 9.03046V8.29241C15.25 7.73672 15.082 7.57375 14.9844 7.5169C14.8485 7.43767 14.599 7.41303 14.2335 7.5143L14.2321 7.5147L11.0938 8.37423C10.7243 8.47846 10.5 8.74336 10.5 9.15246V10.3252ZM14.18 13.3624C13.589 13.3624 13.11 13.8415 13.11 14.4324C13.11 15.0234 13.589 15.5024 14.18 15.5024C14.7709 15.5024 15.25 15.0234 15.25 14.4324C15.25 13.8415 14.7709 13.3624 14.18 13.3624Z" fill="white"/>
</g>
</svg>
