<svg width="24" height="24" viewBox="0 0 24 24" fill="none" xmlns="http://www.w3.org/2000/svg">
<g opacity="0.6">
<path fill-rule="evenodd" clip-rule="evenodd" d="M13.5375 4.32553C14.5241 4.8905 15.0352 6.09172 15.0352 7.60997V16.3912C15.0352 17.9053 14.5238 19.1057 13.538 19.6717C12.5446 20.2421 11.2753 20.0519 10.0259 19.2402L7.33599 17.4932C7.11277 17.357 6.86287 17.2834 6.62439 17.2834H5.30439C4.29962 17.2834 3.4553 17.0221 2.86767 16.4131C2.28324 15.8075 2.03516 14.9429 2.03516 13.9137V10.0875C2.03516 9.0582 2.28324 8.19363 2.86767 7.588C3.4553 6.97906 4.29962 6.71778 5.30439 6.71778H6.62439C6.86287 6.71778 7.11277 6.64413 7.33599 6.50793L10.0258 4.76104C11.2744 3.94981 12.5436 3.75647 13.5375 4.32553ZM13.0406 5.19333C12.4975 4.88237 11.6481 4.89951 10.5706 5.59959L7.86494 7.35679C7.49862 7.58218 7.06725 7.71778 6.62439 7.71778H5.30439C4.463 7.71778 3.92271 7.93479 3.58726 8.2824C3.24861 8.63333 3.03516 9.2036 3.03516 10.0875V13.9137C3.03516 14.7975 3.24861 15.3678 3.58726 15.7187C3.92271 16.0664 4.463 16.2834 5.30439 16.2834H6.62439C7.06725 16.2834 7.49854 16.4191 7.86487 16.6445L7.87526 16.6509L10.5706 18.4015C11.6473 19.101 12.4965 19.1166 13.04 18.8045C13.5911 18.4881 14.0352 17.718 14.0352 16.3912V7.60997C14.0352 6.27768 13.5908 5.50839 13.0406 5.19333ZM17.2468 7.59984C17.4676 7.43401 17.781 7.47857 17.9468 7.69937C19.8604 10.2473 19.8604 13.752 17.9468 16.2999C17.781 16.5207 17.4676 16.5653 17.2468 16.3994C17.026 16.2336 16.9814 15.9202 17.1472 15.6994C18.7936 13.5073 18.7936 10.492 17.1472 8.29991C16.9814 8.07911 17.026 7.76568 17.2468 7.59984ZM19.7769 5.19947C19.6111 4.97863 19.2977 4.93399 19.0768 5.09976C18.856 5.26554 18.8113 5.57896 18.9771 5.79981C21.7336 9.47196 21.7336 14.5273 18.9771 18.1995C18.8113 18.4203 18.856 18.7337 19.0768 18.8995C19.2977 19.0653 19.6111 19.0207 19.7769 18.7998C22.8004 14.772 22.8004 9.22732 19.7769 5.19947Z" fill="white"/>
</g>
</svg>
