<svg width="24" height="24" viewBox="0 0 24 24" fill="none" xmlns="http://www.w3.org/2000/svg">
<g opacity="0.6">
<path fill-rule="evenodd" clip-rule="evenodd" d="M7.5 6.35185C7.5 3.92994 9.53181 2 12 2C14.4682 2 16.5 3.92994 16.5 6.35185V11.6481C16.5 14.0701 14.4682 16 12 16C9.53181 16 7.5 14.0701 7.5 11.6481V6.35185ZM12 3C10.0482 3 8.5 4.51746 8.5 6.35185V11.6481C8.5 13.4825 10.0482 15 12 15C13.9518 15 15.5 13.4825 15.5 11.6481V6.35185C15.5 4.51746 13.9518 3 12 3ZM4.5 9.15039C4.77614 9.15039 5 9.37425 5 9.65039V11.3504C5 15.297 8.13768 18.4897 11.9807 18.5004C11.9871 18.5001 11.9935 18.5 12 18.5C12.0065 18.5 12.0129 18.5001 12.0193 18.5004C15.8623 18.4897 19 15.297 19 11.3504V9.65039C19 9.37425 19.2239 9.15039 19.5 9.15039C19.7761 9.15039 20 9.37425 20 9.65039V11.3504C20 15.6668 16.6892 19.221 12.5 19.4847V21.5C12.5 21.7761 12.2761 22 12 22C11.7239 22 11.5 21.7761 11.5 21.5V19.4847C7.3108 19.221 4 15.6668 4 11.3504V9.65039C4 9.37425 4.22386 9.15039 4.5 9.15039Z" fill="white"/>
</g>
</svg>
