<svg width="24" height="24" viewBox="0 0 24 24" fill="none" xmlns="http://www.w3.org/2000/svg">
<g opacity="0.6">
<path fill-rule="evenodd" clip-rule="evenodd" d="M16.6116 3.05762C19.6827 4.58152 21.0719 6.5326 21.6143 8.33086C22.1491 10.1039 21.8394 11.658 21.6367 12.3829C21.117 14.4546 19.9657 15.6506 18.6915 16.2707C17.4513 16.8743 16.1309 16.9161 15.2293 16.7565C14.0779 16.6803 13.6624 16.7408 13.3094 16.9875C12.9804 17.2175 12.8972 17.6843 13.123 17.9617C13.558 18.4961 13.8274 18.9594 13.929 19.4206C14.0348 19.9007 13.9449 20.3137 13.7956 20.7074L13.7872 20.7295L13.7767 20.7507C13.5615 21.1883 13.2691 21.5137 12.8984 21.7258C12.5324 21.9352 12.1272 22.0131 11.7181 22.02C10.9653 22.0327 10.0841 21.8008 9.20722 21.5701C9.16315 21.5585 9.11908 21.5469 9.07504 21.5353L9.05506 21.5301L9.03558 21.5232C7.16291 20.8623 5.84792 20.021 4.87704 19.0848C3.9071 18.1495 3.3016 17.1394 2.82535 16.1747L2.80952 16.1427L2.79841 16.1087C1.19896 11.2119 2.55307 7.64779 4.42423 5.30305L4.43135 5.29413L4.43886 5.28555C6.72432 2.67539 9.47889 1.96019 11.7967 1.97887C14.0927 1.99737 15.9751 2.73351 16.6116 3.05762ZM5.19874 5.93573C3.52074 8.04303 2.27408 11.2475 3.73792 15.7642C4.18348 16.6619 4.72528 17.5493 5.57118 18.365C6.42307 19.1864 7.60425 19.955 9.3491 20.5734L9.37067 20.5791C10.328 20.8304 11.0898 21.0304 11.7013 21.0201C11.9975 21.0152 12.2237 20.9597 12.4017 20.8579C12.5706 20.7612 12.7309 20.603 12.869 20.3301C12.9735 20.0482 12.9995 19.8495 12.9524 19.6358C12.8999 19.3973 12.7424 19.0782 12.3475 18.5929C11.6814 17.7747 12.0321 16.6602 12.7366 16.1679C13.4143 15.6942 14.1768 15.6833 15.3241 15.7606L15.3527 15.7625L15.3808 15.7677C16.1149 15.9026 17.227 15.8714 18.2539 15.3716C19.2589 14.8824 20.2198 13.9277 20.6683 12.1335L20.6701 12.1265L20.672 12.1196C20.8488 11.4896 21.1164 10.143 20.6569 8.61962C20.2035 7.11623 19.0204 5.36862 16.1649 3.95227L16.1598 3.94977L16.1598 3.94974C15.6319 3.68046 13.9001 2.99585 11.7886 2.97884C9.69828 2.96199 7.25124 3.59688 5.19874 5.93573Z" fill="white"/>
<path fill-rule="evenodd" clip-rule="evenodd" d="M6.99609 11.9951C7.54838 11.9951 7.99609 11.5474 7.99609 10.9951C7.99609 10.4428 7.54838 9.99512 6.99609 9.99512C6.44381 9.99512 5.99609 10.4428 5.99609 10.9951C5.99609 11.5474 6.44381 11.9951 6.99609 11.9951ZM6.99609 12.9951C8.10066 12.9951 8.99609 12.0997 8.99609 10.9951C8.99609 9.89055 8.10066 8.99512 6.99609 8.99512C5.89152 8.99512 4.99609 9.89055 4.99609 10.9951C4.99609 12.0997 5.89152 12.9951 6.99609 12.9951Z" fill="white"/>
<path fill-rule="evenodd" clip-rule="evenodd" d="M10 7.99512C10.5523 7.99512 11 7.5474 11 6.99512C11 6.44283 10.5523 5.99512 10 5.99512C9.44772 5.99512 9 6.44283 9 6.99512C9 7.5474 9.44772 7.99512 10 7.99512ZM10 8.99512C11.1046 8.99512 12 8.09969 12 6.99512C12 5.89055 11.1046 4.99512 10 4.99512C8.89543 4.99512 8 5.89055 8 6.99512C8 8.09969 8.89543 8.99512 10 8.99512Z" fill="white"/>
<path fill-rule="evenodd" clip-rule="evenodd" d="M15 7.99512C15.5523 7.99512 16 7.5474 16 6.99512C16 6.44283 15.5523 5.99512 15 5.99512C14.4477 5.99512 14 6.44283 14 6.99512C14 7.5474 14.4477 7.99512 15 7.99512ZM15 8.99512C16.1046 8.99512 17 8.09969 17 6.99512C17 5.89055 16.1046 4.99512 15 4.99512C13.8954 4.99512 13 5.89055 13 6.99512C13 8.09969 13.8954 8.99512 15 8.99512Z" fill="white"/>
</g>
</svg>
