<svg width="24" height="24" viewBox="0 0 24 24" fill="none" xmlns="http://www.w3.org/2000/svg">
<g opacity="0.6">
<path fill-rule="evenodd" clip-rule="evenodd" d="M16 4H8C5.79086 4 4 5.79086 4 8V16C4 18.2091 5.79086 20 8 20H16C18.2091 20 20 18.2091 20 16V8C20 5.79086 18.2091 4 16 4ZM8 3C5.23858 3 3 5.23858 3 8V16C3 18.7614 5.23858 21 8 21H16C18.7614 21 21 18.7614 21 16V8C21 5.23858 18.7614 3 16 3H8ZM8.5 6H8C6.9 6 6 6.89 6 8V8.5V9.5C6 9.77614 6.22386 10 6.5 10C6.77614 10 7 9.77614 7 9.5V8.5V8C7 7.45 7.45 7 8 7H8.5H9.5C9.77614 7 10 6.77614 10 6.5C10 6.22386 9.77614 6 9.5 6H8.5ZM16 6H15.5H14.5C14.2239 6 14 6.22386 14 6.5C14 6.77614 14.2239 7 14.5 7H15.5H16C16.55 7 17 7.45 17 8V8.5V9.5C17 9.77614 17.2239 10 17.5 10C17.7761 10 18 9.77614 18 9.5V8.5V8C18 6.89 17.1 6 16 6ZM8.5 18H8C6.9 18 6 17.11 6 16V15.5V14.5C6 14.2239 6.22386 14 6.5 14C6.77614 14 7 14.2239 7 14.5V15.5V16C7 16.55 7.45 17 8 17H8.5H9.5C9.77614 17 10 17.2239 10 17.5C10 17.7761 9.77614 18 9.5 18H8.5ZM16 18H15.5H14.5C14.2239 18 14 17.7761 14 17.5C14 17.2239 14.2239 17 14.5 17H15.5H16C16.55 17 17 16.55 17 16V15.5V14.5C17 14.2239 17.2239 14 17.5 14C17.7761 14 18 14.2239 18 14.5V15.5V16C18 17.11 17.1 18 16 18Z" fill="white"/>
</g>
</svg>
