<svg width="24" height="24" viewBox="0 0 24 24" fill="none" xmlns="http://www.w3.org/2000/svg">
<g opacity="0.6">
<path fill-rule="evenodd" clip-rule="evenodd" d="M16 4.45312C17.6019 4.45312 19.274 5.03695 20.1979 6.42278C20.4894 6.86012 20.8813 7.77655 21.221 8.89074C21.5651 10.0192 21.8711 11.4013 21.9681 12.7919C22.0646 14.176 21.9572 15.6105 21.436 16.8153C20.9052 18.0427 19.949 19.0168 18.4134 19.4356L18.4012 19.439L18.3888 19.4417C17.3587 19.6674 16.4973 19.5434 15.8341 18.9291C15.2133 18.3541 14.8547 17.4226 14.5959 16.2714C14.4227 15.5008 13.7809 14.9533 13.0468 14.9533H11.7818L10.9532 14.9533C10.2191 14.9533 9.57729 15.5008 9.40405 16.2714C9.14526 17.4226 8.78674 18.3541 8.16593 18.9291C7.50271 19.5434 6.64128 19.6674 5.61116 19.4417L5.59882 19.439L5.58662 19.4356C4.051 19.0168 3.09481 18.0427 2.56395 16.8153C2.04284 15.6104 1.93536 14.176 2.03189 12.7919C2.12888 11.4013 2.43493 10.0192 2.77897 8.89074C3.11867 7.77655 3.51059 6.86012 3.80215 6.42278C4.72605 5.03693 6.39815 4.45325 8 4.45325H11.8849H12.2182L16 4.45312ZM11.7818 5.45326L8 5.45325C6.60185 5.45325 5.3103 5.96333 4.6342 6.97748C4.42576 7.29014 4.06768 8.09285 3.73551 9.18237C3.40768 10.2576 3.11998 11.5638 3.02947 12.8615C2.9385 14.1657 3.04977 15.4195 3.48178 16.4183C3.90264 17.3914 4.63047 18.1347 5.83756 18.4675C6.66739 18.647 7.14673 18.5101 7.48638 18.1955C7.87012 17.84 8.17683 17.1712 8.4284 16.0521C8.69177 14.8806 9.69673 13.9533 10.9532 13.9533H12.2182L13.0468 13.9533C14.3033 13.9533 15.3082 14.8806 15.5716 16.0521C15.8232 17.1712 16.1299 17.84 16.5136 18.1955C16.8533 18.5101 17.3326 18.647 18.1624 18.4675C19.3695 18.1347 20.0974 17.3914 20.5182 16.4183C20.9502 15.4195 21.0615 14.1657 20.9705 12.8615C20.88 11.5638 20.5923 10.2576 20.2645 9.18237C19.9323 8.09286 19.5742 7.29014 19.3658 6.97748C18.6897 5.96332 17.3981 5.45313 16 5.45312L12.2182 5.45325H11.884L11.7818 5.45326ZM7.5 8.00013C7.5 7.72399 7.72386 7.50013 8 7.50013C8.27614 7.50013 8.5 7.72399 8.5 8.00013V9.50013H10C10.2761 9.50013 10.5 9.72399 10.5 10.0001C10.5 10.2763 10.2761 10.5001 10 10.5001H8.5V12.0001C8.5 12.2763 8.27614 12.5001 8 12.5001C7.72386 12.5001 7.5 12.2763 7.5 12.0001V10.5001H6C5.72386 10.5001 5.5 10.2763 5.5 10.0001C5.5 9.72399 5.72386 9.50013 6 9.50013H7.5V8.00013ZM18.5 8.50013C18.5 9.05241 18.0523 9.50013 17.5 9.50013C16.9477 9.50013 16.5 9.05241 16.5 8.50013C16.5 7.94784 16.9477 7.50013 17.5 7.50013C18.0523 7.50013 18.5 7.94784 18.5 8.50013ZM15.5 12.5001C16.0523 12.5001 16.5 12.0524 16.5 11.5001C16.5 10.9478 16.0523 10.5001 15.5 10.5001C14.9477 10.5001 14.5 10.9478 14.5 11.5001C14.5 12.0524 14.9477 12.5001 15.5 12.5001Z" fill="white"/>
</g>
</svg>
