<svg width="24" height="24" viewBox="0 0 24 24" fill="none" xmlns="http://www.w3.org/2000/svg">
<g opacity="0.6">
<path fill-rule="evenodd" clip-rule="evenodd" d="M12.2798 7L11.6633 5.31335C11.375 4.52461 10.6246 4 9.78484 4H6C4.89543 4 4 4.89543 4 6V18C4 19.1046 4.89543 20 6 20H18C19.1046 20 20 19.1046 20 18V9C20 7.89543 19.1046 7 18 7H12.2798ZM3 6C3 4.34315 4.34315 3 6 3H9.78484C11.0445 3 12.17 3.78692 12.6025 4.97002L12.979 6H18C19.6569 6 21 7.34315 21 9V18C21 19.6569 19.6569 21 18 21H6C4.34315 21 3 19.6569 3 18V6Z" fill="white"/>
</g>
</svg>
