<svg width="24" height="24" viewBox="0 0 24 24" fill="none" xmlns="http://www.w3.org/2000/svg">
<g opacity="0.6">
<path fill-rule="evenodd" clip-rule="evenodd" d="M8 4H16C18.2091 4 20 5.79086 20 8V12.5H19.9899C18.6009 12.5 15.7806 12.5 12.982 14.4017C9.49643 11.7252 6.00197 11.4789 4 11.5013V8C4 5.79086 5.79086 4 8 4ZM13.7897 15.0672C14.3237 15.5382 14.8548 16.0705 15.3774 16.6721C15.5585 16.8805 15.5364 17.1963 15.3279 17.3774C15.1195 17.5585 14.8037 17.5364 14.6226 17.3279C10.7033 12.8173 6.32037 12.4748 4.00572 12.5013L4 12.5013V16C4 18.2091 5.79086 20 8 20H16C18.2091 20 20 18.2091 20 16V13.5C18.6832 13.5 16.245 13.5044 13.7897 15.0672ZM3 8C3 5.23858 5.23858 3 8 3H16C18.7614 3 21 5.23858 21 8V16C21 18.7614 18.7614 21 16 21H8C5.23858 21 3 18.7614 3 16V8ZM12.5 8.5C12.5 7.39543 13.3954 6.5 14.5 6.5C15.6046 6.5 16.5 7.39543 16.5 8.5C16.5 9.60457 15.6046 10.5 14.5 10.5C13.3954 10.5 12.5 9.60457 12.5 8.5ZM14.5 5.5C12.8431 5.5 11.5 6.84315 11.5 8.5C11.5 10.1569 12.8431 11.5 14.5 11.5C16.1569 11.5 17.5 10.1569 17.5 8.5C17.5 6.84315 16.1569 5.5 14.5 5.5Z" fill="white"/>
</g>
</svg>
