<svg width="24" height="24" viewBox="0 0 24 24" fill="none" xmlns="http://www.w3.org/2000/svg">
<g opacity="0.6">
<g clip-path="url(#clip0_1512_9593)">
<path fill-rule="evenodd" clip-rule="evenodd" d="M15 4H6C4.89543 4 4 4.89543 4 6V10.1181C4.01576 10.1165 4.03174 10.1156 4.04791 10.1155C4.1425 10.1148 4.24279 10.1135 4.34835 10.1121H4.34838H4.34841H4.34845C6.24222 10.0871 9.83279 10.0396 12.7222 13.1378C14.3139 11.5214 16.0846 11.5006 17 11.5004V6C17 4.89543 16.1046 4 15 4ZM13.7952 14.493C13.6566 14.2875 13.5152 14.0916 13.3715 13.9048C14.687 12.5227 16.1327 12.5007 17 12.5004V15C17 16.1046 16.1046 17 15 17H6C4.89543 17 4 16.1046 4 15V11.1129C4.01819 11.1147 4.03666 11.1156 4.05537 11.1155C4.14744 11.1148 4.24354 11.1136 4.34336 11.1124L4.34354 11.1124L4.34377 11.1124L4.34405 11.1124C6.46275 11.0868 10.2602 11.041 12.9662 15.0523C13.1206 15.2812 13.4314 15.3416 13.6603 15.1872C13.8892 15.0327 13.9496 14.722 13.7952 14.493ZM6 3C4.34315 3 3 4.34315 3 6V15C3 16.6569 4.34315 18 6 18C6 19.6569 7.34315 21 9 21H18C19.6569 21 21 19.6569 21 18V9C21 7.34315 19.6569 6 18 6C18 4.34315 16.6569 3 15 3H6ZM18 7L18 15C18 16.6569 16.6569 18 15 18H7C7 19.1046 7.89543 20 9 20H18C19.1046 20 20 19.1046 20 18V9C20 7.89543 19.1046 7 18 7ZM12.1154 6.96191C11.5631 6.96191 11.1154 7.40963 11.1154 7.96191C11.1154 8.5142 11.5631 8.96191 12.1154 8.96191C12.6676 8.96191 13.1154 8.5142 13.1154 7.96191C13.1154 7.40963 12.6676 6.96191 12.1154 6.96191ZM10.1154 7.96191C10.1154 6.85734 11.0108 5.96191 12.1154 5.96191C13.2199 5.96191 14.1154 6.85734 14.1154 7.96191C14.1154 9.06648 13.2199 9.96191 12.1154 9.96191C11.0108 9.96191 10.1154 9.06648 10.1154 7.96191Z" fill="white"/>
</g>
</g>
<defs>
<clipPath id="clip0_1512_9593">
<rect width="18" height="18" fill="white" transform="translate(3 3)"/>
</clipPath>
</defs>
</svg>
