<svg width="24" height="24" viewBox="0 0 24 24" fill="none" xmlns="http://www.w3.org/2000/svg">
<g opacity="0.6">
<path fill-rule="evenodd" clip-rule="evenodd" d="M7 4H17C18.6569 4 20 5.34315 20 7V14C20 15.6569 18.6569 17 17 17H7C5.34315 17 4 15.6569 4 14V7C4 5.34315 5.34315 4 7 4ZM3 7C3 4.79086 4.79086 3 7 3H17C19.2091 3 21 4.79086 21 7V14C21 16.2091 19.2091 18 17 18H7C4.79086 18 3 16.2091 3 14V7ZM10.9424 8.05814L13.7279 10.0915C13.8816 10.2037 13.8876 10.4308 13.7403 10.551L10.9548 12.8227C10.7651 12.9773 10.481 12.8424 10.481 12.5977V8.29262C10.481 8.05511 10.7506 7.9181 10.9424 8.05814ZM14.3176 9.28385L11.5321 7.25045C10.6795 6.62805 9.48096 7.23701 9.48096 8.29262V12.5977C9.48096 13.6853 10.7439 14.285 11.5868 13.5976L14.3723 11.326C15.0274 10.7917 15.0003 9.78228 14.3176 9.28385Z" fill="white"/>
<rect x="6" y="20" width="12" height="1" rx="0.5" fill="white"/>
</g>
</svg>
