<svg width="24" height="24" viewBox="0 0 24 24" fill="none" xmlns="http://www.w3.org/2000/svg">
<g opacity="0.6">
<path fill-rule="evenodd" clip-rule="evenodd" d="M16 4H8C5.79086 4 4 5.79086 4 8V16C4 18.2091 5.79086 20 8 20H16C18.2091 20 20 18.2091 20 16V8C20 5.79086 18.2091 4 16 4ZM8 3C5.23858 3 3 5.23858 3 8V16C3 18.7614 5.23858 21 8 21H16C18.7614 21 21 18.7614 21 16V8C21 5.23858 18.7614 3 16 3H8Z" fill="white"/>
<circle cx="7.5" cy="9" r="0.5" fill="white"/>
<circle cx="7.5" cy="12" r="0.5" fill="white"/>
<circle cx="7.5" cy="15" r="0.5" fill="white"/>
<rect x="10" y="8.5" width="7" height="1" rx="0.5" fill="white"/>
<rect x="10" y="11.5" width="7" height="1" rx="0.5" fill="white"/>
<rect x="10" y="14.5" width="7" height="1" rx="0.5" fill="white"/>
</g>
</svg>
