<svg width="24" height="24" viewBox="0 0 24 24" fill="none" xmlns="http://www.w3.org/2000/svg">
<g opacity="0.6">
<path fill-rule="evenodd" clip-rule="evenodd" d="M16 4H8C5.79086 4 4 5.79086 4 8V16C4 18.2091 5.79086 20 8 20H16C18.2091 20 20 18.2091 20 16V8C20 5.79086 18.2091 4 16 4ZM8 3C5.23858 3 3 5.23858 3 8V16C3 18.7614 5.23858 21 8 21H16C18.7614 21 21 18.7614 21 16V8C21 5.23858 18.7614 3 16 3H8Z" fill="white"/>
<path fill-rule="evenodd" clip-rule="evenodd" d="M7.51158 9.51232L7.51157 9.5125L7.51156 9.51281C7.50449 9.78872 7.27518 10.0067 6.99923 9.99984C6.72317 9.99294 6.50498 9.76356 6.51188 9.4875L7.01172 9.5C6.51188 9.4875 6.51188 9.48733 6.51189 9.48714L6.5119 9.48674L6.51192 9.48578L6.512 9.48332L6.51223 9.47621L6.5132 9.45357C6.51409 9.43486 6.51556 9.40901 6.51794 9.37702C6.52268 9.31318 6.53109 9.22417 6.54593 9.11818C6.57526 8.90865 6.63134 8.62096 6.74029 8.3265C6.95188 7.75464 7.43542 7 8.44172 7H11.0017H13.0017H15.5617C16.568 7 17.0516 7.75464 17.2631 8.3265C17.3721 8.62096 17.4282 8.90865 17.4575 9.11818C17.4723 9.22417 17.4807 9.31318 17.4855 9.37702C17.4879 9.40901 17.4893 9.43486 17.4902 9.45357L17.4912 9.47621L17.4914 9.48332L17.4915 9.48578L17.4915 9.48674L17.4915 9.48714C17.4915 9.48733 17.4916 9.4875 16.9917 9.5L17.4916 9.4875C17.4985 9.76356 17.2803 9.99294 17.0042 9.99984C16.7285 10.0067 16.4994 9.78918 16.4919 9.51369L16.4919 9.5135L16.4919 9.51345L16.4919 9.51281L16.4918 9.51232L16.4914 9.50151C16.4909 9.49092 16.4899 9.47381 16.4882 9.4511C16.4849 9.40557 16.4786 9.33833 16.4672 9.25682C16.444 9.09135 16.4013 8.87904 16.3253 8.6735C16.1669 8.24536 15.9354 8 15.5617 8H13.0017H12.5117V15.5H13.5017C13.7779 15.5 14.0017 15.7239 14.0017 16C14.0017 16.2761 13.7779 16.5 13.5017 16.5H10.5017C10.2256 16.5 10.0017 16.2761 10.0017 16C10.0017 15.7239 10.2256 15.5 10.5017 15.5H11.5117V8H11.0017H8.44172C8.06803 8 7.83657 8.24536 7.67815 8.6735C7.6021 8.87904 7.55943 9.09135 7.53627 9.25682C7.52486 9.33833 7.51857 9.40557 7.51519 9.4511C7.51351 9.47381 7.51255 9.49092 7.51205 9.50151L7.51158 9.51232Z" fill="white"/>
</g>
</svg>
