<svg width="24" height="24" viewBox="0 0 24 24" fill="none" xmlns="http://www.w3.org/2000/svg">
<g opacity="0.6">
<path fill-rule="evenodd" clip-rule="evenodd" d="M8 4H16C18.2091 4 20 5.79086 20 8V10C20 12.2091 18.2091 14 16 14H8C5.79086 14 4 12.2091 4 10V8C4 5.79086 5.79086 4 8 4ZM3 8C3 5.23858 5.23858 3 8 3H16C18.7614 3 21 5.23858 21 8V10C21 12.7614 18.7614 15 16 15H12.5V17.5H15C16.933 17.5 18.5 19.067 18.5 21H17.5C17.5 19.6193 16.3807 18.5 15 18.5H9C7.61929 18.5 6.5 19.6193 6.5 21H5.5C5.5 19.067 7.067 17.5 9 17.5H11.5V15H8C5.23858 15 3 12.7614 3 10V8ZM12 11C10.8954 11 10 10.1046 10 9C10 7.89543 10.8954 7 12 7C13.1046 7 14 7.89543 14 9C14 10.1046 13.1046 11 12 11ZM9 9C9 7.34315 10.3431 6 12 6C13.6569 6 15 7.34315 15 9C15 10.6569 13.6569 12 12 12C10.3431 12 9 10.6569 9 9Z" fill="white"/>
</g>
</svg>
