<svg width="24" height="24" viewBox="0 0 24 24" fill="none" xmlns="http://www.w3.org/2000/svg">
<g opacity="0.6">
<path fill-rule="evenodd" clip-rule="evenodd" d="M16 4H8C5.79086 4 4 5.79086 4 8V13C4 15.2091 5.79086 17 8 17H16C18.2091 17 20 15.2091 20 13V8C20 5.79086 18.2091 4 16 4ZM8 3C5.23858 3 3 5.23858 3 8V13C3 15.7614 5.23858 18 8 18H16C18.7614 18 21 15.7614 21 13V8C21 5.23858 18.7614 3 16 3H8Z" fill="white"/>
<path d="M8.5 6H8C6.9 6 6 6.89 6 8V8.5C6 8.78 6.22 9 6.5 9C6.78 9 7 8.78 7 8.5V8C7 7.45 7.45 7 8 7H8.5C8.78 7 9 6.78 9 6.5C9 6.22 8.78 6 8.5 6Z" fill="white"/>
<rect x="8" y="6" width="2" height="1" rx="0.5" fill="white"/>
<rect x="7" y="8" width="2" height="1" rx="0.5" transform="rotate(90 7 8)" fill="white"/>
<path d="M15.5 15H16C17.1 15 18 14.11 18 13V12.5C18 12.22 17.78 12 17.5 12C17.22 12 17 12.22 17 12.5V13C17 13.55 16.55 14 16 14H15.5C15.22 14 15 14.22 15 14.5C15 14.78 15.22 15 15.5 15Z" fill="white"/>
<rect x="14" y="14" width="2" height="1" rx="0.5" fill="white"/>
<rect x="18" y="11" width="2" height="1" rx="0.5" transform="rotate(90 18 11)" fill="white"/>
<rect x="6" y="20" width="12" height="1" rx="0.5" fill="white"/>
</g>
</svg>
