<svg width="18" height="18" viewBox="0 0 18 18" fill="none" xmlns="http://www.w3.org/2000/svg">
<path d="M15 4.98665C12.78 4.76665 10.5467 4.65332 8.32 4.65332C7 4.65332 5.68 4.71999 4.36 4.85332L3 4.98665" stroke="white" stroke-linecap="round" stroke-linejoin="round"/>
<path d="M6.66602 4.31301L6.81268 3.43967C6.91935 2.80634 6.99935 2.33301 8.12602 2.33301H9.87268C10.9993 2.33301 11.086 2.83301 11.186 3.44634L11.3327 4.31301" stroke="white" stroke-linecap="round" stroke-linejoin="round"/>
<path d="M13.5669 7.09375L13.1336 13.8071C13.0603 14.8537 13.0003 15.6671 11.1403 15.6671H6.86026C5.00026 15.6671 4.94026 14.8537 4.86693 13.8071L4.43359 7.09375" stroke="white" stroke-linecap="round" stroke-linejoin="round"/>
<path d="M7.88672 12H10.1067" stroke="white" stroke-linecap="round" stroke-linejoin="round"/>
<path d="M7.33398 9.33301H10.6673" stroke="white" stroke-linecap="round" stroke-linejoin="round"/>
</svg>
