<svg width="24" height="24" viewBox="0 0 24 24" fill="none" xmlns="http://www.w3.org/2000/svg">
<path d="M11.9999 4C11.4476 4 10.9999 4.44772 10.9999 5V11.0001H5C4.44772 11.0001 4 11.4478 4 12.0001C4 12.5524 4.44772 13.0001 5 13.0001L10.9999 13.0001V19C10.9999 19.5523 11.4476 20 11.9999 20C12.5522 20 12.9999 19.5523 12.9999 19V13.0001L19 13.0001C19.5523 13.0001 20 12.5524 20 12.0001C20 11.4478 19.5523 11.0001 19 11.0001H12.9999V5C12.9999 4.44772 12.5522 4 11.9999 4Z" fill="white" fill-opacity="0.8"/>
</svg>
