<svg width="40" height="41" viewBox="0 0 40 41" fill="none" xmlns="http://www.w3.org/2000/svg">
<rect y="0.201172" width="40" height="40" rx="4"/>
<path fill-rule="evenodd" clip-rule="evenodd" d="M22.1013 13.734C20.7356 13.2902 19.2644 13.2902 17.8987 13.734C16.533 14.1777 15.3428 15.0425 14.4987 16.2042C13.6546 17.366 13.2 18.7652 13.2 20.2012C13.2 20.5325 12.9314 20.8012 12.6 20.8012C12.2686 20.8012 12 20.5325 12 20.2012C12 18.5117 12.5348 16.8657 13.5279 15.4989C14.5209 14.1321 15.9211 13.1148 17.5279 12.5927C19.1346 12.0707 20.8654 12.0707 22.4721 12.5927C24.0789 13.1148 25.4791 14.1321 26.4721 15.4989C26.4837 15.5148 26.4944 15.5311 26.5041 15.5477V13.393C26.5041 13.0616 26.7728 12.793 27.1041 12.793C27.4355 12.793 27.7041 13.0616 27.7041 13.393V16.945C27.7041 17.2763 27.4355 17.545 27.1041 17.545H23.5521C23.2208 17.545 22.9521 17.2763 22.9521 16.945C22.9521 16.6136 23.2208 16.345 23.5521 16.345H25.645C25.591 16.3075 25.5422 16.2605 25.5013 16.2042C24.6572 15.0425 23.4671 14.1777 22.1013 13.734ZM12.2956 27.0089C12.2956 27.3403 12.5642 27.6089 12.8956 27.6089C13.227 27.6089 13.4956 27.3403 13.4956 27.0089L13.4956 24.8544C13.5054 24.871 13.5161 24.8874 13.5277 24.9034C14.5207 26.2701 15.921 27.2875 17.5277 27.8095C19.1345 28.3316 20.8652 28.3316 22.472 27.8095C24.0787 27.2875 25.479 26.2701 26.472 24.9034C27.465 23.5366 27.9999 21.8905 27.9999 20.2011C27.9999 19.8697 27.7312 19.6011 27.3999 19.6011C27.0685 19.6011 26.7999 19.8697 26.7999 20.2011C26.7999 21.6371 26.3452 23.0363 25.5012 24.198C24.6571 25.3598 23.4669 26.2245 22.1012 26.6683C20.7354 27.112 19.2643 27.112 17.8985 26.6683C16.5328 26.2245 15.3426 25.3598 14.4985 24.198C14.4575 24.1416 14.4085 24.0944 14.3542 24.0569H16.4476C16.779 24.0569 17.0476 23.7883 17.0476 23.4569C17.0476 23.1255 16.779 22.8569 16.4476 22.8569H12.8956C12.5642 22.8569 12.2956 23.1255 12.2956 23.4569L12.2956 27.0089Z" fill="#AAAAAA"/>
</svg>
