<svg width="24" height="24" viewBox="0 0 24 24" fill="none" xmlns="http://www.w3.org/2000/svg">
<g opacity="0.6">
<path d="M13.9101 11.5195C13.9101 12.8395 12.8434 13.9061 11.5234 13.9061C10.2034 13.9061 9.13672 12.8395 9.13672 11.5195C9.13672 10.1995 10.2034 9.13281 11.5234 9.13281C12.8434 9.13281 13.9101 10.1995 13.9101 11.5195Z" stroke="white" stroke-linecap="round" stroke-linejoin="round"/>
<path d="M11.5233 17.0333C13.8767 17.0333 16.07 15.6467 17.5967 13.2467C18.1967 12.3067 18.1967 10.7267 17.5967 9.78667C16.07 7.38667 13.8767 6 11.5233 6C9.17 6 6.97667 7.38667 5.45 9.78667C4.85 10.7267 4.85 12.3067 5.45 13.2467C6.97667 15.6467 9.17 17.0333 11.5233 17.0333Z" stroke="white" stroke-linecap="round" stroke-linejoin="round"/>
</g>
</svg>
