<svg width="20" height="20" viewBox="0 0 20 20" fill="none" xmlns="http://www.w3.org/2000/svg">
<path opacity="0.3" fill-rule="evenodd" clip-rule="evenodd" d="M10.2257 13.7518C10.0853 13.7124 9.91456 13.7124 9.77416 13.7518V13.7518C9.46552 13.8384 9.03418 13.9595 8.7817 15.2279C8.45496 16.8692 8.23714 17.5952 8.16907 17.753L8.16558 17.7638C7.96243 18.3918 7.75245 19.0408 6.33119 18.8578C5.35099 18.7315 5.37822 17.8582 5.51436 17.4374L6.53534 13.1762L7.14797 10.973C7.21604 10.6574 7.14796 10.3417 6.33113 10.0261C6.12554 9.94664 5.89066 9.86677 5.63092 9.77845C4.94934 9.5467 4.0966 9.25674 3.1529 8.76351C2.48053 8.41216 1.99026 7.87684 2.33606 7.18528C2.73246 6.39257 3.93717 6.70326 4.55763 6.86327C4.56598 6.86542 4.57422 6.86755 4.58235 6.86964C4.83896 6.93575 5.09704 7.0157 5.37173 7.10079C6.4076 7.4217 7.67969 7.81578 9.99995 7.81657C12.3202 7.81578 13.5923 7.4217 14.6282 7.10079C14.9029 7.0157 15.1609 6.93575 15.4175 6.86964L15.4423 6.86327C16.0627 6.70326 17.2674 6.39257 17.6638 7.18528C18.0096 7.87684 17.5194 8.41216 16.847 8.76351C15.9033 9.25674 15.0505 9.5467 14.369 9.77845C14.1092 9.86677 13.8743 9.94664 13.6688 10.0261C12.8519 10.3417 12.7839 10.6574 12.8519 10.973L13.4646 13.1762L14.4855 17.4374C14.6217 17.8582 14.6489 18.7315 13.6687 18.8578C12.2474 19.0408 12.0375 18.3918 11.8343 17.7638L11.8308 17.753C11.7628 17.5952 11.5449 16.8692 11.2182 15.2279C10.9657 13.9595 10.5344 13.8384 10.2257 13.7518V13.7518Z" fill="white"/>
<circle opacity="0.3" cx="10" cy="3" r="3" fill="white"/>
</svg>
