<svg width="20" height="20" viewBox="0 0 20 20" fill="none" xmlns="http://www.w3.org/2000/svg">
<path d="M0.666504 8.33283V11.6662C0.666504 13.3328 1.49984 14.1662 3.1665 14.1662H4.35817C4.6665 14.1662 4.97484 14.2578 5.2415 14.4162L7.67484 15.9412C9.77484 17.2578 11.4998 16.2995 11.4998 13.8245V6.1745C11.4998 3.69117 9.77484 2.74117 7.67484 4.05783L5.2415 5.58283C4.97484 5.74117 4.6665 5.83283 4.35817 5.83283H3.1665C1.49984 5.83283 0.666504 6.66617 0.666504 8.33283Z" fill="white" fill-opacity="0.3"/>
<path opacity="0.3" d="M14 7C15.3333 8.7775 15.3333 11.2225 14 13" stroke="white" stroke-width="1.2" stroke-linecap="round" stroke-linejoin="round"/>
<path opacity="0.3" d="M16.5249 4.58301C18.9332 7.79134 18.9332 12.208 16.5249 15.4163" stroke="white" stroke-width="1.2" stroke-linecap="round" stroke-linejoin="round"/>
</svg>
