<svg width="20" height="20" viewBox="0 0 20 20" fill="none" xmlns="http://www.w3.org/2000/svg">
<path d="M7.49984 18.3337H12.4998C16.6665 18.3337 18.3332 16.667 18.3332 12.5003V7.50033C18.3332 3.33366 16.6665 1.66699 12.4998 1.66699H7.49984C3.33317 1.66699 1.6665 3.33366 1.6665 7.50033V12.5003C1.6665 16.667 3.33317 18.3337 7.49984 18.3337Z" fill="white" fill-opacity="0.3"/>
<path d="M8.90995 10H6.09005C5.27251 10 5 9.375 5 8.75V6.3587C5 5.61141 5.53318 5 6.18483 5H8.90995C9.51422 5 10 5.55707 10 6.25V8.75C10 9.44294 9.51422 10 8.90995 10Z" stroke="#24272D" stroke-width="1.2" stroke-linecap="round" stroke-linejoin="round"/>
</svg>
