<svg width="20" height="20" viewBox="0 0 20 20" fill="none" xmlns="http://www.w3.org/2000/svg">
<path d="M10.4415 17.0167H5.17484C2.5415 17.0167 1.6665 15.2667 1.6665 13.5084V6.49173C1.6665 3.8584 2.5415 2.9834 5.17484 2.9834H10.4415C13.0748 2.9834 13.9498 3.8584 13.9498 6.49173V13.5084C13.9498 16.1417 13.0665 17.0167 10.4415 17.0167Z" fill="white" fill-opacity="0.3"/>
<path d="M5.5 9.5C6.60457 9.5 7.5 8.60457 7.5 7.5C7.5 6.39543 6.60457 5.5 5.5 5.5C4.39543 5.5 3.5 6.39543 3.5 7.5C3.5 8.60457 4.39543 9.5 5.5 9.5Z" stroke="#24272D" stroke-width="1.2" stroke-linecap="round" stroke-linejoin="round"/>
<path d="M16.2669 14.2501L13.9502 12.6251V7.36678L16.2669 5.74178C17.4002 4.95011 18.3335 5.43344 18.3335 6.82511V13.1751C18.3335 14.5668 17.4002 15.0501 16.2669 14.2501Z" fill="white" fill-opacity="0.3"/>
</svg>
