<svg width="106" height="14" viewBox="0 0 106 14" fill="none" xmlns="http://www.w3.org/2000/svg">
<path d="M53.0021 11.542L54.0101 10.192C54.0101 10.192 55.3601 11.56 57.2501 11.56C58.4381 11.56 59.4461 10.894 59.4461 9.688C59.4461 6.934 53.2901 7.528 53.2901 3.622C53.2901 1.642 55.0001 0.075999 57.3941 0.075999C59.7521 0.075999 60.9941 1.354 60.9941 1.354L60.1841 2.83C60.1841 2.83 59.0141 1.732 57.3941 1.732C56.0441 1.732 55.0901 2.578 55.0901 3.586C55.0901 6.214 61.2461 5.512 61.2461 9.634C61.2461 11.596 59.7341 13.216 57.2141 13.216C54.5141 13.216 53.0021 11.542 53.0021 11.542ZM63.7655 9.67V5.422H62.5775V4.018H63.8195V1.39H65.5115V4.018H67.7075V5.422H65.5115V9.472C65.5115 11.29 66.7895 11.524 67.4555 11.524C67.7075 11.524 67.8695 11.488 67.8695 11.488V13.036C67.8695 13.036 67.6175 13.072 67.2575 13.072C66.0875 13.072 63.7655 12.712 63.7655 9.67ZM69.7127 9.724V3.892H71.4587V9.328C71.4587 10.588 71.7107 11.596 73.1687 11.596C75.0227 11.596 76.1207 9.958 76.1207 8.158V3.892H77.8667V13H76.1747V11.794C76.1747 11.416 76.2107 11.128 76.2107 11.128H76.1747C75.7967 12.028 74.6087 13.216 72.8267 13.216C70.7747 13.216 69.7127 12.136 69.7127 9.724ZM80.0025 8.446C80.0025 5.548 81.7125 3.676 84.1245 3.676C86.2305 3.676 86.9325 5.116 86.9325 5.116H86.9685C86.9685 5.116 86.9325 4.846 86.9325 4.504V0.291999H88.6785V13H87.0225V12.136C87.0225 11.776 87.0405 11.524 87.0405 11.524H87.0045C87.0045 11.524 86.2665 13.216 84.0165 13.216C81.5505 13.216 80.0025 11.272 80.0025 8.446ZM81.7845 8.446C81.7845 10.426 82.8465 11.704 84.3585 11.704C85.7085 11.704 86.9865 10.75 86.9865 8.428C86.9865 6.808 86.1405 5.188 84.4125 5.188C82.9725 5.188 81.7845 6.376 81.7845 8.446ZM91.3891 2.074V0.291999H93.1531V2.074H91.3891ZM91.4071 13V3.892H93.1531V13H91.4071ZM95.2235 8.428C95.2235 5.674 97.4195 3.676 100.137 3.676C102.855 3.676 105.051 5.674 105.051 8.428C105.051 11.2 102.855 13.216 100.137 13.216C97.4195 13.216 95.2235 11.2 95.2235 8.428ZM97.0055 8.428C97.0055 10.336 98.4275 11.704 100.137 11.704C101.865 11.704 103.269 10.336 103.269 8.428C103.269 6.538 101.865 5.188 100.137 5.188C98.4275 5.188 97.0055 6.538 97.0055 8.428Z" fill="white"/>
<path d="M29.4732 0C27.3946 0 25.5273 0.9016 24.2424 2.3338C24.1876 2.3954 24.0922 2.3954 24.0374 2.3338C22.7525 0.9016 20.8852 0 18.8066 0C14.9308 0 11.7891 3.1339 11.7891 7C11.7891 10.8661 14.9308 14 18.8066 14C20.8852 14 22.7525 13.0984 24.0374 11.6662C24.0922 11.6046 24.1876 11.6046 24.2424 11.6662C25.5273 13.0984 27.3946 14 29.4732 14C33.349 14 36.4907 10.8661 36.4907 7C36.4907 3.1339 33.349 0 29.4732 0ZM29.4732 10.64C28.3504 10.64 27.4122 10.1003 26.8367 9.4906C26.6536 9.296 26.4262 9.0293 26.1764 8.8032C26.0571 8.6954 25.9385 8.5988 25.8248 8.512C25.3553 8.1781 24.7729 7.98 24.1406 7.98C23.5083 7.98 22.9259 8.1781 22.4564 8.512C22.342 8.5988 22.2241 8.6954 22.1048 8.8032C21.8543 9.0293 21.6276 9.296 21.4445 9.4906C20.869 10.1003 19.9308 10.64 18.808 10.64C18.7792 10.64 18.7511 10.6386 18.7224 10.6379C18.674 10.6365 18.6255 10.6351 18.5778 10.6323C18.5448 10.6302 18.5118 10.6274 18.4796 10.6246C18.4599 10.6232 18.4403 10.6211 18.4213 10.6197C16.5876 10.4272 15.1589 8.8802 15.1589 7V7.0154C15.1589 7.0049 15.1589 6.9944 15.1589 6.9846V7C15.1589 5.1205 16.5876 3.5735 18.4206 3.3803C18.441 3.3782 18.462 3.3768 18.4824 3.3747C18.514 3.3719 18.5455 3.3698 18.5771 3.3677C18.6255 3.3649 18.674 3.3635 18.7231 3.3621C18.7511 3.3621 18.7792 3.36 18.8073 3.36C19.9301 3.36 20.8683 3.8997 21.4438 4.5094C21.6269 4.704 21.8543 4.9707 22.1041 5.1968C22.2234 5.3046 22.342 5.4012 22.4557 5.488C22.9252 5.8219 23.5076 6.02 24.1399 6.02C24.7722 6.02 25.3546 5.8219 25.8241 5.488C25.9385 5.4012 26.0564 5.3046 26.1757 5.1968C26.4262 4.9707 26.6529 4.704 26.836 4.5094C27.4115 3.8997 28.3497 3.36 29.4725 3.36C29.5006 3.36 29.528 3.3614 29.556 3.3621C29.6051 3.3635 29.6543 3.3649 29.7027 3.3677C29.7336 3.3698 29.7644 3.3719 29.7953 3.3747C29.8171 3.3761 29.8388 3.3782 29.8606 3.3803C31.6234 3.5665 33.0115 5.0043 33.1146 6.7865C33.1146 6.7984 33.116 6.8096 33.1167 6.8208C33.1181 6.8537 33.1188 6.8873 33.1195 6.9202C33.1202 6.9699 33.1209 7.0189 33.1195 7.0686C33.1188 7.1057 33.1188 7.1435 33.1167 7.1806C33.1167 7.1883 33.1153 7.196 33.1153 7.2037C33.0164 8.9894 31.6262 10.4321 29.8606 10.6183C29.8381 10.6204 29.8164 10.6225 29.7939 10.6239C29.7637 10.6267 29.7336 10.6288 29.7034 10.6309C29.655 10.6337 29.6051 10.6351 29.556 10.6365C29.528 10.6365 29.5006 10.6386 29.4725 10.6386L29.4732 10.64Z" fill="white"/>
<path d="M5.46174 5.0778L7.54945 5.754C7.85962 5.88 8.98243 6.16 9.82453 7C10.6 7.7735 10.9473 8.8088 10.9473 9.8161C10.9473 12.88 7.77682 14 5.47367 14C1.96491 14 0.451928 12.4502 0 12.04L2.07438 9.3961C2.22105 9.5949 3.64911 10.92 5.47367 10.92C6.17542 10.92 7.29822 10.64 7.29822 9.8C7.29822 9.24 6.72208 8.799 5.47367 8.4L3.38666 7.7231C1.95087 7.1554 0.842102 6.16 0.842102 4.2C0.842102 3.1269 1.25543 2.31 1.44421 2.0174C2.61122 0.2051 4.94595 0 5.75437 0C7.17612 0 8.22664 0.2618 8.98874 0.5831C9.95646 0.9912 10.4596 1.4952 10.6666 1.68L8.93681 3.885C6.96278 2.667 5.73261 2.758 5.05261 2.9988C4.58946 3.1626 4.44209 3.5308 4.42104 3.7688C4.39507 4.0621 4.44209 4.6977 5.46174 5.0771V5.0778Z" fill="#FCFCFD"/>
<path d="M43.5086 0.0683594H37.8945V13.9284H41.2629V9.30836H43.5086C45.8728 9.30836 47.9998 7.90836 47.9998 4.68836C47.9998 1.46836 45.8728 0.0683594 43.5086 0.0683594ZM44.6314 4.68836C44.6314 5.69356 43.8145 6.50836 42.8068 6.50836H41.2629V2.86836H42.8068C43.8145 2.86836 44.6314 3.68316 44.6314 4.68836Z" fill="#FCFCFD"/>
</svg>
