<svg width="24" height="25" viewBox="0 0 24 25" fill="none" xmlns="http://www.w3.org/2000/svg">
<path fill-rule="evenodd" clip-rule="evenodd" d="M6 12.0417V13.1605C6 13.8216 6.50975 14.3682 7.13943 14.3682C8.22489 14.3682 8.66867 15.1819 8.12294 16.1799C7.81109 16.752 7.997 17.4957 8.54273 17.8263L9.58021 18.4556C10.054 18.7543 10.6657 18.5763 10.9475 18.0742L11.0135 17.9534C11.5592 16.9554 12.4468 16.9554 12.9865 17.9534L13.0525 18.0742C13.3343 18.5763 13.946 18.7543 14.4198 18.4556L15.4573 17.8263C16.003 17.4957 16.1889 16.7583 15.8771 16.1799C15.3313 15.1819 15.7751 14.3682 16.8606 14.3682C17.4903 14.3682 18 13.8216 18 13.1605V12.0417C18 11.3742 17.4843 10.8339 16.8606 10.8339C15.7751 10.8339 15.3313 10.0203 15.8771 9.02227C16.1889 8.45017 16.003 7.70644 15.4573 7.37589L14.4198 6.74658C13.946 6.44782 13.3343 6.6258 13.0525 7.12798L12.9865 7.24876C12.4408 8.24675 11.5532 8.24675 11.0135 7.24876L10.9475 7.12798C10.6657 6.6258 10.054 6.44782 9.58021 6.74658L8.54273 7.37589C7.997 7.70644 7.81109 8.45017 8.12294 9.02227C8.66867 10.0203 8.22489 10.8339 7.13943 10.8339C6.50975 10.8339 6 11.3806 6 12.0417ZM14 12.6011C14 13.7056 13.1046 14.6011 12 14.6011C10.8954 14.6011 10 13.7056 10 12.6011C10 11.4965 10.8954 10.6011 12 10.6011C13.1046 10.6011 14 11.4965 14 12.6011Z" fill="#A7A9AB"/>
</svg>
