<svg width="30" height="18" viewBox="0 0 30 18" fill="none" xmlns="http://www.w3.org/2000/svg">
<path fill-rule="evenodd" clip-rule="evenodd" d="M19.4851 0.37885C19.4181 0.110953 19.1466 -0.0519274 18.8787 0.015047C18.6108 0.0820214 18.448 0.353489 18.5149 0.621386C19.2889 3.71717 20.7221 5.82568 22.6442 7.21759C23.3756 7.74721 24.1709 8.16807 25.0168 8.50012H0.5C0.223858 8.50012 0 8.72398 0 9.00012C0 9.27626 0.223858 9.50012 0.5 9.50012H25.0168C24.1709 9.83217 23.3756 10.253 22.6442 10.7826C20.7221 12.1746 19.2889 14.2831 18.5149 17.3789C18.448 17.6467 18.6108 17.9182 18.8787 17.9852C19.1466 18.0522 19.4181 17.8893 19.4851 17.6214C20.2111 14.7172 21.5279 12.8257 23.2308 11.5926C24.9432 10.3525 27.0936 9.7438 29.5446 9.49815C29.669 9.48713 29.7806 9.43051 29.8623 9.34476C29.9116 9.29291 29.95 9.23043 29.9735 9.16094C29.9908 9.11027 30.0001 9.05613 30 9.00012C30.0001 8.86771 29.9481 8.74579 29.8623 8.65548C29.8129 8.60361 29.7524 8.56217 29.6842 8.53517C29.6403 8.51777 29.5935 8.50641 29.5446 8.50209C27.0936 8.25644 24.9432 7.6477 23.2308 6.40765C21.5279 5.17456 20.2111 3.28307 19.4851 0.37885Z" fill="#24272D"/>
</svg>
