<svg width="50" height="50" viewBox="0 0 50 50" fill="none" xmlns="http://www.w3.org/2000/svg">
<rect width="50" height="50" rx="14" fill="#111111"/>
<path fill-rule="evenodd" clip-rule="evenodd" d="M37.4978 21.8527C30.5971 14.9521 19.409 14.9521 12.5084 21.8527C11.5592 22.8019 10.0204 22.8019 9.07123 21.8527C8.12209 20.9036 8.12209 19.3647 9.07123 18.4156C17.8701 9.61668 32.136 9.61668 40.9349 18.4156C41.884 19.3647 41.884 20.9036 40.9349 21.8527C39.9858 22.8019 38.4469 22.8019 37.4978 21.8527ZM32.7605 28.7765C28.4765 24.4925 21.5307 24.4925 17.2467 28.7765C16.2975 29.7257 14.7587 29.7257 13.8095 28.7765C12.8604 27.8274 12.8604 26.2885 13.8095 25.3394C19.9918 19.1571 30.0154 19.1571 36.1977 25.3394C37.1468 26.2885 37.1468 27.8274 36.1977 28.7765C35.2485 29.7257 33.7097 29.7257 32.7605 28.7765ZM24.6682 38.183C27.1535 38.183 29.1682 36.1683 29.1682 33.683C29.1682 31.1977 27.1535 29.183 24.6682 29.183C22.183 29.183 20.1682 31.1977 20.1682 33.683C20.1682 36.1683 22.183 38.183 24.6682 38.183Z" fill="white"/>
<path fill-rule="evenodd" clip-rule="evenodd" d="M37.4978 21.8527C30.5971 14.9521 19.409 14.9521 12.5084 21.8527C11.5592 22.8019 10.0204 22.8019 9.07123 21.8527C8.12209 20.9036 8.12209 19.3647 9.07123 18.4156C17.8701 9.61668 32.136 9.61668 40.9349 18.4156C41.884 19.3647 41.884 20.9036 40.9349 21.8527C39.9858 22.8019 38.4469 22.8019 37.4978 21.8527ZM32.7605 28.7765C28.4765 24.4925 21.5307 24.4925 17.2467 28.7765C16.2975 29.7257 14.7587 29.7257 13.8095 28.7765C12.8604 27.8274 12.8604 26.2885 13.8095 25.3394C19.9918 19.1571 30.0154 19.1571 36.1977 25.3394C37.1468 26.2885 37.1468 27.8274 36.1977 28.7765C35.2485 29.7257 33.7097 29.7257 32.7605 28.7765ZM24.6682 38.183C27.1535 38.183 29.1682 36.1683 29.1682 33.683C29.1682 31.1977 27.1535 29.183 24.6682 29.183C22.183 29.183 20.1682 31.1977 20.1682 33.683C20.1682 36.1683 22.183 38.183 24.6682 38.183Z" fill="url(#paint0_linear_0_1)"/>
<defs>
<linearGradient id="paint0_linear_0_1" x1="8.29878" y1="30.6708" x2="26.1638" y2="14.0981" gradientUnits="userSpaceOnUse">
<stop stop-color="#D1FF00"/>
<stop offset="0.55" stop-color="#D1FF00"/>
<stop offset="0.97" stop-color="#FFF000"/>
<stop offset="1" stop-color="#FFF000"/>
</linearGradient>
</defs>
</svg>
