<svg width="50" height="50" viewBox="0 0 50 50" fill="none" xmlns="http://www.w3.org/2000/svg">
<rect opacity="0.5" width="50" height="50" rx="14" fill="#24272D"/>
<path d="M17 18.9395C17 17.888 17.3376 16.8255 18.0127 15.752C18.6878 14.6673 19.6729 13.7708 20.9678 13.0625C22.2627 12.3542 23.7734 12 25.5 12C27.1048 12 28.5215 12.2988 29.75 12.8965C30.9785 13.4831 31.9248 14.2855 32.5889 15.3037C33.264 16.3219 33.6016 17.4287 33.6016 18.624C33.6016 19.5648 33.4079 20.3893 33.0205 21.0977C32.6442 21.806 32.1904 22.4202 31.6592 22.9404C31.139 23.4495 30.1982 24.3128 28.8369 25.5303C28.4606 25.8734 28.1562 26.1777 27.9238 26.4434C27.7025 26.6979 27.5365 26.9359 27.4258 27.1572C27.3151 27.3675 27.2266 27.5833 27.1602 27.8047C27.1048 28.015 27.0163 28.3913 26.8945 28.9336C26.6842 30.0846 26.0257 30.6602 24.9189 30.6602C24.3434 30.6602 23.8564 30.472 23.458 30.0957C23.0706 29.7194 22.877 29.1605 22.877 28.4189C22.877 27.4893 23.0208 26.6868 23.3086 26.0117C23.5964 25.3255 23.9782 24.7279 24.4541 24.2188C24.93 23.6986 25.5719 23.0843 26.3799 22.376C27.0882 21.7562 27.5973 21.2913 27.9072 20.9814C28.2282 20.6605 28.4938 20.3063 28.7041 19.9189C28.9255 19.5316 29.0361 19.111 29.0361 18.6572C29.0361 17.7718 28.7041 17.0247 28.04 16.416C27.387 15.8073 26.5404 15.5029 25.5 15.5029C24.2826 15.5029 23.3861 15.8128 22.8105 16.4326C22.235 17.0413 21.748 17.9434 21.3496 19.1387C20.9733 20.3893 20.2594 21.0146 19.208 21.0146C18.5882 21.0146 18.0625 20.7988 17.6309 20.3672C17.2103 19.9245 17 19.4486 17 18.9395ZM25.1016 37.1348C24.4264 37.1348 23.8343 36.9189 23.3252 36.4873C22.8271 36.0446 22.5781 35.4303 22.5781 34.6445C22.5781 33.9473 22.8216 33.3607 23.3086 32.8848C23.7956 32.4089 24.3932 32.1709 25.1016 32.1709C25.7988 32.1709 26.3854 32.4089 26.8613 32.8848C27.3372 33.3607 27.5752 33.9473 27.5752 34.6445C27.5752 35.4193 27.3262 36.028 26.8281 36.4707C26.3301 36.9134 25.7546 37.1348 25.1016 37.1348Z" fill="#444444"/>
</svg>
