<svg width="30" height="30" viewBox="0 0 30 30" fill="none" xmlns="http://www.w3.org/2000/svg">
<rect width="30" height="30" rx="4" fill="white" fill-opacity="0.1"/>
<path d="M15 18C16.6569 18 18 16.6569 18 15C18 13.3431 16.6569 12 15 12C13.3431 12 12 13.3431 12 15C12 16.6569 13.3431 18 15 18Z" stroke="white" stroke-width="1.5" stroke-miterlimit="10" stroke-linecap="round" stroke-linejoin="round"/>
<path d="M5 15.8804V14.1204C5 13.0804 5.85 12.2204 6.9 12.2204C8.71 12.2204 9.45 10.9404 8.54 9.37042C8.02 8.47042 8.33 7.30042 9.24 6.78042L10.97 5.79042C11.76 5.32042 12.78 5.60042 13.25 6.39042L13.36 6.58042C14.26 8.15042 15.74 8.15042 16.65 6.58042L16.76 6.39042C17.23 5.60042 18.25 5.32042 19.04 5.79042L20.77 6.78042C21.68 7.30042 21.99 8.47042 21.47 9.37042C20.56 10.9404 21.3 12.2204 23.11 12.2204C24.15 12.2204 25.01 13.0704 25.01 14.1204V15.8804C25.01 16.9204 24.16 17.7804 23.11 17.7804C21.3 17.7804 20.56 19.0604 21.47 20.6304C21.99 21.5404 21.68 22.7004 20.77 23.2204L19.04 24.2104C18.25 24.6804 17.23 24.4004 16.76 23.6104L16.65 23.4204C15.75 21.8504 14.27 21.8504 13.36 23.4204L13.25 23.6104C12.78 24.4004 11.76 24.6804 10.97 24.2104L9.24 23.2204C8.33 22.7004 8.02 21.5304 8.54 20.6304C9.45 19.0604 8.71 17.7804 6.9 17.7804C5.85 17.7804 5 16.9204 5 15.8804Z" stroke="white" stroke-width="1.5" stroke-miterlimit="10" stroke-linecap="round" stroke-linejoin="round"/>
</svg>
