<svg width="17" height="16" viewBox="0 0 17 16" fill="none" xmlns="http://www.w3.org/2000/svg">
<g id="Frame 6039">
<path id="Vector (Stroke)" fill-rule="evenodd" clip-rule="evenodd" d="M7.16011 3.89465C6.9258 3.66034 6.9258 3.28044 7.16011 3.04612L7.90752 2.29871C9.64211 0.564121 12.4721 0.570074 14.2008 2.29871C15.9354 4.0333 15.9294 6.86333 14.2008 8.59196L13.4534 9.33938C13.219 9.57369 12.8392 9.57369 12.6048 9.33938C12.3705 9.10506 12.3705 8.72516 12.6048 8.49085L13.3522 7.74344C14.6133 6.48242 14.6172 4.4122 13.3522 3.14724C12.0912 1.88623 10.021 1.88228 8.75605 3.14724L8.00864 3.89465C7.77432 4.12897 7.39443 4.12897 7.16011 3.89465Z" fill="white" fill-opacity="0.6"/>
<path id="Vector (Stroke)_2" fill-rule="evenodd" clip-rule="evenodd" d="M2.80057 13.7017C1.06648 11.9676 1.06648 9.14252 2.80057 7.40843L3.54303 6.66597C3.77734 6.43166 4.15724 6.43166 4.39156 6.66597C4.62587 6.90028 4.62587 7.28018 4.39156 7.5145L3.64909 8.25696C2.38364 9.52242 2.38363 11.5877 3.64909 12.8532C4.91011 14.1142 6.98033 14.1181 8.24529 12.8532L8.98775 12.1107C9.22207 11.8764 9.60197 11.8764 9.83628 12.1107C10.0706 12.345 10.0706 12.7249 9.83628 12.9592L9.09382 13.7017C7.35923 15.4363 4.5292 15.4303 2.80057 13.7017Z" fill="white" fill-opacity="0.6"/>
<path id="Vector" d="M3.5 3L13.5002 12.9992" stroke="white" stroke-opacity="0.6" stroke-width="1.2" stroke-linecap="round" stroke-linejoin="round"/>
</g>
</svg>
