<svg width="90" height="90" viewBox="0 0 90 90" fill="none" xmlns="http://www.w3.org/2000/svg">
<path opacity="0.8" fill-rule="evenodd" clip-rule="evenodd" d="M44 59.5C44 59.7761 44.2239 60 44.5 60C44.7761 60 45 59.7761 45 59.5V46H59.5C59.7761 46 60 45.7761 60 45.5C60 45.2239 59.7761 45 59.5 45H45L45 30.5C45 30.2239 44.7761 30 44.5 30C44.2239 30 44 30.2239 44 30.5L44 45H30.5C30.2239 45 30 45.2239 30 45.5C30 45.7761 30.2239 46 30.5 46H44V59.5Z" fill="white"/>
<circle opacity="0.3" cx="45" cy="45" r="44.5" stroke="white" stroke-dasharray="3 3"/>
</svg>
