<svg width="20" height="20" viewBox="0 0 20 20" fill="none" xmlns="http://www.w3.org/2000/svg">
<g opacity="0.5">
<path fill-rule="evenodd" clip-rule="evenodd" d="M1.16406 9.99934C1.16406 5.12083 5.11888 1.16602 9.9974 1.16602C14.8759 1.16602 18.8307 5.12084 18.8307 9.99934C18.8307 14.8778 14.876 18.8327 9.9974 18.8327C5.11888 18.8327 1.16406 14.8778 1.16406 9.99934ZM9.9974 2.16602C9.30504 2.16602 8.63365 2.25584 7.99426 2.42447C8.00609 2.50186 7.99975 2.58201 7.97426 2.65836C7.61347 3.73887 7.33452 4.83953 7.13739 5.95119C9.03893 5.7246 10.9611 5.7246 12.8626 5.9512C12.6655 4.83953 12.3865 3.73887 12.0257 2.65836C11.9998 2.58082 11.994 2.50141 12.0054 2.42577C11.3646 2.2563 10.6915 2.16602 9.9974 2.16602ZM13.0211 6.97885C11.0158 6.71538 8.98415 6.71538 6.97885 6.97885C6.71538 8.98415 6.71538 11.0158 6.97885 13.0211C8.98415 13.2846 11.0158 13.2846 13.0211 13.0211C13.2846 11.0158 13.2846 8.98415 13.0211 6.97885ZM6.09799 6.09799C6.26855 5.05447 6.508 4.01951 6.81632 3H6.66667C6.61568 3 6.56646 2.99237 6.52012 2.97818C4.87059 3.79669 3.55057 5.17938 2.81243 6.87388C3.89248 6.53765 4.99042 6.27902 6.09799 6.09799ZM2.42306 7.99415C2.49952 8.00612 2.57989 8.00046 2.65836 7.97426C3.73887 7.61347 4.83953 7.33452 5.95119 7.13739C5.7246 9.03893 5.7246 10.9611 5.95119 12.8626C4.83953 12.6655 3.73887 12.3865 2.65836 12.0257C2.58166 12.0001 2.50113 11.9939 2.42343 12.0059C2.25421 11.3655 2.16406 10.6929 2.16406 9.99934C2.16406 9.30624 2.25408 8.63415 2.42306 7.99415ZM14.0488 7.1374C15.1605 7.33452 16.2611 7.61347 17.3416 7.97426C17.4184 7.99989 17.497 8.00585 17.5719 7.9949C17.7408 8.63468 17.8307 9.30651 17.8307 9.99934C17.8307 10.6927 17.7406 11.365 17.5715 12.0051C17.4954 11.9941 17.4167 12.0007 17.3416 12.0257C16.2611 12.3865 15.1605 12.6655 14.0488 12.8626C14.2754 10.9611 14.2754 9.03893 14.0488 7.1374ZM17.1815 6.872C16.1034 6.53669 15.0075 6.27869 13.902 6.098C13.7212 4.99175 13.463 3.89512 13.1273 2.81633C14.938 3.6064 16.3921 5.06102 17.1815 6.872ZM3 13.3333C3 13.3845 2.99232 13.4338 2.97805 13.4803C3.73959 15.013 4.98837 16.2609 6.52174 17.0213C6.56761 17.0075 6.61627 17 6.66667 17H6.81632C6.508 15.9805 6.26856 14.9455 6.098 13.902C5.05448 13.7314 4.01951 13.492 3 13.1837V13.3333ZM12.8626 14.0488C10.9611 14.2754 9.03893 14.2754 7.1374 14.0488C7.33452 15.1605 7.61347 16.2611 7.97426 17.3416C7.99962 17.4176 8.00602 17.4973 7.99445 17.5743C8.63378 17.7429 9.3051 17.8327 9.9974 17.8327C10.6915 17.8327 11.3645 17.7424 12.0053 17.573C11.9941 17.4977 12 17.4188 12.0257 17.3416C12.3865 16.2611 12.6655 15.1605 12.8626 14.0488ZM13.1278 17.1822C13.4632 16.1039 13.7213 15.0077 13.902 13.902C14.9455 13.7314 15.9805 13.492 17 13.1837V13.3333C17 13.3821 17.007 13.4292 17.02 13.4737C16.2025 15.123 14.821 16.4432 13.1278 17.1822Z" fill="white"/>
</g>
</svg>
