<svg width="73" height="22" viewBox="0 0 73 22" fill="none" xmlns="http://www.w3.org/2000/svg">
<g id="Group 5958">
<g id="Vector">
<path d="M44.714 0.474609C41.5961 0.474609 38.795 1.83022 36.8676 3.98362C36.7855 4.07624 36.6424 4.07624 36.5603 3.98362C34.6329 1.83022 31.8318 0.474609 28.7139 0.474609C22.9002 0.474609 18.1875 5.18663 18.1875 10.9996C18.1875 16.8125 22.9002 21.5245 28.7139 21.5245C31.8318 21.5245 34.6329 20.1689 36.5603 18.0155C36.6424 17.9229 36.7855 17.9229 36.8676 18.0155C38.795 20.1689 41.5961 21.5245 44.714 21.5245C50.5277 21.5245 55.2404 16.8125 55.2404 10.9996C55.2404 5.18663 50.5277 0.474609 44.714 0.474609ZM44.714 16.4725C43.0298 16.4725 41.6224 15.661 40.7592 14.7443C40.4845 14.4517 40.1435 14.0507 39.7687 13.7108C39.5898 13.5487 39.4119 13.4034 39.2413 13.2729C38.5371 12.7709 37.6634 12.473 36.715 12.473C35.7666 12.473 34.8929 12.7709 34.1887 13.2729C34.0171 13.4034 33.8402 13.5487 33.6613 13.7108C33.2855 14.0507 32.9455 14.4517 32.6708 14.7443C31.8076 15.661 30.4002 16.4725 28.716 16.4725C28.6728 16.4725 28.6307 16.4704 28.5876 16.4694C28.5149 16.4673 28.4423 16.4652 28.3707 16.4609C28.3213 16.4578 28.2718 16.4536 28.2234 16.4494C28.1939 16.4473 28.1644 16.4441 28.136 16.442C25.3854 16.1526 23.2423 13.8266 23.2423 10.9996V11.0227C23.2423 11.0069 23.2423 10.9911 23.2423 10.9764V10.9996C23.2423 8.1736 25.3854 5.84759 28.1349 5.5571C28.1655 5.55395 28.197 5.55184 28.2276 5.54868C28.2749 5.54447 28.3223 5.54132 28.3697 5.53816C28.4423 5.53395 28.5149 5.53184 28.5886 5.52974C28.6307 5.52974 28.6728 5.52658 28.7149 5.52658C30.3992 5.52658 31.8065 6.33805 32.6697 7.25478C32.9445 7.54737 33.2855 7.94837 33.6602 8.28833C33.8392 8.45041 34.0171 8.59565 34.1876 8.72616C34.8918 9.2282 35.7655 9.52606 36.714 9.52606C37.6624 9.52606 38.5361 9.2282 39.2403 8.72616C39.4119 8.59565 39.5887 8.45041 39.7677 8.28833C40.1435 7.94837 40.4835 7.54737 40.7582 7.25478C41.6214 6.33805 43.0287 5.52658 44.713 5.52658C44.7551 5.52658 44.7961 5.52869 44.8382 5.52974C44.9119 5.53184 44.9856 5.53395 45.0582 5.53816C45.1045 5.54132 45.1509 5.54447 45.1972 5.54868C45.2298 5.55079 45.2624 5.55395 45.2951 5.5571C47.9393 5.83707 50.0214 7.99889 50.1762 10.6785C50.1762 10.6964 50.1783 10.7133 50.1793 10.7301C50.1814 10.7796 50.1825 10.8301 50.1835 10.8796C50.1846 10.9543 50.1856 11.028 50.1835 11.1027C50.1825 11.1585 50.1825 11.2153 50.1793 11.2711C50.1793 11.2827 50.1772 11.2942 50.1772 11.3058C50.0288 13.9907 47.9435 16.1599 45.2951 16.4399C45.2614 16.4431 45.2288 16.4462 45.1951 16.4483C45.1498 16.4525 45.1045 16.4557 45.0593 16.4588C44.9866 16.463 44.9119 16.4652 44.8382 16.4673C44.7961 16.4673 44.7551 16.4704 44.713 16.4704L44.714 16.4725Z" fill="white"/>
<path d="M44.714 0.474609C41.5961 0.474609 38.795 1.83022 36.8676 3.98362C36.7855 4.07624 36.6424 4.07624 36.5603 3.98362C34.6329 1.83022 31.8318 0.474609 28.7139 0.474609C22.9002 0.474609 18.1875 5.18663 18.1875 10.9996C18.1875 16.8125 22.9002 21.5245 28.7139 21.5245C31.8318 21.5245 34.6329 20.1689 36.5603 18.0155C36.6424 17.9229 36.7855 17.9229 36.8676 18.0155C38.795 20.1689 41.5961 21.5245 44.714 21.5245C50.5277 21.5245 55.2404 16.8125 55.2404 10.9996C55.2404 5.18663 50.5277 0.474609 44.714 0.474609ZM44.714 16.4725C43.0298 16.4725 41.6224 15.661 40.7592 14.7443C40.4845 14.4517 40.1435 14.0507 39.7687 13.7108C39.5898 13.5487 39.4119 13.4034 39.2413 13.2729C38.5371 12.7709 37.6634 12.473 36.715 12.473C35.7666 12.473 34.8929 12.7709 34.1887 13.2729C34.0171 13.4034 33.8402 13.5487 33.6613 13.7108C33.2855 14.0507 32.9455 14.4517 32.6708 14.7443C31.8076 15.661 30.4002 16.4725 28.716 16.4725C28.6728 16.4725 28.6307 16.4704 28.5876 16.4694C28.5149 16.4673 28.4423 16.4652 28.3707 16.4609C28.3213 16.4578 28.2718 16.4536 28.2234 16.4494C28.1939 16.4473 28.1644 16.4441 28.136 16.442C25.3854 16.1526 23.2423 13.8266 23.2423 10.9996V11.0227C23.2423 11.0069 23.2423 10.9911 23.2423 10.9764V10.9996C23.2423 8.1736 25.3854 5.84759 28.1349 5.5571C28.1655 5.55395 28.197 5.55184 28.2276 5.54868C28.2749 5.54447 28.3223 5.54132 28.3697 5.53816C28.4423 5.53395 28.5149 5.53184 28.5886 5.52974C28.6307 5.52974 28.6728 5.52658 28.7149 5.52658C30.3992 5.52658 31.8065 6.33805 32.6697 7.25478C32.9445 7.54737 33.2855 7.94837 33.6602 8.28833C33.8392 8.45041 34.0171 8.59565 34.1876 8.72616C34.8918 9.2282 35.7655 9.52606 36.714 9.52606C37.6624 9.52606 38.5361 9.2282 39.2403 8.72616C39.4119 8.59565 39.5887 8.45041 39.7677 8.28833C40.1435 7.94837 40.4835 7.54737 40.7582 7.25478C41.6214 6.33805 43.0287 5.52658 44.713 5.52658C44.7551 5.52658 44.7961 5.52869 44.8382 5.52974C44.9119 5.53184 44.9856 5.53395 45.0582 5.53816C45.1045 5.54132 45.1509 5.54447 45.1972 5.54868C45.2298 5.55079 45.2624 5.55395 45.2951 5.5571C47.9393 5.83707 50.0214 7.99889 50.1762 10.6785C50.1762 10.6964 50.1783 10.7133 50.1793 10.7301C50.1814 10.7796 50.1825 10.8301 50.1835 10.8796C50.1846 10.9543 50.1856 11.028 50.1835 11.1027C50.1825 11.1585 50.1825 11.2153 50.1793 11.2711C50.1793 11.2827 50.1772 11.2942 50.1772 11.3058C50.0288 13.9907 47.9435 16.1599 45.2951 16.4399C45.2614 16.4431 45.2288 16.4462 45.1951 16.4483C45.1498 16.4525 45.1045 16.4557 45.0593 16.4588C44.9866 16.463 44.9119 16.4652 44.8382 16.4673C44.7961 16.4673 44.7551 16.4704 44.713 16.4704L44.714 16.4725Z" fill="url(#paint0_linear_77_5362)"/>
</g>
<path id="Vector_2" d="M8.69269 8.1094L11.8243 9.12611C12.2896 9.31556 13.9738 9.73656 15.2369 10.9996C16.4001 12.1626 16.9212 13.7192 16.9212 15.2337C16.9212 19.8405 12.1653 21.5245 8.71059 21.5245C3.44739 21.5245 1.1779 19.1943 0.5 18.5775L3.6116 14.6022C3.8316 14.9011 5.97372 16.8935 8.71059 16.8935C9.76322 16.8935 11.4474 16.4725 11.4474 15.2095C11.4474 14.3675 10.5832 13.7045 8.71059 13.1045L5.58004 12.0868C3.42634 11.2332 1.76317 9.73656 1.76317 6.78957C1.76317 5.1761 2.38317 3.94784 2.66633 3.5079C4.41687 0.78299 7.919 0.474609 9.13164 0.474609C11.2643 0.474609 12.8401 0.868242 13.9833 1.35134C15.4348 1.96494 16.1896 2.72274 16.5001 3.0006L13.9054 6.31595C10.9443 4.48461 9.09901 4.62144 8.079 4.98349C7.38426 5.22978 7.16321 5.78339 7.13163 6.14124C7.09268 6.58223 7.16321 7.5379 8.69269 8.10835V8.1094Z" fill="#FCFCFD"/>
<path id="Vector_3" d="M65.7629 0.577148H57.3418V21.4165H62.3945V14.4701H65.7629C69.3093 14.4701 72.4998 12.3651 72.4998 7.52361C72.4998 2.68214 69.3093 0.577148 65.7629 0.577148ZM67.4471 7.52361C67.4471 9.03499 66.2219 10.2601 64.7103 10.2601H62.3945V4.78712H64.7103C66.2219 4.78712 67.4471 6.01223 67.4471 7.52361Z" fill="#FCFCFD"/>
</g>
<defs>
<linearGradient id="paint0_linear_77_5362" x1="18.2362" y1="11.0432" x2="55.2934" y2="11.0432" gradientUnits="userSpaceOnUse">
<stop stop-color="#D1FF00"/>
<stop offset="0.55" stop-color="#D1FF00"/>
<stop offset="0.97" stop-color="#FFF000"/>
<stop offset="1" stop-color="#FFF000"/>
</linearGradient>
</defs>
</svg>
