<svg width="101" height="18" viewBox="0 0 101 18" fill="none" xmlns="http://www.w3.org/2000/svg">
<path fill-rule="evenodd" clip-rule="evenodd" d="M13.1446 3.55053C13.1446 3.55053 13.0953 0.0384733 17.1012 0H20.8499C21.6544 0 22.333 0.560611 22.333 1.25313C22.333 1.94565 21.6544 2.52275 20.8499 2.52275H19.1151C17.9659 2.52824 18.0644 3.36366 18.0644 3.36366V5.00153H20.1604C20.9922 5.00153 21.6708 5.53466 21.6708 6.22168C21.6708 6.9087 21.0798 7.46931 20.2698 7.46931H18.0644V15.785C18.0644 16.9557 17.0574 17.9945 15.6565 17.9945C14.2555 17.9945 13.15 17.0492 13.15 15.8565V3.55053H13.1446ZM27.0776 15.7743C27.0776 17.0384 26.0707 18.0003 24.6697 18.0003C23.2687 18.0003 22.1523 17.0384 22.1523 15.8677V8.37645C22.1523 8.37645 22.1523 5.07324 26.2185 5.07324H29.4418C31.1273 5.07324 31.1273 6.37034 31.1273 6.37034C31.1273 6.37034 31.1273 7.61798 29.5512 7.61798H28.1284C27.0776 7.61798 27.0776 8.43691 27.0776 8.43691V15.7743ZM55.2061 8.37027C55.2061 8.37027 55.2061 4.97913 51.0032 4.97913L50.9977 4.97363H48.2341C44.2281 5.00661 44.1953 8.36478 44.1953 8.36478V14.6469C44.1953 14.6469 44.1953 17.9941 48.2012 17.9941H52.7708C53.5807 17.9941 54.2593 17.3785 54.2593 16.675C54.2593 15.9715 53.6026 15.4109 52.7708 15.4054H50.1713C49.1042 15.4054 49.0549 14.6139 49.0549 14.6139V13.108H53.6902C54.522 13.108 55.2061 12.5913 55.2061 11.8823V8.37027ZM49.1097 8.42524C49.1097 8.42524 49.1097 7.62829 50.1987 7.62829H51.2276C52.2126 7.62829 52.2126 8.4802 52.2126 8.4802V10.6127H49.1097V8.42524ZM65.7402 15.4772C66.572 15.4552 67.3163 16.1093 67.3163 16.8128C67.3163 17.5163 66.572 17.9999 65.7402 17.9999H59.1895C57.8105 17.9999 56.8145 17.1645 56.8145 15.9774V7.11751C56.8145 5.94132 57.9527 4.97949 59.3318 4.97949H65.9919C66.8292 4.97949 67.4805 5.53461 67.4805 6.23812C67.4805 6.94163 66.8292 7.46926 65.9919 7.46926H62.4402C61.8328 7.46926 61.8328 7.9914 61.8328 7.9914V14.9331C61.8328 14.9331 61.789 15.4717 62.4457 15.4717H65.7457L65.7402 15.4772ZM78.7104 15.8238V8.34352H78.7158C78.7158 8.34352 78.7158 5.00184 74.7045 4.98535H70.4085C69.5767 4.98535 68.8105 5.66138 68.8105 6.37039C68.8105 7.0794 69.6205 7.56856 70.4523 7.56856H72.7289C73.7139 7.56856 73.7139 8.36001 73.7139 8.36001V9.89344H71.9189C67.9951 9.87696 67.7324 12.9383 67.7324 12.9383V14.6147C67.7324 14.6147 67.7324 18.0003 71.9189 18.0003H76.1054H76.1656C77.5666 18.0003 78.7104 17.0165 78.7104 15.8238ZM73.7085 15.4336H71.7164C70.6219 15.4336 70.7369 13.9441 70.7369 13.9441C70.7369 13.9441 70.6329 12.4492 71.7164 12.4492H73.7085V15.4336ZM90.4047 1.69789C90.4047 1.69789 90.4047 0.554688 88.8997 0.554688H78.4362C76.9258 0.554688 76.9258 1.66492 76.9258 1.66492C76.9258 1.66492 76.9258 2.76415 78.3377 2.76415H80.5267C81.468 2.76415 81.468 3.48415 81.468 3.48415V10.2555C81.468 11.3657 82.371 12.2176 83.6242 12.2176C84.8774 12.2176 85.8734 11.3712 85.8734 10.3379V3.46766C85.8898 3.31377 86.0102 2.79163 86.8092 2.79163H88.9982C90.4102 2.79163 90.4102 1.6924 90.4102 1.6924L90.4047 1.69789ZM11.4912 15.8235V8.33766L11.4967 8.34316C11.4967 8.34316 11.4967 5.00148 7.48532 4.97949H3.18389C2.35206 4.97949 1.58043 5.65552 1.58043 6.36453C1.58043 7.07354 2.39584 7.5627 3.22767 7.5627H5.50426C6.48932 7.5627 6.48932 8.35415 6.48932 8.35415V9.88758H4.69432C0.770495 9.87109 0.507812 12.9325 0.507812 12.9325V14.6088C0.507812 14.6088 0.507812 17.9999 4.69432 17.9999H8.94649C10.3475 17.9999 11.4912 17.0161 11.4912 15.8235ZM6.48384 15.4332H4.49183C3.39732 15.4332 3.51225 13.9438 3.51225 13.9438C3.51225 13.9438 3.36449 12.4543 4.49183 12.4543H6.48384V15.4332ZM38.4 4.97913C42.6084 4.97913 42.6084 8.37027 42.6084 8.37027V11.8823C42.6084 12.5913 41.9244 13.108 41.0925 13.108H36.4573V14.6139C36.4573 14.6139 36.5011 15.4054 37.5737 15.4054H40.1731C41.0104 15.4109 41.6617 15.9715 41.6617 16.675C41.6617 17.3785 40.9831 17.9941 40.1731 17.9941H35.6036C31.5977 17.9941 31.5977 14.6469 31.5977 14.6469V8.36478C31.5977 8.36478 31.625 5.00661 35.6364 4.97363H38.4V4.97913ZM37.5901 7.62829C36.5011 7.62829 36.5011 8.42524 36.5011 8.42524V10.6127H39.604V8.4802C39.604 8.4802 39.604 7.62829 38.6189 7.62829H37.5901ZM96.4956 1.69855C97.2289 0.610306 98.6135 0.264047 99.5985 0.929085H99.593C100.578 1.58863 100.792 3.01214 100.064 4.10038L95.0453 11.0146C94.3175 12.1028 93.0698 12.2787 92.4076 12.1193C91.6688 11.9379 91.2091 11.5752 91.0011 11.1355L88.3852 5.10069C88.1171 4.52359 88.4892 3.6497 89.0967 3.36939C89.6987 3.08909 90.837 3.36389 91.0996 3.94649L92.528 7.03534L96.4956 1.69855Z" fill="white"/>
</svg>
