<svg width="73" height="22" viewBox="0 0 73 22" fill="none" xmlns="http://www.w3.org/2000/svg">
<g id="Group 5958">
<g id="Vector">
<path d="M44.714 0.473633C41.5961 0.473633 38.795 1.82941 36.8676 3.98309C36.7855 4.07572 36.6424 4.07572 36.5603 3.98309C34.6329 1.82941 31.8318 0.473633 28.7139 0.473633C22.9002 0.473633 18.1875 5.18624 18.1875 10.9999C18.1875 16.8135 22.9002 21.5261 28.7139 21.5261C31.8318 21.5261 34.6329 20.1704 36.5603 18.0167C36.6424 17.9241 36.7855 17.9241 36.8676 18.0167C38.795 20.1704 41.5961 21.5261 44.714 21.5261C50.5277 21.5261 55.2404 16.8135 55.2404 10.9999C55.2404 5.18624 50.5277 0.473633 44.714 0.473633ZM44.714 16.4735C43.0298 16.4735 41.6224 15.662 40.7592 14.7451C40.4845 14.4525 40.1434 14.0514 39.7687 13.7114C39.5897 13.5493 39.4119 13.4041 39.2413 13.2736C38.5371 12.7715 37.6634 12.4736 36.715 12.4736C35.7666 12.4736 34.8929 12.7715 34.1887 13.2736C34.0171 13.4041 33.8402 13.5493 33.6613 13.7114C33.2855 14.0514 32.9455 14.4525 32.6708 14.7451C31.8076 15.662 30.4002 16.4735 28.716 16.4735C28.6728 16.4735 28.6307 16.4714 28.5876 16.4704C28.5149 16.4683 28.4423 16.4662 28.3707 16.462C28.3213 16.4588 28.2718 16.4546 28.2234 16.4504C28.1939 16.4483 28.1644 16.4451 28.136 16.443C25.3854 16.1535 23.2423 13.8272 23.2423 10.9999V11.023C23.2423 11.0073 23.2423 10.9915 23.2423 10.9767V10.9999C23.2423 8.17359 25.3854 5.84729 28.1349 5.55676C28.1655 5.5536 28.197 5.5515 28.2276 5.54834C28.2749 5.54413 28.3223 5.54097 28.3697 5.53781C28.4423 5.5336 28.5149 5.5315 28.5886 5.52939C28.6307 5.52939 28.6728 5.52623 28.7149 5.52623C30.3992 5.52623 31.8065 6.33781 32.6697 7.25464C32.9444 7.54727 33.2855 7.94833 33.6602 8.28832C33.8392 8.45043 34.0171 8.59569 34.1876 8.72622C34.8918 9.22832 35.7655 9.52621 36.7139 9.52621C37.6624 9.52621 38.5361 9.22832 39.2403 8.72622C39.4119 8.59569 39.5887 8.45043 39.7676 8.28832C40.1434 7.94833 40.4834 7.54727 40.7582 7.25464C41.6213 6.33781 43.0287 5.52623 44.7129 5.52623C44.755 5.52623 44.7961 5.52834 44.8382 5.52939C44.9119 5.5315 44.9856 5.5336 45.0582 5.53781C45.1045 5.54097 45.1508 5.54413 45.1972 5.54834C45.2298 5.55044 45.2624 5.5536 45.295 5.55676C47.9393 5.83676 50.0214 7.99885 50.1761 10.6788C50.1761 10.6967 50.1782 10.7136 50.1793 10.7304C50.1814 10.7799 50.1824 10.8304 50.1835 10.8799C50.1846 10.9546 50.1856 11.0283 50.1835 11.103C50.1824 11.1588 50.1825 11.2157 50.1793 11.2715C50.1793 11.283 50.1772 11.2946 50.1772 11.3062C50.0288 13.9914 47.9435 16.1609 45.295 16.4409C45.2614 16.4441 45.2287 16.4472 45.195 16.4493C45.1498 16.4535 45.1045 16.4567 45.0593 16.4599C44.9866 16.4641 44.9119 16.4662 44.8382 16.4683C44.7961 16.4683 44.755 16.4714 44.7129 16.4714L44.714 16.4735Z" fill="white"/>
<path d="M44.714 0.473633C41.5961 0.473633 38.795 1.82941 36.8676 3.98309C36.7855 4.07572 36.6424 4.07572 36.5603 3.98309C34.6329 1.82941 31.8318 0.473633 28.7139 0.473633C22.9002 0.473633 18.1875 5.18624 18.1875 10.9999C18.1875 16.8135 22.9002 21.5261 28.7139 21.5261C31.8318 21.5261 34.6329 20.1704 36.5603 18.0167C36.6424 17.9241 36.7855 17.9241 36.8676 18.0167C38.795 20.1704 41.5961 21.5261 44.714 21.5261C50.5277 21.5261 55.2404 16.8135 55.2404 10.9999C55.2404 5.18624 50.5277 0.473633 44.714 0.473633ZM44.714 16.4735C43.0298 16.4735 41.6224 15.662 40.7592 14.7451C40.4845 14.4525 40.1434 14.0514 39.7687 13.7114C39.5897 13.5493 39.4119 13.4041 39.2413 13.2736C38.5371 12.7715 37.6634 12.4736 36.715 12.4736C35.7666 12.4736 34.8929 12.7715 34.1887 13.2736C34.0171 13.4041 33.8402 13.5493 33.6613 13.7114C33.2855 14.0514 32.9455 14.4525 32.6708 14.7451C31.8076 15.662 30.4002 16.4735 28.716 16.4735C28.6728 16.4735 28.6307 16.4714 28.5876 16.4704C28.5149 16.4683 28.4423 16.4662 28.3707 16.462C28.3213 16.4588 28.2718 16.4546 28.2234 16.4504C28.1939 16.4483 28.1644 16.4451 28.136 16.443C25.3854 16.1535 23.2423 13.8272 23.2423 10.9999V11.023C23.2423 11.0073 23.2423 10.9915 23.2423 10.9767V10.9999C23.2423 8.17359 25.3854 5.84729 28.1349 5.55676C28.1655 5.5536 28.197 5.5515 28.2276 5.54834C28.2749 5.54413 28.3223 5.54097 28.3697 5.53781C28.4423 5.5336 28.5149 5.5315 28.5886 5.52939C28.6307 5.52939 28.6728 5.52623 28.7149 5.52623C30.3992 5.52623 31.8065 6.33781 32.6697 7.25464C32.9444 7.54727 33.2855 7.94833 33.6602 8.28832C33.8392 8.45043 34.0171 8.59569 34.1876 8.72622C34.8918 9.22832 35.7655 9.52621 36.7139 9.52621C37.6624 9.52621 38.5361 9.22832 39.2403 8.72622C39.4119 8.59569 39.5887 8.45043 39.7676 8.28832C40.1434 7.94833 40.4834 7.54727 40.7582 7.25464C41.6213 6.33781 43.0287 5.52623 44.7129 5.52623C44.755 5.52623 44.7961 5.52834 44.8382 5.52939C44.9119 5.5315 44.9856 5.5336 45.0582 5.53781C45.1045 5.54097 45.1508 5.54413 45.1972 5.54834C45.2298 5.55044 45.2624 5.5536 45.295 5.55676C47.9393 5.83676 50.0214 7.99885 50.1761 10.6788C50.1761 10.6967 50.1782 10.7136 50.1793 10.7304C50.1814 10.7799 50.1824 10.8304 50.1835 10.8799C50.1846 10.9546 50.1856 11.0283 50.1835 11.103C50.1824 11.1588 50.1825 11.2157 50.1793 11.2715C50.1793 11.283 50.1772 11.2946 50.1772 11.3062C50.0288 13.9914 47.9435 16.1609 45.295 16.4409C45.2614 16.4441 45.2287 16.4472 45.195 16.4493C45.1498 16.4535 45.1045 16.4567 45.0593 16.4599C44.9866 16.4641 44.9119 16.4662 44.8382 16.4683C44.7961 16.4683 44.755 16.4714 44.7129 16.4714L44.714 16.4735Z" fill="url(#paint0_linear_77_5309)"/>
</g>
<path id="Vector_2" d="M8.69268 8.10938L11.8243 9.12621C12.2895 9.31569 13.9738 9.73674 15.2369 10.9999C16.4001 12.163 16.9212 13.7199 16.9212 15.2346C16.9212 19.8419 12.1653 21.5261 8.71058 21.5261C3.44739 21.5261 1.1779 19.1956 0.5 18.5788L3.6116 14.603C3.8316 14.902 5.97372 16.8946 8.71058 16.8946C9.76322 16.8946 11.4474 16.4735 11.4474 15.2104C11.4474 14.3683 10.5832 13.7051 8.71058 13.1051L5.58003 12.0872C3.42633 11.2336 1.76317 9.73674 1.76317 6.78939C1.76317 5.17571 2.38317 3.9473 2.66633 3.5073C4.41687 0.782052 7.91899 0.473633 9.13163 0.473633C11.2643 0.473633 12.8401 0.867315 13.9832 1.35047C15.4348 1.96415 16.1896 2.72204 16.5001 2.99993L13.9053 6.3157C10.9443 4.48414 9.099 4.62098 8.079 4.98308C7.38425 5.22939 7.1632 5.78308 7.13162 6.14097C7.09267 6.58202 7.1632 7.5378 8.69268 8.10832V8.10938Z" fill="#FCFCFD"/>
<path id="Vector_3" d="M65.7629 0.576172H57.3418V21.4181H62.3945V14.4708H65.7629C69.3092 14.4708 72.4998 12.3656 72.4998 7.5235C72.4998 2.68142 69.3092 0.576172 65.7629 0.576172ZM67.4471 7.5235C67.4471 9.03507 66.2219 10.2603 64.7103 10.2603H62.3945V4.78667H64.7103C66.2219 4.78667 67.4471 6.01193 67.4471 7.5235Z" fill="#FCFCFD"/>
</g>
<defs>
<linearGradient id="paint0_linear_77_5309" x1="21.9728" y1="-0.528356" x2="52.7526" y2="23.4103" gradientUnits="userSpaceOnUse">
<stop stop-color="#0082FF"/>
<stop offset="0.42" stop-color="#0A96FF"/>
<stop offset="0.56" stop-color="#05BCFF"/>
<stop offset="0.76" stop-color="#00F0FF"/>
<stop offset="0.79" stop-color="#04F0FC"/>
<stop offset="0.82" stop-color="#10F1F5"/>
<stop offset="0.85" stop-color="#24F4E8"/>
<stop offset="0.89" stop-color="#40F7D7"/>
<stop offset="0.92" stop-color="#64FBC1"/>
<stop offset="0.94" stop-color="#82FFB0"/>
</linearGradient>
</defs>
</svg>
