<svg width="75" height="26" viewBox="0 0 75 26" fill="none" xmlns="http://www.w3.org/2000/svg">
<g id="TwitchExtrudedWordmarkPurple 1" clip-path="url(#clip0_77_6636)">
<g id="Layer 2">
<g id="Layer 1">
<path id="Vector" d="M11.1848 11.6845H6.57956V12.9996H11.1848V18.2635H3.94799L1.31641 15.6319V1.81543H6.57956V6.42069H11.1848V11.6845Z" fill="white"/>
<path id="Vector_2" d="M30.9211 18.2637H15.1316L12.5 15.6321V6.4209H17.7632V12.9998H19.0789V6.4209H24.3421V12.9998H25.6579V6.4209H30.9211V18.2637Z" fill="white"/>
<path id="Vector_3" d="M37.4995 6.4209H32.2363V18.263H37.4995V6.4209Z" fill="white"/>
<path id="Vector_4" d="M37.4995 1.81543H32.2363V5.1049H37.4995V1.81543Z" fill="white"/>
<path id="Vector_5" d="M48.6848 11.6845H44.0796V12.9996H48.6848V18.2635H41.448L38.8164 15.6319V1.81543H44.0796V6.42069H48.6848V11.6845Z" fill="white"/>
<path id="Vector_6" d="M60.5263 11.6847H55.2632V12.9998H60.5263V18.2637H52.6316L50 15.6321V9.05313L52.6316 6.4209H60.5263V11.6847Z" fill="white"/>
<path id="Vector_7" d="M73.6839 18.2635H68.4207V11.6845H67.105V18.2635H61.8418V1.81543H67.105V6.42069H71.0523L73.6839 9.05293V18.2635Z" fill="white"/>
<path id="Vector_8" d="M71.7105 5.10526H68.4211V0.5H61.198L57.8763 5.10526H51.9737L50 7.07895V5.10526H45.3947V0.5H30.9211V5.10526H10.5592L7.23684 0.5H0V16.2895L9.21053 25.5H18.4211V22.8684L21.0526 25.5H38.8158V22.8684L41.4474 25.5H50V22.8684L52.6316 25.5H69.0789L75 19.5789V8.39474L71.7105 5.10526ZM11.1842 11.6842H6.57895V13H11.1842V18.2632H3.94737L1.31579 15.6316V1.81579H6.57895V6.42105H11.1842V11.6842ZM30.9211 18.2632H15.1316L12.5 15.6316V6.42105H17.7632V13H19.0789V6.42105H24.3421V13H25.6579V6.42105H30.9211V18.2632ZM37.5 18.2632H32.2368V6.42105H37.5V18.2632ZM37.5 5.10526H32.2368V1.81579H37.5V5.10526ZM48.6842 11.6842H44.0789V13H48.6842V18.2632H41.4474L38.8158 15.6316V1.81579H44.0789V6.42105H48.6842V11.6842ZM60.5263 11.6842H55.2632V13H60.5263V18.2632H52.6316L50 15.6316V9.05263L52.6316 6.42105H60.5263V11.6842ZM73.6842 18.2632H68.4211V11.6842H67.1053V18.2632H61.8421V1.81579H67.1053V6.42105H71.0526L73.6842 9.05263V18.2632Z" fill="black"/>
</g>
</g>
</g>
<defs>
<clipPath id="clip0_77_6636">
<rect width="75" height="25" fill="white" transform="translate(0 0.5)"/>
</clipPath>
</defs>
</svg>
