<svg width="89" height="20" viewBox="0 0 89 20" fill="none" xmlns="http://www.w3.org/2000/svg">
<g id="Group 5959">
<path id="Vector" d="M27.545 3.41417C27.2207 2.20961 26.2709 1.25986 25.0662 0.93556C22.8654 0.356445 14.0621 0.356445 14.0621 0.356445C14.0621 0.356445 5.25881 0.356445 3.05799 0.93556C1.85333 1.25986 0.903495 2.20961 0.579164 3.41417C0 5.6148 0 10.1782 0 10.1782C0 10.1782 0 14.7648 0.579164 16.9423C0.903495 18.1468 1.85333 19.0966 3.05799 19.4209C5.25881 20 14.0621 20 14.0621 20C14.0621 20 22.8654 20 25.0662 19.4209C26.2709 19.0966 27.2207 18.1468 27.545 16.9423C28.1242 14.7416 28.1242 10.1782 28.1242 10.1782C28.1242 10.1782 28.1242 5.6148 27.545 3.41417ZM11.2358 14.4173V5.98544L18.5564 10.2014L11.2358 14.4173Z" fill="#E83323"/>
<path id="Union" fill-rule="evenodd" clip-rule="evenodd" d="M78.5832 6.56352C78.9539 6.91099 79.2319 7.46693 79.394 8.25453C79.5562 9.04212 79.6489 10.1077 79.6489 11.5439V13.4897C79.6489 15.3197 79.4172 16.6864 78.977 17.5435C78.5369 18.4006 77.865 18.8407 76.9152 18.8407C76.3824 18.8407 75.919 18.7017 75.4789 18.4701C75.0387 18.2153 74.7144 17.891 74.5059 17.474H74.4364L74.1584 18.6323H71.8649V1.09668H74.5522V7.60592H74.5754C74.8071 7.14263 75.1546 6.74883 75.5947 6.47086C76.0349 6.16972 76.5214 6.03073 77.031 6.03073C77.6797 6.03073 78.2125 6.21605 78.5832 6.56352ZM76.7299 15.3892C76.7994 14.8796 76.8457 14.1847 76.8457 13.2812H76.8689V11.6597C76.8689 10.71 76.8457 9.96871 76.7762 9.43592C76.7067 8.9263 76.614 8.55567 76.4519 8.32402C76.3129 8.11554 76.0812 7.99972 75.8032 7.99972C75.5484 7.99972 75.2936 8.11554 75.0619 8.32402C74.8302 8.55567 74.6681 8.83364 74.5754 9.15795V16.1536C74.6912 16.3621 74.8534 16.5243 75.0387 16.6401C75.2241 16.7559 75.4326 16.8023 75.6642 16.8023C75.9422 16.8023 76.1739 16.6864 76.3592 16.478C76.5214 16.2695 76.6604 15.8988 76.7299 15.3892ZM30.918 1.71857L34.0686 13.1387H34.0918V18.6287H36.8254V13.1387L40.0224 1.71857H37.2656L36.1073 6.90743C35.7829 8.43629 35.5744 9.50186 35.4818 10.1505H35.4123C35.2733 9.24705 35.0648 8.15832 34.7868 6.88427L33.6748 1.71857H30.918ZM83.5725 13.3707V13.9962C83.5725 14.7838 83.5957 15.386 83.642 15.7798C83.6884 16.1736 83.781 16.4748 83.9432 16.6369C84.0822 16.8222 84.3139 16.9149 84.6382 16.9149C85.0552 16.9149 85.3332 16.7527 85.4954 16.4284C85.6575 16.1041 85.727 15.5713 85.7502 14.8069L88.1363 14.9459C88.1595 15.0617 88.1595 15.2007 88.1595 15.386C88.1595 16.5211 87.8583 17.3782 87.2328 17.9341C86.6073 18.4901 85.727 18.7681 84.5919 18.7681C83.225 18.7681 82.2752 18.3279 81.7192 17.4708C81.1632 16.6138 80.8852 15.2934 80.8852 13.4865V11.3322C80.8852 9.47907 81.1632 8.13552 81.7424 7.27843C82.3215 6.42135 83.2945 6.00438 84.6614 6.00438C85.6112 6.00438 86.3525 6.1897 86.8622 6.53717C87.3718 6.88464 87.7193 7.44059 87.9278 8.15869C88.1363 8.89995 88.229 9.9192 88.229 11.2164V13.3244H83.5725V13.3707ZM83.92 8.18185C83.781 8.36717 83.6884 8.64514 83.642 9.03894C83.5957 9.43274 83.5725 10.035 83.5725 10.8458V11.726H85.6112V10.8458C85.6112 10.0582 85.588 9.4559 85.5417 9.03894C85.4953 8.62198 85.3795 8.34401 85.2405 8.18185C85.1015 8.0197 84.8699 7.92704 84.5919 7.92704C84.2907 7.92704 84.059 8.0197 83.92 8.18185ZM40.8405 18.2703C40.2845 17.8997 39.8907 17.3206 39.659 16.5098C39.4274 15.7222 39.3115 14.6566 39.3115 13.3594V11.5758C39.3115 10.2554 39.4505 9.18981 39.7054 8.37905C39.9834 7.56829 40.4004 6.98917 40.9564 6.61854C41.5355 6.24791 42.2769 6.06259 43.2035 6.06259C44.107 6.06259 44.8483 6.24791 45.4043 6.61854C45.9603 6.98917 46.3542 7.59145 46.609 8.37905C46.8638 9.16664 47.0028 10.2322 47.0028 11.5758V13.3594C47.0028 14.6798 46.887 15.7222 46.6322 16.533C46.3773 17.3206 45.9835 17.9228 45.4275 18.2935C44.8715 18.6641 44.107 18.8494 43.1572 18.8494C42.161 18.8263 41.3965 18.6409 40.8405 18.2703ZM43.968 16.3477C44.1302 15.9539 44.1997 15.2821 44.1997 14.3787V10.5334C44.1997 9.6531 44.1302 9.00449 43.968 8.58753C43.8058 8.17057 43.551 7.98525 43.1572 7.98525C42.7865 7.98525 42.5085 8.19373 42.3695 8.58753C42.2074 9.00449 42.1379 9.6531 42.1379 10.5334V14.3787C42.1379 15.2821 42.2074 15.9539 42.3695 16.3477C42.5085 16.7415 42.7865 16.9499 43.1803 16.9499C43.5278 16.9499 43.8058 16.7415 43.968 16.3477ZM55.9337 6.28418V18.6309H53.7561L53.5244 17.1252H53.4549C52.8757 18.2603 51.9722 18.8394 50.7908 18.8394C49.9799 18.8394 49.3776 18.5614 48.9838 18.0286C48.5899 17.4958 48.4046 16.6619 48.4046 15.5037V6.28418H51.1846V15.3415C51.1846 15.8975 51.2541 16.2913 51.3699 16.5229C51.4857 16.7546 51.6942 16.8704 51.9722 16.8704C52.2039 16.8704 52.4356 16.8009 52.6672 16.6387C52.8989 16.4998 53.0611 16.3144 53.1537 16.0828V6.28418H55.9337ZM70.1765 18.6309V6.28418H67.3965V16.0828C67.3039 16.3144 67.1417 16.4998 66.91 16.6387C66.6784 16.8009 66.4467 16.8704 66.215 16.8704C65.937 16.8704 65.7285 16.7546 65.6127 16.5229C65.4969 16.2913 65.4274 15.8975 65.4274 15.3415V6.28418H62.6474V15.5037C62.6474 16.6619 62.8327 17.4958 63.2265 18.0286C63.6204 18.5614 64.2227 18.8394 65.0335 18.8394C66.215 18.8394 67.1185 18.2603 67.6977 17.1252H67.7672L67.9989 18.6309H70.1765ZM63.4745 3.97128H60.7176V18.6344H58.0072V3.99445H55.2503V1.77065H63.4745V3.97128Z" fill="white"/>
<path id="Vector_2" d="M11.2363 5.98535V14.4173L18.557 10.2013L11.2363 5.98535Z" fill="white"/>
</g>
</svg>
