<svg width="30" height="30" viewBox="0 0 30 30" fill="none" xmlns="http://www.w3.org/2000/svg">
<g id="blockmin/bt_audio mixer">
<path id="Union" fill-rule="evenodd" clip-rule="evenodd" d="M20.25 9.98047V5.73047C20.25 5.31626 20.5858 4.98047 21 4.98047C21.4142 4.98047 21.75 5.31626 21.75 5.73047V9.98047H22C23.6569 9.98047 25 11.3236 25 12.9805V18.9805C25 20.6373 23.6569 21.9805 22 21.9805H21.75V24.2305C21.75 24.6447 21.4142 24.9805 21 24.9805C20.5858 24.9805 20.25 24.6447 20.25 24.2305V21.9805H20C18.3431 21.9805 17 20.6373 17 18.9805L17 12.9805C17 11.3236 18.3431 9.98047 20 9.98047H20.25ZM8.25 5.75C8.25 5.33579 8.58579 5 9 5C9.41421 5 9.75 5.33579 9.75 5.75V8H10C11.6569 8 13 9.34315 13 11V17C13 18.6569 11.6569 20 10 20H9.75V24.25C9.75 24.6642 9.41421 25 9 25C8.58579 25 8.25 24.6642 8.25 24.25V20H8C6.34315 20 5 18.6569 5 17V11C5 9.34315 6.34315 8 8 8H8.25V5.75ZM10 9.5C10.8284 9.5 11.5 10.1716 11.5 11V17C11.5 17.8284 10.8284 18.5 10 18.5H8C7.17157 18.5 6.5 17.8284 6.5 17V11C6.5 10.1716 7.17157 9.5 8 9.5H10ZM23.5 18.9805C23.5 19.8089 22.8284 20.4805 22 20.4805H20C19.1716 20.4805 18.5 19.8089 18.5 18.9805L18.5 12.9805C18.5 12.152 19.1716 11.4805 20 11.4805H22C22.8284 11.4805 23.5 12.152 23.5 12.9805V18.9805Z" fill="white"/>
</g>
</svg>
