<svg width="30" height="30" viewBox="0 0 30 30" fill="none" xmlns="http://www.w3.org/2000/svg">
<g id="blockmin/bt_dashboard">
<path id="Union" fill-rule="evenodd" clip-rule="evenodd" d="M6.5 11L6.5 19C6.5 21.4853 8.51472 23.5 11 23.5L14.5 23.5L14.5 6.5L11 6.5C8.51472 6.5 6.5 8.51472 6.5 11ZM16 6.5L16 12.5L23.5 12.5L23.5 11C23.5 8.51472 21.4853 6.5 19 6.5L16 6.5ZM16 14L16 23.5L19 23.5C21.4853 23.5 23.5 21.4853 23.5 19L23.5 14L16 14ZM5 19C5 22.3137 7.68629 25 11 25L19 25C22.3137 25 25 22.3137 25 19L25 11C25 7.68629 22.3137 5 19 5L11 5C7.68629 5 5 7.68629 5 11L5 19Z" fill="white"/>
</g>
</svg>
