<svg width="30" height="30" viewBox="0 0 30 30" fill="none" xmlns="http://www.w3.org/2000/svg">
<g id="blockmin/bt_studiomode">
<path id="Union" fill-rule="evenodd" clip-rule="evenodd" d="M8 6.5H16C16.8284 6.5 17.5 7.17157 17.5 8V16C17.5 16.8284 16.8284 17.5 16 17.5H8C7.17157 17.5 6.5 16.8284 6.5 16V8C6.5 7.17157 7.17157 6.5 8 6.5ZM5 8C5 6.34315 6.34315 5 8 5H16C17.6569 5 19 6.34315 19 8V11H22C23.6569 11 25 12.3431 25 14V22C25 23.6569 23.6569 25 22 25H14C12.3431 25 11 23.6569 11 22V19H8C6.34315 19 5 17.6569 5 16V8ZM12.5 19V22C12.5 22.8284 13.1716 23.5 14 23.5H22C22.8284 23.5 23.5 22.8284 23.5 22V14C23.5 13.1716 22.8284 12.5 22 12.5H19V16C19 17.6569 17.6569 19 16 19H12.5Z" fill="white"/>
</g>
</svg>
