<svg width="20" height="20" viewBox="0 0 20 20" fill="none" xmlns="http://www.w3.org/2000/svg">
<path opacity="0.6" d="M6.25016 3.33301H13.7502C14.2668 3.33301 14.7252 3.34967 15.1335 3.40801C17.3252 3.64967 17.9168 4.68301 17.9168 7.49967V12.4997C17.9168 15.3163 17.3252 16.3497 15.1335 16.5913C14.7252 16.6497 14.2668 16.6663 13.7502 16.6663H6.25016C5.7335 16.6663 5.27516 16.6497 4.86683 16.5913C2.67516 16.3497 2.0835 15.3163 2.0835 12.4997V7.49967C2.0835 4.68301 2.67516 3.64967 4.86683 3.40801C5.27516 3.34967 5.7335 3.33301 6.25016 3.33301Z" fill="white"/>
<path d="M10.25 8.33398H14.1667" stroke="#24272D" stroke-width="1.5" stroke-linecap="round" stroke-linejoin="round"/>
<path d="M5.83008 8.33398H7.83008" stroke="#24272D" stroke-width="1.5" stroke-linecap="round" stroke-linejoin="round"/>
<path d="M5.83398 11.917H5.85065H14.1673" stroke="#24272D" stroke-width="1.5" stroke-linecap="round" stroke-linejoin="round"/>
</svg>
