<svg width="20" height="20" viewBox="0 0 20 20" fill="none" xmlns="http://www.w3.org/2000/svg">
<path d="M6.02344 6.61637C6.02344 5.97585 6.54958 5.44971 7.1901 5.44971H11.0234C11.5973 5.44971 12.0568 5.90918 12.0568 6.48304V6.86589C12.0568 7.05247 12.1607 7.22354 12.3262 7.30957C12.4918 7.3956 12.6915 7.38228 12.8442 7.27503L13.8494 6.56885C13.8966 6.53685 13.9342 6.51817 13.9616 6.50743C13.9679 6.5357 13.9733 6.57659 13.9733 6.63265V9.40765C13.9733 9.46067 13.9684 9.50008 13.9626 9.52805C13.9351 9.51652 13.8977 9.49688 13.8517 9.4647L12.8442 8.75693C12.6915 8.64968 12.4918 8.63636 12.3262 8.72239C12.1607 8.80842 12.0568 8.97948 12.0568 9.16607V9.54971C12.0568 10.1236 11.5973 10.583 11.0234 10.583H7.05677C6.60201 10.583 6.37089 10.4373 6.24296 10.2838C6.10167 10.1142 6.02344 9.85876 6.02344 9.54971V6.61637Z" fill="white" fill-opacity="0.6"/>
<path fill-rule="evenodd" clip-rule="evenodd" d="M18.3307 5.36676L18.3314 10.6498C18.3314 13.3233 17.7291 14.1831 15.4449 14.3269C15.1942 14.3428 14.9233 14.3501 14.6307 14.3501L10.5991 14.35V17.7332H13.7491C14.0805 17.7332 14.3491 18.0019 14.3491 18.3332C14.3491 18.6646 14.0805 18.9332 13.7491 18.9332H6.24913C5.91776 18.9332 5.64913 18.6646 5.64913 18.3332C5.64913 18.0019 5.91776 17.7332 6.24913 17.7332H9.39913V14.35L5.36471 14.3498C2.40638 14.3498 1.66471 13.6082 1.66471 10.6498L1.66406 5.36676C1.66406 2.69254 2.26671 1.83305 4.5524 1.68958C4.80253 1.67372 5.07283 1.6665 5.36471 1.6665L14.6307 1.66676C17.5891 1.66677 18.3307 2.40843 18.3307 5.36676ZM7.1901 4.44971C5.99729 4.44971 5.02344 5.42356 5.02344 6.61637V9.54971C5.02344 10.0073 5.13687 10.5185 5.47474 10.924C5.82598 11.3455 6.36153 11.583 7.05677 11.583H11.0234C11.9661 11.583 12.7554 10.9474 12.9875 10.0797L13.2782 10.2839C13.5997 10.509 14.0332 10.6511 14.4347 10.4453C14.8386 10.2383 14.9733 9.80117 14.9733 9.40765V6.63265C14.9733 6.23808 14.8381 5.8033 14.437 5.5951C14.0385 5.38833 13.6058 5.52411 13.2829 5.74479L12.9873 5.95239C12.755 5.08506 11.9659 4.44971 11.0234 4.44971H7.1901Z" fill="white" fill-opacity="0.6"/>
</svg>
