<svg width="20" height="20" viewBox="0 0 20 20" fill="none" xmlns="http://www.w3.org/2000/svg">
<path opacity="0.6" d="M11.7749 9.45047C12.0999 8.08381 10.9083 6.8921 9.54161 7.2171C8.89994 7.37543 8.37494 7.90045 8.21661 8.54212C7.89161 9.90879 9.08327 11.1004 10.4499 10.7754C11.0999 10.6171 11.6249 10.0921 11.7749 9.45047Z" fill="white"/>
<path opacity="0.6" d="M15.0081 14.3253C16.4331 12.992 17.3248 11.1003 17.3248 8.99197C17.3248 4.94197 14.0415 1.66699 9.9998 1.66699C5.95813 1.66699 2.6748 4.95031 2.6748 8.99197C2.6748 11.1086 3.5748 13.017 5.01647 14.3503" stroke="white" stroke-width="1.2" stroke-linecap="round" stroke-linejoin="round"/>
<path opacity="0.6" d="M6.66648 12.1253C5.89981 11.3087 5.4248 10.2087 5.4248 8.99198C5.4248 6.46698 7.47481 4.41699 9.99981 4.41699C12.5248 4.41699 14.5748 6.46698 14.5748 8.99198C14.5748 10.2087 14.0998 11.3003 13.3331 12.1253" stroke="white" stroke-width="1.2" stroke-linecap="round" stroke-linejoin="round"/>
<path opacity="0.6" d="M8.58344 13.8834L7.38344 15.3751C6.43344 16.5668 7.2751 18.3251 8.8001 18.3251H11.1918C12.7168 18.3251 13.5668 16.5584 12.6084 15.3751L11.4084 13.8834C10.6918 12.9751 9.30844 12.9751 8.58344 13.8834Z" fill="white"/>
</svg>
