<svg width="56" height="56" viewBox="0 0 56 56" fill="none" xmlns="http://www.w3.org/2000/svg">
<path d="M42.4231 9.04179C41.3281 11.0445 41.1704 12.969 41.963 14.427C42.7611 15.895 44.4321 16.7259 46.6322 16.7259C48.7215 16.7259 50.5 18.5472 50.5 20.8557V25.1443C50.5 27.432 48.7411 29.2741 46.6322 29.2741C44.4321 29.2741 42.7611 30.105 41.963 31.573C41.1706 33.0306 41.3281 34.9546 42.4224 36.9568C43.4983 38.9535 42.8444 41.4813 40.9938 42.6022L40.9936 42.6024L37.0166 45.0147L37.0165 45.0147L37.0092 45.0193C35.4578 45.9976 33.4258 45.4346 32.4719 43.7379C32.4714 43.7371 32.471 43.7363 32.4705 43.7355L32.2214 43.2794C32.2212 43.279 32.221 43.2786 32.2208 43.2782C31.1399 41.2803 29.635 40.148 28.0086 40.148C26.3827 40.148 24.8721 41.2797 23.7797 43.2773L23.7796 43.2775L23.5295 43.7355C23.529 43.7363 23.5286 43.7371 23.5281 43.7379C22.5742 45.4346 20.5422 45.9976 18.9908 45.0193L18.9909 45.0192L18.9834 45.0147L15.0064 42.6024L15.0062 42.6022C13.1549 41.4809 12.5026 38.929 13.5769 36.9581C14.6719 34.9554 14.8296 33.0309 14.037 31.573C13.2389 30.105 11.5679 29.2741 9.36782 29.2741C7.25886 29.2741 5.5 27.432 5.5 25.1443V20.8557C5.5 18.568 7.25886 16.7259 9.36782 16.7259C11.5679 16.7259 13.2389 15.895 14.037 14.427C14.8296 12.969 14.6719 11.0444 13.5768 9.04165C12.5027 7.07078 13.155 4.51907 15.0062 3.39779L15.0064 3.39763L18.9834 0.985271L18.9835 0.985335L18.9908 0.980697C20.5422 0.00237699 22.5742 0.565364 23.5281 2.26211L23.7786 2.72063L24.2184 2.48278L23.7796 2.72246L23.7792 2.7217C24.86 4.71971 26.3649 5.85202 27.9914 5.85202C29.6172 5.85202 31.1279 4.72033 32.2203 2.72267L32.2204 2.72246L32.4719 2.26207M42.4231 9.04179C42.4232 9.04164 42.4233 9.0415 42.4234 9.04135L42.8621 9.28124L42.4231 9.04194C42.4231 9.04189 42.4231 9.04184 42.4231 9.04179ZM42.4231 9.04179C43.4973 7.0709 42.8451 4.5191 40.9938 3.39779L40.9936 3.39763L37.0166 0.985271L37.0091 0.980761L37.0092 0.980697C35.4578 0.00238469 33.4259 0.565356 32.4719 2.26207M32.4719 2.26207L32.4733 2.25948L32.0345 2.0198L32.4705 2.26453C32.471 2.26371 32.4714 2.26289 32.4719 2.26207Z" fill="#BFBFBF" stroke="#CBCBCB" stroke-miterlimit="10" stroke-linecap="round" stroke-linejoin="round"/>
<path d="M12 24.4917V21.5083C12 19.7454 13.3593 18.2876 15.0385 18.2876C17.933 18.2876 19.1164 16.1178 17.6612 13.4565C16.8296 11.9309 17.3253 9.94763 18.7806 9.06617L21.5472 7.38801C22.8106 6.59131 24.4418 7.06594 25.1934 8.40508L25.3693 8.72715C26.8086 11.3885 29.1754 11.3885 30.6307 8.72715L30.8066 8.40508C31.5582 7.06594 33.1894 6.59131 34.4528 7.38801L37.2194 9.06617C38.6747 9.94763 39.1704 11.9309 38.3388 13.4565C36.8836 16.1178 38.067 18.2876 40.9615 18.2876C42.6247 18.2876 44 19.7284 44 21.5083V24.4917C44 26.2546 42.6407 27.7124 40.9615 27.7124C38.067 27.7124 36.8836 29.8822 38.3388 32.5435C39.1704 34.086 38.6747 36.0524 37.2194 36.9338L34.4528 38.612C33.1894 39.4087 31.5582 38.9341 30.8066 37.5949L30.6307 37.2728C29.1914 34.6115 26.8246 34.6115 25.3693 37.2728L25.1934 37.5949C24.4418 38.9341 22.8106 39.4087 21.5472 38.612L18.7806 36.9338C17.3253 36.0524 16.8296 34.0691 17.6612 32.5435C19.1164 29.8822 17.933 27.7124 15.0385 27.7124C13.3593 27.7124 12 26.2546 12 24.4917Z" fill="#A0A0A0"/>
<path opacity="0.2" d="M28 31C32.4183 31 36 27.4183 36 23C36 18.5817 32.4183 15 28 15C23.5817 15 20 18.5817 20 23C20 27.4183 23.5817 31 28 31Z" fill="#2A2A2A"/>
<g filter="url(#filter0_d_211_3502)">
<path d="M28 29C31.3137 29 34 26.3137 34 23C34 19.6863 31.3137 17 28 17C24.6863 17 22 19.6863 22 23C22 26.3137 24.6863 29 28 29Z" fill="#2A2A2A"/>
</g>
<circle cx="27.5" cy="50.5" r="1.5" fill="white"/>
<circle cx="27.5" cy="50.5" r="2" stroke="black" stroke-opacity="0.05"/>
<defs>
<filter id="filter0_d_211_3502" x="18" y="15" width="20" height="20" filterUnits="userSpaceOnUse" color-interpolation-filters="sRGB">
<feFlood flood-opacity="0" result="BackgroundImageFix"/>
<feColorMatrix in="SourceAlpha" type="matrix" values="0 0 0 0 0 0 0 0 0 0 0 0 0 0 0 0 0 0 127 0" result="hardAlpha"/>
<feOffset dy="2"/>
<feGaussianBlur stdDeviation="2"/>
<feComposite in2="hardAlpha" operator="out"/>
<feColorMatrix type="matrix" values="0 0 0 0 0.164706 0 0 0 0 0.164706 0 0 0 0 0.164706 0 0 0 0.3 0"/>
<feBlend mode="normal" in2="BackgroundImageFix" result="effect1_dropShadow_211_3502"/>
<feBlend mode="normal" in="SourceGraphic" in2="effect1_dropShadow_211_3502" result="shape"/>
</filter>
</defs>
</svg>
