<svg width="16" height="16" viewBox="0 0 16 16" fill="none" xmlns="http://www.w3.org/2000/svg">
<path fill-rule="evenodd" clip-rule="evenodd" d="M0.5 7.5C0.5 5.84315 1.84315 4.5 3.5 4.5H8.5C10.1569 4.5 11.5 5.84315 11.5 7.5V12.5C11.5 14.1569 10.1569 15.5 8.5 15.5H3.5C1.84315 15.5 0.5 14.1569 0.5 12.5V7.5ZM3.5 6.5C2.94772 6.5 2.5 6.94772 2.5 7.5V12.5C2.5 13.0523 2.94772 13.5 3.5 13.5H8.5C9.05228 13.5 9.5 13.0523 9.5 12.5V7.5C9.5 6.94772 9.05228 6.5 8.5 6.5H3.5Z" fill="white"/>
<path fill-rule="evenodd" clip-rule="evenodd" d="M7.5 0.5C5.84315 0.5 4.5 1.84315 4.5 3.5V4.5H6.5V3.5C6.5 2.94772 6.94772 2.5 7.5 2.5H12.5C13.0523 2.5 13.5 2.94772 13.5 3.5V8.5C13.5 9.05228 13.0523 9.5 12.5 9.5H11.5V11.5H12.5C14.1569 11.5 15.5 10.1569 15.5 8.5V3.5C15.5 1.84315 14.1569 0.5 12.5 0.5H7.5Z" fill="white"/>
</svg>
