<svg width="40" height="40" viewBox="0 0 40 40" fill="none" xmlns="http://www.w3.org/2000/svg">
<rect width="40" height="40" rx="4" fill="white" fill-opacity="0.06"/>
<path fill-rule="evenodd" clip-rule="evenodd" d="M18.6905 13.5C15.1006 13.5 12.1905 16.4101 12.1905 20C12.1905 23.5899 15.1006 26.5 18.6905 26.5C19.5189 26.5 20.1905 27.1716 20.1905 28C20.1905 28.8284 19.5189 29.5 18.6905 29.5C13.4438 29.5 9.19046 25.2467 9.19046 20C9.19046 14.7533 13.4438 10.5 18.6905 10.5C23.9372 10.5 28.1905 14.7533 28.1905 20C28.1905 20.8284 27.5189 21.5 26.6905 21.5C25.862 21.5 25.1905 20.8284 25.1905 20C25.1905 16.4101 22.2803 13.5 18.6905 13.5Z" fill="#BBBBBB"/>
<path fill-rule="evenodd" clip-rule="evenodd" d="M30.2857 17.8061C30.8225 18.4371 30.7462 19.3837 30.1153 19.9206L26.6587 22.8105L22.6923 20.033C22.0302 19.535 21.8972 18.5946 22.3952 17.9326C22.8932 17.2705 23.8336 17.1375 24.4956 17.6355L26.5433 18.9698L28.1712 17.6357C28.8022 17.0989 29.7489 17.1752 30.2857 17.8061Z" fill="#BBBBBB"/>
</svg>
