<svg width="24" height="24" viewBox="0 0 24 24" fill="none" xmlns="http://www.w3.org/2000/svg">
<path fill-rule="evenodd" clip-rule="evenodd" d="M7.7072 7.75725C7.31668 8.14777 7.31668 8.78094 7.7072 9.17146L10.5859 12.0501L7.80771 14.8283C7.41718 15.2188 7.41718 15.852 7.80771 16.2425C8.19823 16.6331 8.83139 16.6331 9.22192 16.2425L12.0001 13.4644L14.7783 16.2425C15.1688 16.6331 15.802 16.6331 16.1925 16.2425C16.583 15.852 16.583 15.2188 16.1925 14.8283L13.4143 12.0501L16.293 9.17146C16.6835 8.78094 16.6835 8.14777 16.293 7.75725C15.9025 7.36672 15.2693 7.36672 14.8788 7.75725L12.0001 10.6359L9.12141 7.75725C8.73089 7.36672 8.09772 7.36672 7.7072 7.75725Z" fill="white" fill-opacity="0.8"/>
</svg>
