<svg width="12" height="12" viewBox="0 0 12 12" fill="none" xmlns="http://www.w3.org/2000/svg">
<path id="bt_close" fill-rule="evenodd" clip-rule="evenodd" d="M0.343674 0.342698C-0.0468498 0.733222 -0.0468498 1.36639 0.343674 1.75691L4.58637 5.9996L0.343779 10.2422C-0.0467449 10.6327 -0.0467449 11.2659 0.343779 11.6564C0.734304 12.0469 1.36747 12.0469 1.75799 11.6564L6.00058 7.41382L10.2432 11.6564C10.6337 12.0469 11.2669 12.0469 11.6574 11.6564C12.0479 11.2659 12.0479 10.6327 11.6574 10.2422L7.41479 5.9996L11.6575 1.75691C12.048 1.36639 12.048 0.733222 11.6575 0.342698C11.267 -0.0478264 10.6338 -0.0478264 10.2433 0.342698L6.00058 4.58539L1.75789 0.342698C1.36736 -0.0478264 0.734199 -0.0478264 0.343674 0.342698Z" fill="white" fill-opacity="0.8"/>
</svg>
