<svg width="8" height="9" viewBox="0 0 8 9" fill="none" xmlns="http://www.w3.org/2000/svg">
    <path id="Union" d="M6.21586 4.55517C6.51722 4.26131 7.00582 4.26131 7.30718 4.55517C7.60854 4.84903 7.60854 5.32547 7.30718 5.61933L4.57916 8.27945C4.29663 8.55494 3.84925 8.57245 3.54615 8.33139C3.52594 8.31532 3.50637 8.2981 3.48754 8.27973L0.759224 5.61933C0.457863 5.32547 0.457863 4.84903 0.759224 4.55517C1.06059 4.26131 1.54919 4.26131 1.85055 4.55517L3.26147 5.93097L3.26147 1.25248C3.26147 0.836895 3.60696 0.5 4.03315 0.5C4.45934 0.5 4.80484 0.836895 4.80484 1.25248L4.80484 5.93107L6.21586 4.55517Z" fill="#00E0FF" />
</svg>
