<svg width="8" height="7" viewBox="0 0 8 7" fill="none" xmlns="http://www.w3.org/2000/svg">
<path id="Union" d="M4.05517 1.31735C3.76131 1.01599 3.76131 0.527382 4.05517 0.226021C4.34903 -0.0753404 4.82547 -0.0753403 5.11933 0.226021L7.77945 2.95404C8.05494 3.23657 8.07245 3.68396 7.83139 3.98706C7.81532 4.00726 7.7981 4.02683 7.77973 4.04566L5.11933 6.77398C4.82547 7.07534 4.34903 7.07534 4.05517 6.77398C3.76131 6.47262 3.76131 5.98401 4.05517 5.68265L5.43097 4.27174L0.752476 4.27173C0.336895 4.27173 -3.17145e-07 3.92624 0 3.50005C-1.7443e-07 3.07386 0.336895 2.72837 0.752476 2.72837L5.43107 2.72837L4.05517 1.31735Z" fill="#00E0FF"/>
</svg>
