<svg width="46" height="46" viewBox="0 0 46 46" fill="none" xmlns="http://www.w3.org/2000/svg">
<g id="&#235;&#184;&#148;&#235;&#161;&#157;_&#236;&#152;&#164;&#235;&#148;&#148;&#236;&#152;&#164;&#235;&#175;&#185;&#236;&#132;&#156;">
<g id="Rectangle 136">
<rect width="46" height="46" rx="16" fill="#F1F1F1"/>
<rect width="46" height="46" rx="16" fill="url(#paint0_linear_145_3105)" fill-opacity="0.2"/>
</g>
<g id="Group 8">
<path id="Union" fill-rule="evenodd" clip-rule="evenodd" d="M23.7135 14.9649V23.0011V23.0015V31.0377C23.7135 32.1423 22.8107 33.0596 21.7229 32.8676C17.3311 32.0925 15.0361 28.8579 14.3958 27.1338H12.7515C9.68251 27.1338 9.46307 24.1826 9.46289 23.0015M9.46289 23.0011C9.46307 21.82 9.68251 18.8688 12.7515 18.8688H14.3958C15.0361 17.1446 17.3311 13.9101 21.7229 13.1349C22.8107 12.9429 23.7135 13.8603 23.7135 14.9649" fill="#111111"/>
<path id="Vector 4 (Stroke)" fill-rule="evenodd" clip-rule="evenodd" d="M27.1164 17.5975C27.7396 17.1168 28.6345 17.2324 29.1151 17.8556C30.4441 19.5787 32.1998 23.7416 29.1543 28.0934C28.703 28.7382 27.8144 28.8951 27.1696 28.4438C26.5248 27.9926 26.3679 27.104 26.8192 26.4592C28.9027 23.4821 27.7275 20.7232 26.8583 19.5962C26.3776 18.973 26.4932 18.0781 27.1164 17.5975Z" fill="#111111"/>
<path id="Vector 5 (Stroke)" fill-rule="evenodd" clip-rule="evenodd" d="M31.3104 14.8154C31.8963 14.2899 32.7973 14.3388 33.3228 14.9247C34.5272 16.2674 35.9795 18.5927 36.411 21.453C36.8525 24.3802 36.2055 27.7716 33.3362 31.0633C32.8191 31.6566 31.9189 31.7183 31.3256 31.2011C30.7323 30.684 30.6706 29.7838 31.1878 29.1905C33.4943 26.5444 33.9125 23.998 33.5927 21.8781C33.2629 19.6913 32.1273 17.8602 31.2012 16.8278C30.6756 16.2419 30.7246 15.3409 31.3104 14.8154Z" fill="#111111"/>
</g>
</g>
<defs>
<linearGradient id="paint0_linear_145_3105" x1="40.825" y1="-1.725" x2="20.7" y2="35.075" gradientUnits="userSpaceOnUse">
<stop stop-color="#555555" stop-opacity="0"/>
<stop offset="1" stop-color="#555555"/>
</linearGradient>
</defs>
</svg>
