<svg width="46" height="46" viewBox="0 0 46 46" fill="none" xmlns="http://www.w3.org/2000/svg">
<g id="&#235;&#184;&#148;&#235;&#161;&#157;_&#236;&#158;&#165;&#235;&#169;&#180;&#236;&#134;&#140;&#236;&#138;&#164;&#235;&#166;&#172;&#236;&#138;&#164;&#237;&#138;&#184;">
<g id="Rectangle 136">
<rect width="46" height="46" rx="16" fill="#F1F1F1"/>
<rect width="46" height="46" rx="16" fill="url(#paint0_linear_145_3093)" fill-opacity="0.2"/>
</g>
<path id="Union" fill-rule="evenodd" clip-rule="evenodd" d="M18 16C18 14.6193 19.1193 13.5 20.5 13.5H32.5C33.8807 13.5 35 14.6193 35 16C35 17.3807 33.8807 18.5 32.5 18.5H20.5C19.1193 18.5 18 17.3807 18 16ZM20.5 20.5C19.1193 20.5 18 21.6193 18 23C18 24.3807 19.1193 25.5 20.5 25.5H32.5C33.8807 25.5 35 24.3807 35 23C35 21.6193 33.8807 20.5 32.5 20.5H20.5ZM20.5 27.5C19.1193 27.5 18 28.6193 18 30C18 31.3807 19.1193 32.5 20.5 32.5H32.5C33.8807 32.5 35 31.3807 35 30C35 28.6193 33.8807 27.5 32.5 27.5H20.5ZM13.5 20.5C12.1193 20.5 11 21.6193 11 23C11 24.3807 12.1193 25.5 13.5 25.5C14.8807 25.5 16 24.3807 16 23C16 21.6193 14.8807 20.5 13.5 20.5ZM11 30C11 28.6193 12.1193 27.5 13.5 27.5C14.8807 27.5 16 28.6193 16 30C16 31.3807 14.8807 32.5 13.5 32.5C12.1193 32.5 11 31.3807 11 30ZM13.5 13.5C12.1193 13.5 11 14.6193 11 16C11 17.3807 12.1193 18.5 13.5 18.5C14.8807 18.5 16 17.3807 16 16C16 14.6193 14.8807 13.5 13.5 13.5Z" fill="#111111"/>
</g>
<defs>
<linearGradient id="paint0_linear_145_3093" x1="40.825" y1="-1.725" x2="20.7" y2="35.075" gradientUnits="userSpaceOnUse">
<stop stop-color="#555555" stop-opacity="0"/>
<stop offset="1" stop-color="#555555"/>
</linearGradient>
</defs>
</svg>
