<svg width="30" height="30" viewBox="0 0 30 30" fill="none" xmlns="http://www.w3.org/2000/svg">
<g id="Group 63">
<path id="Vector" d="M0 16.3985V13.6015C0 11.9488 1.27436 10.5821 2.84858 10.5821C5.56222 10.5821 6.67166 8.54798 5.30735 6.05298C4.52774 4.62273 4.9925 2.76341 6.35682 1.93704L8.95052 0.363763C10.1349 -0.383146 11.6642 0.0618208 12.3688 1.31726L12.5337 1.61921C13.8831 4.1142 16.1019 4.1142 17.4663 1.61921L17.6312 1.31726C18.3358 0.0618208 19.8651 -0.383146 21.0495 0.363763L23.6432 1.93704C25.0075 2.76341 25.4723 4.62273 24.6927 6.05298C23.3283 8.54798 24.4378 10.5821 27.1514 10.5821C28.7106 10.5821 30 11.9329 30 13.6015V16.3985C30 18.0512 28.7256 19.4179 27.1514 19.4179C24.4378 19.4179 23.3283 21.452 24.6927 23.947C25.4723 25.3932 25.0075 27.2366 23.6432 28.063L21.0495 29.6362C19.8651 30.3831 18.3358 29.9382 17.6312 28.6827L17.4663 28.3808C16.1169 25.8858 13.8981 25.8858 12.5337 28.3808L12.3688 28.6827C11.6642 29.9382 10.1349 30.3831 8.95052 29.6362L6.35682 28.063C4.9925 27.2366 4.52774 25.3773 5.30735 23.947C6.67166 21.452 5.56222 19.4179 2.84858 19.4179C1.27436 19.4179 0 18.0512 0 16.3985Z" fill="#BFBFBF"/>
<path id="Vector_2" d="M5 15.9323V14.0677C5 12.9659 5.84958 12.0547 6.89905 12.0547C8.70815 12.0547 9.44778 10.6987 8.53823 9.03532C8.01849 8.08182 8.32834 6.84227 9.23788 6.29136L10.967 5.24251C11.7566 4.74457 12.7761 5.04121 13.2459 5.87818L13.3558 6.07947C14.2554 7.7428 15.7346 7.7428 16.6442 6.07947L16.7541 5.87818C17.2239 5.04121 18.2434 4.74457 19.033 5.24251L20.7621 6.29136C21.6717 6.84227 21.9815 8.08182 21.4618 9.03532C20.5522 10.6987 21.2919 12.0547 23.1009 12.0547C24.1404 12.0547 25 12.9553 25 14.0677V15.9323C25 17.0341 24.1504 17.9453 23.1009 17.9453C21.2919 17.9453 20.5522 19.3013 21.4618 20.9647C21.9815 21.9288 21.6717 23.1577 20.7621 23.7086L19.033 24.7575C18.2434 25.2554 17.2239 24.9588 16.7541 24.1218L16.6442 23.9205C15.7446 22.2572 14.2654 22.2572 13.3558 23.9205L13.2459 24.1218C12.7761 24.9588 11.7566 25.2554 10.967 24.7575L9.23788 23.7086C8.32834 23.1577 8.01849 21.9182 8.53823 20.9647C9.44778 19.3013 8.70815 17.9453 6.89905 17.9453C5.84958 17.9453 5 17.0341 5 15.9323Z" fill="#A0A0A0"/>
<path id="Vector_3" d="M15 19C17.2091 19 19 17.2091 19 15C19 12.7909 17.2091 11 15 11C12.7909 11 11 12.7909 11 15C11 17.2091 12.7909 19 15 19Z" fill="#333333"/>
</g>
</svg>
