<svg width="56" height="56" viewBox="0 0 56 56" fill="none" xmlns="http://www.w3.org/2000/svg">
<g opacity="0.4">
<path d="M34.0823 41.332L34.0804 41.3345L30.4804 46.1202C29.7692 47.0656 28.8655 47.5 28 47.5C27.1345 47.5 26.2308 47.0656 25.5196 46.1202L21.9239 41.3404C21.9232 41.3393 21.9224 41.3383 21.9216 41.3372C21.6672 40.9901 21.2762 40.7064 20.8805 40.5109C20.4828 40.3143 20.0222 40.178 19.6 40.178H18.4C13.6087 40.178 10.1788 39.5722 7.92869 37.6093C5.69562 35.6612 4.5 32.2596 4.5 26.321V14.3569C4.5 9.64874 5.68019 6.20935 7.95302 3.94332C10.2261 1.67701 13.6767 0.5 18.4 0.5H37.6C42.3233 0.5 45.7739 1.67701 48.047 3.94331C50.3198 6.20935 51.5 9.64874 51.5 14.3569V26.321C51.5 31.0292 50.3198 34.4686 48.047 36.7347C45.7739 39.001 42.3233 40.178 37.6 40.178H36.4C35.498 40.178 34.6317 40.6113 34.0823 41.332Z" fill="#D6D6D6" stroke="#E6E6E6" stroke-miterlimit="10" stroke-linecap="round" stroke-linejoin="round"/>
<circle cx="28" cy="21" r="4" fill="#757575"/>
<circle cx="40" cy="21" r="4" fill="#757575"/>
<circle cx="16" cy="21" r="4" fill="#757575"/>
</g>
</svg>
