<svg width="24" height="24" viewBox="0 0 24 24" fill="none" xmlns="http://www.w3.org/2000/svg">
<g id="&#235;&#178;&#132;&#237;&#138;&#188;_&#237;&#148;&#132;&#235;&#166;&#173;&#236;&#131;&#183;_hold" opacity="1.0">
<path id="Union" fill-rule="evenodd" clip-rule="evenodd" d="M9.04907 7.00315C9.27858 5.85849 10.2863 5 11.5 5H12.5C13.8839 5 15 6.11614 15 7.5V11H8C6.89543 11 6 11.8954 6 13V17C6 18.1046 6.89543 19 8 19H16C17.1046 19 18 18.1046 18 17V13C18 11.8954 17.1046 11 16 11V7.5C16 5.56386 14.4361 4 12.5 4H11.5C9.73315 4 8.27632 5.30234 8.03507 7.00146C7.99625 7.27487 8.22386 7.5 8.5 7.5C8.77614 7.5 8.99478 7.2739 9.04907 7.00315Z" fill="white"/>
</g>
</svg>
