<svg width="24" height="25" viewBox="0 0 24 25" fill="none" xmlns="http://www.w3.org/2000/svg">
<g id="&#235;&#178;&#132;&#237;&#138;&#188;_&#237;&#148;&#132;&#235;&#166;&#173;&#236;&#131;&#183;_hold" opacity="1.0">
<path id="Union" fill-rule="evenodd" clip-rule="evenodd" d="M9 8.5625C9 7.17864 10.1161 6.0625 11.5 6.0625H12.5C13.8839 6.0625 15 7.17864 15 8.5625V10.0625H9V8.5625ZM8 10.0625V8.5625C8 6.62636 9.56386 5.0625 11.5 5.0625H12.5C14.4361 5.0625 16 6.62636 16 8.5625V10.0625C17.1046 10.0625 18 10.9579 18 12.0625V16.0625C18 17.1671 17.1046 18.0625 16 18.0625H8C6.89543 18.0625 6 17.1671 6 16.0625V12.0625C6 10.9579 6.89543 10.0625 8 10.0625Z" fill="white"/>
</g>
</svg>
