<svg width="24" height="24" viewBox="0 0 24 24" fill="none" xmlns="http://www.w3.org/2000/svg">
<g id="&#235;&#178;&#132;&#237;&#138;&#188;_&#237;&#148;&#132;&#235;&#166;&#173;&#236;&#131;&#183;_view" opacity="1.0">
<g id="Group 91">
<path id="Vector" d="M13.9101 11.52C13.9101 12.84 12.8434 13.9066 11.5234 13.9066C10.2034 13.9066 9.13672 12.84 9.13672 11.52C9.13672 10.2 10.2034 9.1333 11.5234 9.1333C12.8434 9.1333 13.9101 10.2 13.9101 11.52Z" stroke="white" stroke-linecap="round" stroke-linejoin="round"/>
<path id="Vector_2" d="M11.5233 17.0333C13.8767 17.0333 16.07 15.6467 17.5967 13.2467C18.1967 12.3067 18.1967 10.7267 17.5967 9.78667C16.07 7.38667 13.8767 6 11.5233 6C9.17 6 6.97667 7.38667 5.45 9.78667C4.85 10.7267 4.85 12.3067 5.45 13.2467C6.97667 15.6467 9.17 17.0333 11.5233 17.0333Z" stroke="white" stroke-linecap="round" stroke-linejoin="round"/>
</g>
</g>
</svg>
