<svg width="30" height="30" viewBox="0 0 30 30" fill="none" xmlns="http://www.w3.org/2000/svg">
<g id="blockmin/bt_controlbox" opacity="0.3">
<path id="Union" fill-rule="evenodd" clip-rule="evenodd" d="M19 6.5H11C8.51472 6.5 6.5 8.51472 6.5 11V19C6.5 21.4853 8.51472 23.5 11 23.5H19C21.4853 23.5 23.5 21.4853 23.5 19V11C23.5 8.51472 21.4853 6.5 19 6.5ZM11 5C7.68629 5 5 7.68629 5 11V19C5 22.3137 7.68629 25 11 25H19C22.3137 25 25 22.3137 25 19V11C25 7.68629 22.3137 5 19 5H11ZM11.75 13C11.3358 13 11 12.6642 11 12.25C11 11.8358 11.3358 11.5 11.75 11.5H15.25C15.6642 11.5 16 11.8358 16 12.25C16 12.6642 15.6642 13 15.25 13H11.75ZM19 18.25C19 18.6642 18.6642 19 18.25 19H14.75C14.3358 19 14 18.6642 14 18.25C14 17.8358 14.3358 17.5 14.75 17.5H18.25C18.6642 17.5 19 17.8358 19 18.25Z" fill="white"/>
<path id="Ellipse 198 (Stroke)" fill-rule="evenodd" clip-rule="evenodd" d="M18 13.5C18.8284 13.5 19.5 12.8284 19.5 12C19.5 11.1716 18.8284 10.5 18 10.5C17.1716 10.5 16.5 11.1716 16.5 12C16.5 12.8284 17.1716 13.5 18 13.5ZM18 15C19.6569 15 21 13.6569 21 12C21 10.3431 19.6569 9 18 9C16.3431 9 15 10.3431 15 12C15 13.6569 16.3431 15 18 15Z" fill="white"/>
<path id="Ellipse 199 (Stroke)" fill-rule="evenodd" clip-rule="evenodd" d="M12 19.5C11.1716 19.5 10.5 18.8284 10.5 18C10.5 17.1716 11.1716 16.5 12 16.5C12.8284 16.5 13.5 17.1716 13.5 18C13.5 18.8284 12.8284 19.5 12 19.5ZM12 21C10.3431 21 9 19.6569 9 18C9 16.3431 10.3431 15 12 15C13.6569 15 15 16.3431 15 18C15 19.6569 13.6569 21 12 21Z" fill="white"/>
</g>
</svg>
