<svg width="30" height="30" viewBox="0 0 30 30" fill="none" xmlns="http://www.w3.org/2000/svg">
<g id="blockmin/bt_sceneall" opacity="0.3">
<path id="Union" fill-rule="evenodd" clip-rule="evenodd" d="M7 6.5H12C12.2761 6.5 12.5 6.72386 12.5 7V12C12.5 12.2761 12.2761 12.5 12 12.5H7C6.72386 12.5 6.5 12.2761 6.5 12V7C6.5 6.72386 6.72386 6.5 7 6.5ZM5 7C5 5.89543 5.89543 5 7 5H12C13.1046 5 14 5.89543 14 7V12C14 13.1046 13.1046 14 12 14H7C5.89543 14 5 13.1046 5 12V7ZM7 17.5H12C12.2761 17.5 12.5 17.7239 12.5 18V23C12.5 23.2761 12.2761 23.5 12 23.5H7C6.72386 23.5 6.5 23.2761 6.5 23V18C6.5 17.7239 6.72386 17.5 7 17.5ZM5 18C5 16.8954 5.89543 16 7 16H12C13.1046 16 14 16.8954 14 18V23C14 24.1046 13.1046 25 12 25H7C5.89543 25 5 24.1046 5 23V18ZM23 6.5H18C17.7239 6.5 17.5 6.72386 17.5 7V12C17.5 12.2761 17.7239 12.5 18 12.5H23C23.2761 12.5 23.5 12.2761 23.5 12V7C23.5 6.72386 23.2761 6.5 23 6.5ZM18 5C16.8954 5 16 5.89543 16 7V12C16 13.1046 16.8954 14 18 14H23C24.1046 14 25 13.1046 25 12V7C25 5.89543 24.1046 5 23 5H18ZM18 17.5H23C23.2761 17.5 23.5 17.7239 23.5 18V23C23.5 23.2761 23.2761 23.5 23 23.5H18C17.7239 23.5 17.5 23.2761 17.5 23V18C17.5 17.7239 17.7239 17.5 18 17.5ZM16 18C16 16.8954 16.8954 16 18 16H23C24.1046 16 25 16.8954 25 18V23C25 24.1046 24.1046 25 23 25H18C16.8954 25 16 24.1046 16 23V18Z" fill="white"/>
</g>
</svg>
