<svg width="30" height="30" viewBox="0 0 30 30" fill="none" xmlns="http://www.w3.org/2000/svg">
<path fill-rule="evenodd" clip-rule="evenodd" d="M8 23C8 23.5523 8.44772 24 9 24C9.55228 24 10 23.5523 10 23L10 16H11C11.5523 16 12 15.5523 12 15C12 14.4477 11.5523 14 11 14H10L10 7C10 6.44772 9.55228 6 9 6C8.44771 6 8 6.44772 8 7L8 14H7C6.44772 14 6 14.4477 6 15C6 15.5523 6.44772 16 7 16H8L8 23ZM12 9C12 8.44772 12.4477 8 13 8H14V7C14 6.44772 14.4477 6 15 6C15.5523 6 16 6.44772 16 7V8H17C17.5523 8 18 8.44772 18 9C18 9.55228 17.5523 10 17 10H16L16 23C16 23.5523 15.5523 24 15 24C14.4477 24 14 23.5523 14 23L14 10H13C12.4477 10 12 9.55228 12 9ZM19 18C18.4477 18 18 18.4477 18 19C18 19.5523 18.4477 20 19 20H20V23C20 23.5523 20.4477 24 21 24C21.5523 24 22 23.5523 22 23V20H23C23.5523 20 24 19.5523 24 19C24 18.4477 23.5523 18 23 18H22L22 7C22 6.44772 21.5523 6 21 6C20.4477 6 20 6.44772 20 7L20 18H19Z" fill="white" fill-opacity="0.7"/>
</svg>
