<svg width="24" height="24" viewBox="0 0 24 24" fill="none" xmlns="http://www.w3.org/2000/svg">
<path fill-rule="evenodd" clip-rule="evenodd" d="M4.5 11.5C4.5 9.84315 5.84315 8.5 7.5 8.5H12.5C14.1569 8.5 15.5 9.84315 15.5 11.5V16.5C15.5 18.1569 14.1569 19.5 12.5 19.5H7.5C5.84315 19.5 4.5 18.1569 4.5 16.5V11.5ZM7.5 10.5C6.94772 10.5 6.5 10.9477 6.5 11.5V16.5C6.5 17.0523 6.94772 17.5 7.5 17.5H12.5C13.0523 17.5 13.5 17.0523 13.5 16.5V11.5C13.5 10.9477 13.0523 10.5 12.5 10.5H7.5Z" fill="white" fill-opacity="0.7"/>
<path fill-rule="evenodd" clip-rule="evenodd" d="M11.5 4.5C9.84315 4.5 8.5 5.84315 8.5 7.5V8.5H10.5V7.5C10.5 6.94772 10.9477 6.5 11.5 6.5H16.5C17.0523 6.5 17.5 6.94772 17.5 7.5V12.5C17.5 13.0523 17.0523 13.5 16.5 13.5H15.5V15.5H16.5C18.1569 15.5 19.5 14.1569 19.5 12.5V7.5C19.5 5.84315 18.1569 4.5 16.5 4.5H11.5Z" fill="white" fill-opacity="0.7"/>
</svg>
