<svg width="30" height="30" viewBox="0 0 30 30" fill="none" xmlns="http://www.w3.org/2000/svg">
<g opacity="0.7">
<path d="M13.8516 20.8948C13.903 20.9042 13.9545 20.9131 14.0063 20.9213C14.0043 20.9472 14.0032 20.9733 14.0032 20.9997V22.9997C14.0032 23.552 14.451 23.9997 15.0032 23.9997C15.5555 23.9997 16.0032 23.552 16.0032 22.9997V20.9997C16.0032 20.9733 16.0022 20.9472 16.0002 20.9213C19.1287 20.4244 21.5032 17.6252 21.5032 14.2775V13.2432L19.5654 15.181C19.1999 17.1979 17.6334 18.7581 15.688 19.0584L13.8516 20.8948Z" fill="white"/>
<path fill-rule="evenodd" clip-rule="evenodd" d="M24.1933 6.30754C23.8028 5.91702 23.1696 5.91702 22.7791 6.30754L18 11.0866V9.5C18 7.84315 16.6569 6.5 15 6.5C13.3432 6.5 12 7.84315 12 9.5V14.5C12 15.2232 12.2559 15.8865 12.682 16.4046L11.5613 17.5253C10.8144 16.6698 10.3572 15.5327 10.3572 14.2778V12.9286C10.3572 12.4157 9.94141 12 9.42857 12C8.91573 12 8.5 12.4157 8.5 12.9286V14.2778C8.5 16.0391 9.15727 17.6486 10.2358 18.8508L5.80852 23.2781C5.41799 23.6686 5.41799 24.3018 5.80852 24.6923C6.19904 25.0828 6.83221 25.0828 7.22273 24.6923L11.7899 20.1251L13.187 18.728L14.4629 17.4521C14.463 17.4521 14.463 17.4521 14.463 17.4521L16.8635 15.0515L18 13.915L24.1933 7.72175C24.5838 7.33123 24.5838 6.69807 24.1933 6.30754Z" fill="white"/>
</g>
</svg>
