<svg width="30" height="30" viewBox="0 0 30 30" fill="none" xmlns="http://www.w3.org/2000/svg">
<path d="M8.93604 18.3194C9.3973 18.6494 9.89876 18.9118 10.4404 19.1065L9.74854 20.4331C9.46501 20.3485 9.18783 20.2321 8.91699 20.084C8.85775 20.0544 8.44092 19.7793 7.6665 19.2588C7.05713 19.5254 6.38216 19.6587 5.6416 19.6587C4.21126 19.6587 3.08984 19.2377 2.27734 18.3955C1.46908 17.5534 1.06494 16.3706 1.06494 14.8472C1.06494 13.328 1.47119 12.1473 2.28369 11.3052C3.09619 10.4589 4.19857 10.0357 5.59082 10.0357C6.97038 10.0357 8.06429 10.4589 8.87256 11.3052C9.68083 12.1473 10.085 13.328 10.085 14.8472C10.085 15.6512 9.97282 16.3579 9.74854 16.9673C9.57926 17.4328 9.30843 17.8835 8.93604 18.3194ZM7.42529 17.2593C7.6665 16.9758 7.84635 16.633 7.96484 16.231C8.08757 15.829 8.14893 15.3677 8.14893 14.8472C8.14893 13.7723 7.91195 12.9704 7.43799 12.4414C6.96403 11.9082 6.34408 11.6416 5.57812 11.6416C4.81217 11.6416 4.1901 11.9082 3.71191 12.4414C3.23796 12.9746 3.00098 13.7766 3.00098 14.8472C3.00098 15.9348 3.23796 16.7494 3.71191 17.291C4.1901 17.8285 4.79313 18.0972 5.521 18.0972C5.79183 18.0972 6.04785 18.0528 6.28906 17.9639C5.9082 17.7142 5.521 17.5196 5.12744 17.3799L5.6543 16.3072C6.27214 16.5187 6.86247 16.8361 7.42529 17.2593ZM11.5703 19.5V10.1944H13.4492V13.857H17.1309V10.1944H19.0098V19.5H17.1309V15.4312H13.4492V19.5H11.5703ZM20.9521 10.1944H24.3862C25.1606 10.1944 25.751 10.2536 26.1572 10.3721C26.7031 10.5329 27.1707 10.8186 27.5601 11.229C27.9494 11.6395 28.2456 12.1431 28.4487 12.7398C28.6519 13.3322 28.7534 14.0643 28.7534 14.9361C28.7534 15.702 28.6582 16.3622 28.4678 16.9165C28.235 17.5936 27.9028 18.1416 27.4712 18.5606C27.1453 18.878 26.7052 19.1255 26.1509 19.3033C25.7362 19.4344 25.1818 19.5 24.4878 19.5H20.9521V10.1944ZM22.8311 11.7686V17.9322H24.2339C24.7586 17.9322 25.1374 17.9025 25.3701 17.8433C25.6748 17.7671 25.9266 17.6381 26.1255 17.4561C26.3286 17.2741 26.4937 16.9758 26.6206 16.5611C26.7476 16.1421 26.811 15.5729 26.811 14.8535C26.811 14.1341 26.7476 13.5819 26.6206 13.1968C26.4937 12.8117 26.3159 12.5113 26.0874 12.2954C25.8589 12.0796 25.569 11.9336 25.2178 11.8575C24.9554 11.7982 24.4412 11.7686 23.6753 11.7686H22.8311Z" fill="white" fill-opacity="0.7"/>
</svg>
