<svg width="24" height="24" viewBox="0 0 24 24" fill="none" xmlns="http://www.w3.org/2000/svg">
<path fill-rule="evenodd" clip-rule="evenodd" d="M4 6C4 5.44772 4.44772 5 5 5H19C19.5523 5 20 5.44772 20 6C20 6.55228 19.5523 7 19 7H5C4.44772 7 4 6.55228 4 6ZM4 12C4 11.4477 4.44772 11 5 11H13.6429C14.1951 11 14.6429 11.4477 14.6429 12C14.6429 12.5523 14.1951 13 13.6429 13H5C4.44772 13 4 12.5523 4 12ZM5 17C4.44772 17 4 17.4477 4 18C4 18.5523 4.44772 19 5 19H16.8571C17.4094 19 17.8571 18.5523 17.8571 18C17.8571 17.4477 17.4094 17 16.8571 17H5Z" fill="white" fill-opacity="0.8"/>
</svg>
