<svg width="22" height="22" viewBox="0 0 22 22" fill="none" xmlns="http://www.w3.org/2000/svg">
<g id="&#236;&#134;&#140;&#236;&#138;&#164;/ic_&#236;&#156;&#136;&#235;&#143;&#132;&#236;&#154;&#176; &#236;&#186;&#161;&#236;&#179;&#144;">
<path id="Subtract" fill-rule="evenodd" clip-rule="evenodd" d="M2.75098 7.33529C2.75098 4.80398 4.80301 2.75195 7.33431 2.75195H14.6676C17.1989 2.75195 19.251 4.80398 19.251 7.33529V8.93945H2.75098V7.33529ZM2.75098 10.3145V14.6686C2.75098 17.1999 4.80301 19.252 7.33431 19.252H14.6676C17.1989 19.252 19.251 17.1999 19.251 14.6686V10.3145H2.75098Z" fill="white" fill-opacity="0.3"/>
<g id="Vector">
<path d="M5.84375 6.875C6.41329 6.875 6.875 6.41329 6.875 5.84375C6.875 5.27421 6.41329 4.8125 5.84375 4.8125C5.27421 4.8125 4.8125 5.27421 4.8125 5.84375C4.8125 6.41329 5.27421 6.875 5.84375 6.875Z" fill="#B8FBFF"/>
<path d="M9.28125 6.875C9.85079 6.875 10.3125 6.41329 10.3125 5.84375C10.3125 5.27421 9.85079 4.8125 9.28125 4.8125C8.71171 4.8125 8.25 5.27421 8.25 5.84375C8.25 6.41329 8.71171 6.875 9.28125 6.875Z" fill="#B8FBFF"/>
<path d="M12.7188 6.875C13.2883 6.875 13.75 6.41329 13.75 5.84375C13.75 5.27421 13.2883 4.8125 12.7188 4.8125C12.1492 4.8125 11.6875 5.27421 11.6875 5.84375C11.6875 6.41329 12.1492 6.875 12.7188 6.875Z" fill="#B8FBFF"/>
</g>
</g>
</svg>
