<svg width="22" height="22" viewBox="0 0 22 22" fill="none" xmlns="http://www.w3.org/2000/svg">
<g id="&#236;&#134;&#140;&#236;&#138;&#164;/ic_&#236;&#131;&#137;&#236;&#131;&#129;&#236;&#134;&#140;&#236;&#138;&#164;">
<g id="Group 87">
<path id="Vector 22 (Stroke)" fill-rule="evenodd" clip-rule="evenodd" d="M15.1589 3.02688C17.9283 4.38602 19.1811 6.12614 19.6702 7.72997C20.1525 9.31131 19.8732 10.6974 19.6904 11.3439C19.2217 13.1916 18.1835 14.2583 17.0345 14.8114C15.9161 15.3497 14.7254 15.387 13.9123 15.2446C12.8741 15.1767 12.4993 15.2306 12.181 15.4506C11.8843 15.6558 11.8093 16.0721 12.013 16.3195C12.4052 16.7961 12.6481 17.2094 12.7398 17.6206C12.8352 18.0488 12.7541 18.4172 12.6194 18.7683L12.6119 18.788L12.6025 18.807C12.4084 19.1972 12.1447 19.4874 11.8104 19.6766C11.4804 19.8634 11.115 19.9329 10.746 19.939C10.0671 19.9503 9.27249 19.7435 8.48177 19.5378C8.44202 19.5274 8.40229 19.5171 8.36257 19.5068L8.34456 19.5021L8.32699 19.496C6.63826 18.9065 5.45243 18.1562 4.57691 17.3212C3.70224 16.487 3.15621 15.5862 2.72674 14.7258L2.71246 14.6971L2.70244 14.6668C1.2601 10.2995 2.48121 7.12075 4.16858 5.02953L4.17499 5.02158L4.18177 5.01392C6.24274 2.68598 8.72676 2.04811 10.8169 2.06477C12.8874 2.08127 14.5849 2.73781 15.1589 3.02688Z" fill="white" fill-opacity="0.3"/>
</g>
<path id="Union" fill-rule="evenodd" clip-rule="evenodd" d="M13.0635 6.87695C13.8229 6.87695 14.4385 6.26134 14.4385 5.50195C14.4385 4.74256 13.8229 4.12695 13.0635 4.12695C12.3041 4.12695 11.6885 4.74256 11.6885 5.50195C11.6885 6.26134 12.3041 6.87695 13.0635 6.87695ZM9.62598 6.18945C9.62598 6.94884 9.01037 7.56445 8.25098 7.56445C7.49159 7.56445 6.87598 6.94884 6.87598 6.18945C6.87598 5.43006 7.49159 4.81445 8.25098 4.81445C9.01037 4.81445 9.62598 5.43006 9.62598 6.18945ZM6.87598 10.3145C6.87598 11.0738 6.26037 11.6895 5.50098 11.6895C4.74159 11.6895 4.12598 11.0738 4.12598 10.3145C4.12598 9.55506 4.74159 8.93945 5.50098 8.93945C6.26037 8.93945 6.87598 9.55506 6.87598 10.3145Z" fill="#B8FBFF"/>
</g>
</svg>
