<svg width="22" height="22" viewBox="0 0 22 22" fill="none" xmlns="http://www.w3.org/2000/svg">
<g id="Frame 6031">
<g id="Group 80">
<path id="Union" fill-rule="evenodd" clip-rule="evenodd" d="M7.248 4C5.84692 4 4.38439 4.53172 3.57628 5.79423C3.32126 6.19264 2.97847 7.0275 2.68134 8.04253C2.38042 9.07055 2.11273 10.3297 2.02789 11.5965C1.94346 12.8573 2.03747 14.1642 2.49327 15.2618C2.95759 16.3799 3.79394 17.2674 5.1371 17.6489L5.14776 17.6519L5.15856 17.6544C6.05957 17.86 6.81304 17.7471 7.39313 17.1875C7.93613 16.6636 8.24972 15.815 8.47607 14.7663C8.6276 14.0643 9.18895 13.5655 9.83107 13.5655H10.9375H12.0439C12.686 13.5655 13.2474 14.0643 13.3989 14.7663C13.6253 15.815 13.9389 16.6636 14.4819 17.1875C15.062 17.7471 15.8154 17.86 16.7164 17.6544L16.7272 17.6519L16.7379 17.6489C18.0811 17.2674 18.9174 16.3799 19.3817 15.2618C19.8375 14.1642 19.9315 12.8573 19.8471 11.5965C19.7623 10.3297 19.4946 9.07055 19.1937 8.04253C18.8965 7.0275 18.5537 6.19264 18.2987 5.79423C17.4906 4.53172 16.0281 4 14.627 4H10.9375H7.248Z" fill="white" fill-opacity="0.3"/>
<rect id="Rectangle 1110" x="6.125" y="6.75" width="1.375" height="4.125" rx="0.6875" fill="#B8FBFF"/>
<rect id="Rectangle 1111" x="8.875" y="8.125" width="1.375" height="4.125" rx="0.6875" transform="rotate(90 8.875 8.125)" fill="#B8FBFF"/>
<circle id="Ellipse 95" cx="16.0938" cy="7.78125" r="1.03125" fill="#B8FBFF"/>
<circle id="Ellipse 96" cx="14.0312" cy="9.84375" r="1.03125" fill="#B8FBFF"/>
</g>
</g>
</svg>
