<svg width="22" height="22" viewBox="0 0 22 22" fill="none" xmlns="http://www.w3.org/2000/svg">
<g id="&#236;&#134;&#140;&#236;&#138;&#164;/ic_&#236;&#157;&#180;&#235;&#175;&#184;&#236;&#167;&#128;">
<path id="Subtract" fill-rule="evenodd" clip-rule="evenodd" d="M7.33431 2.75195C4.80301 2.75195 2.75098 4.80398 2.75098 7.33529V14.6686C2.75098 17.1999 4.80301 19.252 7.33431 19.252H14.6676C17.1989 19.252 19.251 17.1999 19.251 14.6686V12.6716C19.1712 12.6719 19.0914 12.6729 19.0114 12.6744C16.9154 12.7142 14.8603 13.16 13.3659 14.3052C14.002 14.8216 14.5658 15.4245 15.0178 16.1275C15.2231 16.4469 15.1306 16.8723 14.8112 17.0776C14.4918 17.2829 14.0665 17.1904 13.8612 16.871C12.7548 15.1501 10.7383 14.0696 8.55127 13.4387C6.37797 12.8119 4.1497 12.6627 2.77944 12.7175C2.77024 12.7178 2.76108 12.718 2.75195 12.718V11.3425C4.24784 11.2858 6.61105 11.4481 8.93234 12.1176C10.0419 12.4376 11.1681 12.8813 12.1911 13.4897C14.0552 11.8722 16.6212 11.3446 18.9853 11.2996C19.074 11.2979 19.1626 11.2969 19.251 11.2966V7.33529C19.251 4.80398 17.1989 2.75195 14.6676 2.75195H7.33431Z" fill="white" fill-opacity="0.3"/>
<circle id="Ellipse 108" cx="13.0625" cy="7.5625" r="2.0625" stroke="#B8FBFF" stroke-width="1.375"/>
</g>
</svg>
