<svg width="22" height="22" viewBox="0 0 22 22" fill="none" xmlns="http://www.w3.org/2000/svg">
<g id="&#236;&#134;&#140;&#236;&#138;&#164;/ic_&#236;&#157;&#180;&#235;&#175;&#184;&#236;&#167;&#128; &#236;&#138;&#172;&#235;&#157;&#188;&#236;&#157;&#180;&#235;&#147;&#156;&#236;&#135;&#188;">
<path id="Subtract" fill-rule="evenodd" clip-rule="evenodd" d="M5.86816 17.8767C6.34365 18.6987 7.23237 19.2517 8.25026 19.2517H16.5003C18.019 19.2517 19.2503 18.0205 19.2503 16.5017V8.25173C19.2503 7.23384 18.6972 6.34512 17.8753 5.86963V14.4392C17.8753 16.3377 16.3362 17.8767 14.4378 17.8767H5.86816Z" fill="white" fill-opacity="0.3"/>
<g id="Group 95">
<path id="Subtract_2" fill-rule="evenodd" clip-rule="evenodd" d="M5.50098 2.75195C3.98219 2.75195 2.75098 3.98317 2.75098 5.50195V8.99219C4.13795 9.05193 5.85837 9.27027 7.55636 9.76004C8.66659 10.0803 9.79355 10.5243 10.817 11.1333C12.3924 9.76684 14.4688 9.17854 16.501 9.00198V5.50195C16.501 3.98317 15.2698 2.75195 13.751 2.75195H5.50098ZM16.501 10.3826C14.8124 10.5438 13.2144 11.0124 11.9916 11.949C12.6271 12.4651 13.1903 13.0676 13.6418 13.7699C13.8471 14.0893 13.7546 14.5147 13.4353 14.72C13.1159 14.9253 12.6905 14.8329 12.4852 14.5135C11.3789 12.7925 9.36235 11.712 7.1753 11.0812C5.61651 10.6316 4.02945 10.4277 2.75098 10.3685V13.752C2.75098 15.2707 3.98219 16.502 5.50098 16.502H13.751C15.2698 16.502 16.501 15.2707 16.501 13.752V10.3826Z" fill="white" fill-opacity="0.3"/>
<circle id="Ellipse 108" cx="11.001" cy="6.18945" r="1.375" stroke="#B8FBFF" stroke-width="1.375"/>
</g>
</g>
</svg>
