<svg width="22" height="22" viewBox="0 0 22 22" fill="none" xmlns="http://www.w3.org/2000/svg">
<g id="&#236;&#134;&#140;&#236;&#138;&#164;/ic_&#237;&#133;&#141;&#236;&#138;&#164;&#237;&#138;&#184;">
<path id="Rectangle 1107 (Stroke)" fill-rule="evenodd" clip-rule="evenodd" d="M7.33333 2.75C4.80203 2.75 2.75 4.80203 2.75 7.33333V14.6667C2.75 17.198 4.80203 19.25 7.33333 19.25H14.6667C17.198 19.25 19.25 17.198 19.25 14.6667V7.33333C19.25 4.80203 17.198 2.75 14.6667 2.75H7.33333Z" fill="white" fill-opacity="0.3"/>
<path id="Union" fill-rule="evenodd" clip-rule="evenodd" d="M7.56348 6.18945C6.80409 6.18945 6.18848 6.80506 6.18848 7.56445V8.25195C6.18848 8.63165 6.49628 8.93945 6.87598 8.93945C7.25567 8.93945 7.56348 8.63165 7.56348 8.25195V7.56445H10.3135V13.752H9.62598C9.24628 13.752 8.93848 14.0598 8.93848 14.4395C8.93848 14.8191 9.24628 15.127 9.62598 15.127H10.3135H11.6885H12.376C12.7557 15.127 13.0635 14.8191 13.0635 14.4395C13.0635 14.0598 12.7557 13.752 12.376 13.752H11.6885V7.56445H14.4385V8.25195C14.4385 8.63165 14.7463 8.93945 15.126 8.93945C15.5057 8.93945 15.8135 8.63165 15.8135 8.25195V7.56445C15.8135 6.80506 15.1979 6.18945 14.4385 6.18945H7.56348Z" fill="#B8FBFF"/>
</g>
</svg>
