<svg width="22" height="22" viewBox="0 0 22 22" fill="none" xmlns="http://www.w3.org/2000/svg">
<g id="&#236;&#134;&#140;&#236;&#138;&#164;/ic_&#236;&#156;&#136;&#235;&#143;&#132;&#236;&#154;&#176; &#236;&#186;&#161;&#236;&#179;&#144;">
<g id="Group 98">
<rect id="Rectangle 1133" x="2.75098" y="2.4082" width="16.5" height="13.75" rx="3.4375" fill="white" fill-opacity="0.3"/>
<g id="Vector">
<path fill-rule="evenodd" clip-rule="evenodd" d="M17.876 11.3457C17.876 13.2442 16.337 14.7832 14.4385 14.7832L13.0635 14.7832C12.6838 14.7832 12.376 14.4754 12.376 14.0957C12.376 13.716 12.6838 13.4082 13.0635 13.4082L14.4385 13.4082C15.5776 13.4082 16.501 12.4848 16.501 11.3457V9.9707C16.501 9.59101 16.8088 9.2832 17.1885 9.2832C17.5682 9.2832 17.876 9.59101 17.876 9.9707V11.3457Z" fill="#B8FBFF"/>
<path fill-rule="evenodd" clip-rule="evenodd" d="M4.12598 7.2207C4.12598 5.32222 5.665 3.7832 7.56348 3.7832H8.93848C9.31817 3.7832 9.62598 4.09101 9.62598 4.4707C9.62598 4.8504 9.31817 5.1582 8.93848 5.1582H7.56348C6.42439 5.1582 5.50098 6.08162 5.50098 7.2207V8.5957C5.50098 8.9754 5.19317 9.2832 4.81348 9.2832C4.43378 9.2832 4.12598 8.9754 4.12598 8.5957V7.2207Z" fill="#B8FBFF"/>
</g>
</g>
<rect id="Rectangle 1141" x="5.5" y="17.875" width="11" height="1.375" rx="0.6875" fill="white" fill-opacity="0.3"/>
</g>
</svg>
