<svg width="22" height="22" viewBox="0 0 22 22" fill="none" xmlns="http://www.w3.org/2000/svg">
<g id="&#236;&#134;&#140;&#236;&#138;&#164;/ic_&#236;&#157;&#145;&#236;&#154;&#169; &#237;&#148;&#132;&#235;&#161;&#156;&#234;&#183;&#184;&#235;&#158;&#168; &#236;&#152;&#164;&#235;&#148;&#148;&#236;&#152;&#164; &#236;&#186;&#161;&#236;&#179;&#144;">
<path id="Rectangle 1107 (Stroke)" d="M7.33333 2.75C4.80203 2.75 2.75 4.80203 2.75 7.33333V14.6667C2.75 17.198 4.80203 19.25 7.33333 19.25H14.6667C17.198 19.25 19.25 17.198 19.25 14.6667V7.33333C19.25 4.80203 17.198 2.75 14.6667 2.75H7.33333Z" fill="white" fill-opacity="0.3"/>
<path id="Union" fill-rule="evenodd" clip-rule="evenodd" d="M11.001 6.87695C11.3807 6.87695 11.6885 7.18476 11.6885 7.56445L11.6885 14.4395C11.6885 14.8191 11.3807 15.127 11.001 15.127C10.6213 15.127 10.3135 14.8191 10.3135 14.4395L10.3135 7.56445C10.3135 7.18476 10.6213 6.87695 11.001 6.87695ZM8.25098 8.93945C8.63067 8.93945 8.93848 9.24726 8.93848 9.62695L8.93848 12.377C8.93848 12.7566 8.63067 13.0645 8.25098 13.0645C7.87128 13.0645 7.56348 12.7566 7.56348 12.377V9.62695C7.56348 9.24726 7.87128 8.93945 8.25098 8.93945ZM14.4385 10.3145C14.4385 9.93476 14.1307 9.62695 13.751 9.62695C13.3713 9.62695 13.0635 9.93476 13.0635 10.3145V11.6895C13.0635 12.0691 13.3713 12.377 13.751 12.377C14.1307 12.377 14.4385 12.0691 14.4385 11.6895V10.3145Z" fill="#B8FBFF"/>
</g>
</svg>
