<svg width="24" height="25" viewBox="0 0 24 25" fill="none" xmlns="http://www.w3.org/2000/svg">
<g id="Frame 186" opacity="0.1">
<g id="Group 8">
<path id="Union" fill-rule="evenodd" clip-rule="evenodd" d="M12.0003 6.25636V12.3993V18.5422C12.0003 19.0393 11.5949 19.4481 11.1008 19.3939C7.6938 19.0201 5.93468 16.5727 5.46178 15.2993H4.30794C2.15409 15.2993 2.00033 13.2279 2.00024 12.3993C2.00033 11.5707 2.15409 9.49927 4.30794 9.49927H5.46178C5.93468 8.22594 7.6938 5.77852 11.1008 5.40474C11.5949 5.35053 12.0003 5.75931 12.0003 6.25636Z" fill="white" fill-opacity="0.8"/>
<path id="Vector 4 (Stroke)" fill-rule="evenodd" clip-rule="evenodd" d="M14.3894 8.60762C14.8267 8.27032 15.4546 8.35142 15.7919 8.78874C16.7245 9.99789 17.9565 12.9191 15.8194 15.9728C15.5027 16.4253 14.8792 16.5354 14.4267 16.2188C13.9742 15.9021 13.8641 15.2786 14.1808 14.8261C15.6428 12.737 14.8182 10.801 14.2082 10.0102C13.8709 9.57286 13.952 8.94491 14.3894 8.60762Z" fill="white" fill-opacity="0.8"/>
<path id="Vector 5 (Stroke)" fill-rule="evenodd" clip-rule="evenodd" d="M17.3323 6.65501C17.7434 6.28624 18.3756 6.32057 18.7444 6.7317C19.5895 7.67388 20.6087 9.30562 20.9114 11.3128C21.2213 13.3668 20.7673 15.7467 18.7538 18.0565C18.3909 18.4728 17.7593 18.5161 17.3429 18.1532C16.9266 17.7903 16.8833 17.1587 17.2462 16.7423C18.8648 14.8855 19.1582 13.0987 18.9338 11.6111C18.7023 10.0766 17.9055 8.79163 17.2556 8.06715C16.8868 7.65602 16.9212 7.02379 17.3323 6.65501Z" fill="white" fill-opacity="0.8"/>
</g>
</g>
</svg>
