<svg width="12" height="12" viewBox="0 0 12 12" fill="none" xmlns="http://www.w3.org/2000/svg">
<g id="&#235;&#178;&#132;&#237;&#138;&#188;_&#237;&#148;&#132;&#235;&#166;&#173;&#236;&#131;&#183;_hold" opacity="0.6">
<path id="Union" fill-rule="evenodd" clip-rule="evenodd" d="M3.25 3.625C3.25 2.58711 4.08711 1.75 5.125 1.75H5.875C6.91289 1.75 7.75 2.58711 7.75 3.625V4.75H3.25V3.625ZM2.5 4.75V3.625C2.5 2.17289 3.67289 1 5.125 1H5.875C7.32711 1 8.5 2.17289 8.5 3.625V4.75C9.32843 4.75 10 5.42157 10 6.25V9.25C10 10.0784 9.32843 10.75 8.5 10.75H2.5C1.67157 10.75 1 10.0784 1 9.25V6.25C1 5.42157 1.67157 4.75 2.5 4.75Z" fill="white"/>
</g>
</svg>
