<svg width="24" height="25" viewBox="0 0 24 25" fill="none" xmlns="http://www.w3.org/2000/svg">
<g id="Frame 186">
<path id="Union" fill-rule="evenodd" clip-rule="evenodd" d="M12.0003 6.25636V12.3993V18.5422C12.0003 19.0393 11.5949 19.4481 11.1008 19.3939C7.6938 19.0201 5.93468 16.5727 5.46178 15.2993H4.30794C2.15409 15.2993 2.00033 13.2279 2.00024 12.3993C2.00033 11.5707 2.15409 9.49927 4.30794 9.49927H5.46178C5.93468 8.22594 7.6938 5.77852 11.1008 5.40474C11.5949 5.35053 12.0003 5.75931 12.0003 6.25636Z" fill="white" fill-opacity="0.8"/>
<g id="Group 5928">
<rect id="Rectangle 3540" width="1.9799" height="7.91958" rx="0.989948" transform="matrix(0.707106 -0.707108 0.707106 0.707108 14 10.2642)" fill="#D9D9D9"/>
<rect id="Rectangle 3541" width="1.9799" height="7.91958" rx="0.989948" transform="matrix(-0.707106 -0.707108 -0.707106 0.707108 21 10.2642)" fill="#D9D9D9"/>
</g>
</g>
</svg>
