<svg width="24" height="24" viewBox="0 0 24 24" fill="none" xmlns="http://www.w3.org/2000/svg">
<path fill-rule="evenodd" clip-rule="evenodd" d="M12.0002 5.85646V11.9994V18.1423C12.0002 18.6394 11.5948 19.0482 11.1007 18.994C7.69372 18.6202 5.9346 16.1728 5.4617 14.8994H4.30785C2.15401 14.8994 2.00024 12.828 2.00016 11.9994C2.00024 11.1708 2.15401 9.09936 4.30785 9.09936H5.4617C5.9346 7.82603 7.69372 5.37862 11.1007 5.00484C11.5948 4.95063 12.0002 5.35941 12.0002 5.85646Z" fill="white" fill-opacity="0.8"/>
<path fill-rule="evenodd" clip-rule="evenodd" d="M14.3894 8.20747C14.8267 7.87018 15.4547 7.95127 15.7919 8.3886C16.7245 9.59775 17.9565 12.5189 15.8194 15.5727C15.5027 16.0252 14.8792 16.1353 14.4267 15.8186C13.9742 15.5019 13.8641 14.8784 14.1808 14.4259C15.6429 12.3368 14.8182 10.4009 14.2082 9.61003C13.871 9.17271 13.9521 8.54476 14.3894 8.20747Z" fill="white" fill-opacity="0.8"/>
<path fill-rule="evenodd" clip-rule="evenodd" d="M17.3323 6.25499C17.7434 5.88622 18.3757 5.92055 18.7444 6.33167C19.5896 7.27385 20.6087 8.90559 20.9114 10.9127C21.2213 12.9668 20.7673 15.3467 18.7538 17.6565C18.3909 18.0728 17.7593 18.1161 17.3429 17.7532C16.9266 17.3903 16.8833 16.7586 17.2462 16.3423C18.8648 14.4855 19.1582 12.6986 18.9338 11.2111C18.7023 9.67654 17.9055 8.39161 17.2556 7.66712C16.8868 7.256 16.9212 6.62376 17.3323 6.25499Z" fill="white" fill-opacity="0.8"/>
</svg>
