<svg width="24" height="24" viewBox="0 0 24 24" fill="none" xmlns="http://www.w3.org/2000/svg">
<path fill-rule="evenodd" clip-rule="evenodd" d="M10.002 7C10.002 6.44772 10.4497 6 11.002 6H13.002C13.5542 6 14.002 6.44772 14.002 7V8H17.002C17.5542 8 18.002 8.44772 18.002 9C18.002 9.55228 17.5542 10 17.002 10V18C17.002 18.5523 16.5542 19 16.002 19H8.00195C7.44967 19 7.00195 18.5523 7.00195 18L7.00195 10C6.44967 10 6.00195 9.55228 6.00195 9C6.00195 8.44772 6.44967 8 7.00195 8H10.002V7ZM9.50195 11.5C9.50195 11.2239 9.72581 11 10.002 11C10.2781 11 10.502 11.2239 10.502 11.5V16.5C10.502 16.7761 10.2781 17 10.002 17C9.72581 17 9.50195 16.7761 9.50195 16.5V11.5ZM14.002 11C13.7258 11 13.502 11.2239 13.502 11.5V16.5C13.502 16.7761 13.7258 17 14.002 17C14.2781 17 14.502 16.7761 14.502 16.5V11.5C14.502 11.2239 14.2781 11 14.002 11ZM11.502 11.5C11.502 11.2239 11.7258 11 12.002 11C12.2781 11 12.502 11.2239 12.502 11.5V16.5C12.502 16.7761 12.2781 17 12.002 17C11.7258 17 11.502 16.7761 11.502 16.5V11.5Z" fill="white" fill-opacity="0.2"/>
</svg>
