<svg width="24" height="24" viewBox="0 0 24 24" fill="none" xmlns="http://www.w3.org/2000/svg">
<g opacity="0.6">
<path fill-rule="evenodd" clip-rule="evenodd" d="M5.40039 11.4185V12.5808C5.40039 13.2676 5.96111 13.8356 6.65376 13.8356C7.84777 13.8356 8.33592 14.6809 7.73562 15.7177C7.39259 16.312 7.59709 17.0847 8.19739 17.4281L9.33862 18.0819C9.85976 18.3922 10.5326 18.2073 10.8427 17.6856L10.9152 17.5602C11.5155 16.5233 12.4918 16.5233 13.0855 17.5602L13.1581 17.6856C13.4682 18.2073 14.141 18.3922 14.6622 18.0819L15.8034 17.4281C16.4037 17.0847 16.6082 16.3186 16.2652 15.7177C15.6649 14.6809 16.153 13.8356 17.347 13.8356C18.0397 13.8356 18.6004 13.2676 18.6004 12.5808V11.4185C18.6004 10.7251 18.0331 10.1638 17.347 10.1638C16.153 10.1638 15.6649 9.31852 16.2652 8.28171C16.6082 7.68736 16.4037 6.91471 15.8034 6.5713L14.6622 5.91752C14.141 5.60714 13.4682 5.79205 13.1581 6.31375L13.0855 6.43923C12.4852 7.47604 11.5089 7.47604 10.9152 6.43923L10.8427 6.31375C10.5326 5.79205 9.85976 5.60714 9.33862 5.91752L8.19739 6.5713C7.59709 6.91471 7.39259 7.68736 7.73562 8.28171C8.33592 9.31852 7.84777 10.1638 6.65376 10.1638C5.96111 10.1638 5.40039 10.7317 5.40039 11.4185ZM14.2004 11.9997C14.2004 13.2147 13.2154 14.1997 12.0004 14.1997C10.7854 14.1997 9.80039 13.2147 9.80039 11.9997C9.80039 10.7847 10.7854 9.79969 12.0004 9.79969C13.2154 9.79969 14.2004 10.7847 14.2004 11.9997Z" fill="white"/>
</g>
</svg>
