<svg width="24" height="24" viewBox="0 0 24 24" fill="none" xmlns="http://www.w3.org/2000/svg">
<g opacity="0.2">
<path fill-rule="evenodd" clip-rule="evenodd" d="M5.40039 11.4178V12.5801C5.40039 13.2669 5.96111 13.8348 6.65376 13.8348C7.84777 13.8348 8.33592 14.6801 7.73562 15.7169C7.39259 16.3113 7.59709 17.0839 8.19739 17.4273L9.33862 18.0811C9.85976 18.3915 10.5326 18.2066 10.8427 17.6849L10.9152 17.5594C11.5155 16.5226 12.4918 16.5226 13.0855 17.5594L13.1581 17.6849C13.4682 18.2066 14.141 18.3915 14.6622 18.0811L15.8034 17.4273C16.4037 17.0839 16.6082 16.3179 16.2652 15.7169C15.6649 14.6801 16.153 13.8348 17.347 13.8348C18.0397 13.8348 18.6004 13.2669 18.6004 12.5801V11.4178C18.6004 10.7244 18.0331 10.1631 17.347 10.1631C16.153 10.1631 15.6649 9.31778 16.2652 8.28098C16.6082 7.68663 16.4037 6.91397 15.8034 6.57057L14.6622 5.91679C14.141 5.60641 13.4682 5.79131 13.1581 6.31302L13.0855 6.43849C12.4852 7.4753 11.5089 7.4753 10.9152 6.43849L10.8427 6.31302C10.5326 5.79131 9.85976 5.60641 9.33862 5.91679L8.19739 6.57057C7.59709 6.91397 7.39259 7.68663 7.73562 8.28098C8.33592 9.31778 7.84777 10.1631 6.65376 10.1631C5.96111 10.1631 5.40039 10.731 5.40039 11.4178ZM14.2004 11.999C14.2004 13.214 13.2154 14.199 12.0004 14.199C10.7854 14.199 9.80039 13.214 9.80039 11.999C9.80039 10.7839 10.7854 9.79896 12.0004 9.79896C13.2154 9.79896 14.2004 10.7839 14.2004 11.999Z" fill="white"/>
</g>
</svg>
