<svg width="20" height="20" viewBox="0 0 20 20" fill="none" xmlns="http://www.w3.org/2000/svg">
<g opacity="0.4">
<path d="M18.3314 10.6501L18.3307 5.37482C18.3307 2.41649 17.5891 1.67482 14.6307 1.67482L6.67614 1.67482L6.66471 1.66675H5.36471C2.89139 1.66675 1.96748 2.18516 1.73102 4.08397C1.68418 4.45813 1.66406 4.88618 1.66406 5.37482L1.66471 10.6501C1.66471 13.6084 2.40638 14.3501 5.36471 14.3501H9.39848V17.7335H6.24848C5.91711 17.7335 5.64848 18.0021 5.64848 18.3335C5.64848 18.6649 5.91711 18.9335 6.24848 18.9335H13.7485C14.0798 18.9335 14.3485 18.6649 14.3485 18.3335C14.3485 18.0021 14.0798 17.7335 13.7485 17.7335H10.5985V14.3501L13.3193 14.3501L13.3307 14.3582H14.6307C17.102 14.3582 18.0264 13.8406 18.2638 11.9458C18.3111 11.5705 18.3314 11.1408 18.3314 10.6501Z" fill="#00E0FF"/>
</g>
<path fill-rule="evenodd" clip-rule="evenodd" d="M7.1901 5.4502C6.54958 5.4502 6.02344 5.97634 6.02344 6.61686V9.5502C6.02344 9.85924 6.10167 10.1147 6.24296 10.2843C6.37089 10.4378 6.60201 10.5835 7.05677 10.5835H11.0234C11.5973 10.5835 12.0568 10.1241 12.0568 9.5502V9.16656C12.0568 8.97997 12.1607 8.80891 12.3262 8.72288C12.4918 8.63685 12.6915 8.65017 12.8442 8.75742L13.8517 9.46518C13.8516 9.4651 13.8518 9.46527 13.8517 9.46518C13.8977 9.49737 13.9351 9.51701 13.9626 9.52854C13.9684 9.50057 13.9733 9.46115 13.9733 9.40813V6.63313C13.9733 6.57708 13.9679 6.53619 13.9616 6.50792C13.9342 6.51866 13.8966 6.53734 13.8494 6.56934L12.8442 7.27551C12.6915 7.38277 12.4918 7.39609 12.3262 7.31006C12.1607 7.22403 12.0568 7.05296 12.0568 6.86637V6.48353C12.0568 5.90967 11.5973 5.4502 11.0234 5.4502H7.1901ZM5.02344 6.61686C5.02344 5.42405 5.99729 4.4502 7.1901 4.4502H11.0234C11.9659 4.4502 12.755 5.08555 12.9873 5.95287L13.2829 5.74528C13.6058 5.52459 14.0385 5.38882 14.437 5.59559C14.8381 5.80379 14.9733 6.23857 14.9733 6.63313V9.40813C14.9733 9.80165 14.8386 10.2387 14.4347 10.4458C14.0332 10.6516 13.5997 10.5094 13.2782 10.2844L12.9875 10.0802C12.7554 10.9479 11.9661 11.5835 11.0234 11.5835H7.05677C6.36153 11.5835 5.82598 11.3459 5.47474 10.9245C5.13687 10.519 5.02344 10.0078 5.02344 9.5502V6.61686Z" fill="#00E0FF"/>
</svg>
