<svg width="20" height="20" viewBox="0 0 20 20" fill="none" xmlns="http://www.w3.org/2000/svg">
<path opacity="0.4" fill-rule="evenodd" clip-rule="evenodd" d="M5.17435 17.0167H10.441C13.066 17.0167 13.9493 16.1417 13.9493 13.5084V12.6252L16.2659 14.2501C17.3992 15.0501 18.3326 14.5668 18.3326 13.1751V6.82511C18.3326 5.43344 17.3992 4.95011 16.2659 5.74178L13.9493 7.36668V6.49173C13.9493 3.8584 13.0743 2.9834 10.441 2.9834H5.17435C2.54102 2.9834 1.66602 3.8584 1.66602 6.49173V13.5084C1.66602 15.2667 2.54102 17.0167 5.17435 17.0167Z" fill="#00E0FF"/>
<path d="M5.5 9.5C6.60457 9.5 7.5 8.60457 7.5 7.5C7.5 6.39543 6.60457 5.5 5.5 5.5C4.39543 5.5 3.5 6.39543 3.5 7.5C3.5 8.60457 4.39543 9.5 5.5 9.5Z" stroke="#00E0FF" stroke-width="1.2" stroke-linecap="round" stroke-linejoin="round"/>
</svg>
