<svg width="30" height="30" viewBox="0 0 30 30" fill="none" xmlns="http://www.w3.org/2000/svg">
<path fill-rule="evenodd" clip-rule="evenodd" d="M14.9278 7.11904C15.9823 6.06447 17.6917 6.0645 18.7462 7.11904L22.8819 11.2538C23.9358 12.3082 23.936 14.0179 22.8819 15.0722L15.6524 22.3036H23.1944V23.663H13.3819C12.62 23.7246 11.837 23.4663 11.254 22.8837L7.11827 18.7479C6.06402 17.6936 6.06416 15.984 7.11827 14.9296L14.9278 7.11904ZM8.1085 15.9198C7.60112 16.4275 7.60095 17.2501 8.1085 17.7577L12.2433 21.8935C12.7509 22.4008 13.5746 22.4009 14.0821 21.8935L15.9923 19.9823L10.0187 14.0087L8.1085 15.9198ZM17.7569 8.1083C17.2493 7.60061 16.4258 7.60069 15.9181 8.1083L11.0089 13.0185L16.9825 18.9921L21.8917 14.0829C22.3992 13.5754 22.399 12.7517 21.8917 12.244L17.7569 8.1083Z" fill="#D3D4D5"/>
</svg>
