<svg width="46" height="46" viewBox="0 0 46 46" fill="none" xmlns="http://www.w3.org/2000/svg">
<rect width="46" height="46" rx="16" fill="#F1F1F1"/>
<rect width="46" height="46" rx="16" fill="url(#paint0_linear_376_11533)" fill-opacity="0.2"/>
<path d="M23.7135 14.9644V31.0372C23.7135 32.1418 22.8107 33.0591 21.7229 32.8671C17.3311 32.092 15.0361 28.8574 14.3958 27.1333H12.7515C9.68251 27.1333 9.46307 24.1821 9.46289 23.001" fill="#111111"/>
<path d="M9.46289 23.001C9.46307 21.8199 9.68251 18.8683 12.7515 18.8683H14.3958C15.0361 17.1442 17.3311 13.9096 21.7229 13.1344C22.8107 12.9425 23.7135 13.8598 23.7135 14.9644" fill="#111111"/>
<path fill-rule="evenodd" clip-rule="evenodd" d="M27.1164 17.597C27.7396 17.1163 28.6345 17.2319 29.1151 17.8551C30.4441 19.5782 32.1998 23.7411 29.1543 28.0929C28.703 28.7377 27.8144 28.8946 27.1696 28.4434C26.5248 27.9921 26.3679 27.1035 26.8192 26.4587C28.9027 23.4816 27.7275 20.7228 26.8583 19.5957C26.3776 18.9725 26.4932 18.0777 27.1164 17.597Z" fill="#111111"/>
<path fill-rule="evenodd" clip-rule="evenodd" d="M31.3104 14.8147C31.8963 14.2892 32.7973 14.3381 33.3228 14.924C34.5272 16.2666 35.9795 18.592 36.411 21.4523C36.8525 24.3795 36.2055 27.7709 33.3362 31.0625C32.8191 31.6558 31.9189 31.7175 31.3256 31.2004C30.7323 30.6832 30.6706 29.7831 31.1878 29.1898C33.4943 26.5437 33.9125 23.9973 33.5927 21.8774C33.2629 19.6906 32.1273 17.8595 31.2012 16.8271C30.6756 16.2412 30.7246 15.3402 31.3104 14.8147Z" fill="#111111"/>
<rect width="46" height="46" rx="16" fill="black" fill-opacity="0.3"/>
<defs>
<linearGradient id="paint0_linear_376_11533" x1="40.825" y1="-1.725" x2="20.7" y2="35.075" gradientUnits="userSpaceOnUse">
<stop stop-color="#555555" stop-opacity="0"/>
<stop offset="1" stop-color="#555555"/>
</linearGradient>
</defs>
</svg>
