<svg width="46" height="46" viewBox="0 0 46 46" fill="none" xmlns="http://www.w3.org/2000/svg">
<rect width="46" height="46" rx="16" fill="#F1F1F1"/>
<rect width="46" height="46" rx="16" fill="url(#paint0_linear_376_11536)" fill-opacity="0.2"/>
<path fill-rule="evenodd" clip-rule="evenodd" d="M34.5 16C34.5 13.2386 32.2614 11 29.5 11H16.5C13.7386 11 11.5 13.2386 11.5 16V26C11.5 28.7614 13.7386 31 16.5 31H25.4882L29.2197 34.7762C29.6921 35.2543 30.5 34.9157 30.5 34.2395V30.9C32.7822 30.4367 34.5 28.419 34.5 26V16ZM19 21C19 22.1046 18.1046 23 17 23C15.8954 23 15 22.1046 15 21C15 19.8954 15.8954 19 17 19C18.1046 19 19 19.8954 19 21ZM23 23C24.1046 23 25 22.1046 25 21C25 19.8954 24.1046 19 23 19C21.8954 19 21 19.8954 21 21C21 22.1046 21.8954 23 23 23ZM29 23C30.1046 23 31 22.1046 31 21C31 19.8954 30.1046 19 29 19C27.8954 19 27 19.8954 27 21C27 22.1046 27.8954 23 29 23Z" fill="#111111"/>
<rect width="46" height="46" rx="16" fill="black" fill-opacity="0.3"/>
<defs>
<linearGradient id="paint0_linear_376_11536" x1="40.825" y1="-1.725" x2="20.7" y2="35.075" gradientUnits="userSpaceOnUse">
<stop stop-color="#555555" stop-opacity="0"/>
<stop offset="1" stop-color="#555555"/>
</linearGradient>
</defs>
</svg>
