<svg width="46" height="46" viewBox="0 0 46 46" fill="none" xmlns="http://www.w3.org/2000/svg">
<rect width="46" height="46" rx="16" fill="#F1F1F1"/>
<rect width="46" height="46" rx="16" fill="url(#paint0_linear_376_11539)" fill-opacity="0.2"/>
<path fill-rule="evenodd" clip-rule="evenodd" d="M15 12C13.3431 12 12 13.3431 12 15V19C12 20.6569 13.3431 22 15 22H31C32.6569 22 34 20.6569 34 19V15C34 13.3431 32.6569 12 31 12H15ZM12 26C12 24.8954 12.8954 24 14 24H18C19.1046 24 20 24.8954 20 26V32C20 33.1046 19.1046 34 18 34H14C12.8954 34 12 33.1046 12 32V26ZM24 24C22.8954 24 22 24.8954 22 26C22 27.1046 22.8954 28 24 28H32C33.1046 28 34 27.1046 34 26C34 24.8954 33.1046 24 32 24H24ZM24 30C22.8954 30 22 30.8954 22 32C22 33.1046 22.8954 34 24 34H32C33.1046 34 34 33.1046 34 32C34 30.8954 33.1046 30 32 30H24Z" fill="#111111"/>
<rect width="46" height="46" rx="16" fill="black" fill-opacity="0.3"/>
<defs>
<linearGradient id="paint0_linear_376_11539" x1="40.825" y1="-1.725" x2="20.7" y2="35.075" gradientUnits="userSpaceOnUse">
<stop stop-color="#555555" stop-opacity="0"/>
<stop offset="1" stop-color="#555555"/>
</linearGradient>
</defs>
</svg>
