<svg width="24" height="24" viewBox="0 0 24 24" fill="none" xmlns="http://www.w3.org/2000/svg">
<path fill-rule="evenodd" clip-rule="evenodd" d="M6.3427 6.34319C5.95217 6.73371 5.95217 7.36688 6.3427 7.7574L10.5854 12.0001L6.3428 16.2427C5.95228 16.6332 5.95228 17.2664 6.3428 17.6569C6.73333 18.0474 7.36649 18.0474 7.75702 17.6569L11.9996 13.4143L16.2422 17.6569C16.6327 18.0474 17.2659 18.0474 17.6564 17.6569C18.0469 17.2664 18.0469 16.6332 17.6564 16.2427L13.4138 12.0001L17.6565 7.7574C18.047 7.36688 18.047 6.73371 17.6565 6.34319C17.266 5.95266 16.6328 5.95266 16.2423 6.34319L11.9996 10.5859L7.75691 6.34319C7.36639 5.95266 6.73322 5.95266 6.3427 6.34319Z" fill="white" fill-opacity="0.9"/>
</svg>
