<svg width="30" height="30" viewBox="0 0 30 30" fill="none" xmlns="http://www.w3.org/2000/svg">
<rect x="12" y="6.5" width="6" height="11" rx="3" fill="white"/>
<path fill-rule="evenodd" clip-rule="evenodd" d="M8.5 14.2778C8.5 17.6255 10.8745 20.4247 14.003 20.9216C14.001 20.9475 14 20.9736 14 21V23C14 23.5523 14.4477 24 15 24C15.5523 24 16 23.5523 16 23V21C16 20.9736 15.999 20.9475 15.997 20.9216C19.1255 20.4247 21.5 17.6255 21.5 14.2778V12.9286C21.5 12.4157 21.0843 12 20.5714 12C20.0586 12 19.6429 12.4157 19.6429 12.9286V14.2778C19.6429 16.9644 17.5472 19.1111 15 19.1111C12.4528 19.1111 10.3571 16.9644 10.3571 14.2778V12.9286C10.3571 12.4157 9.94141 12 9.42857 12C8.91574 12 8.5 12.4157 8.5 12.9286V14.2778Z" fill="white"/>
</svg>
