<svg width="30" height="30" viewBox="0 0 30 30" fill="none" xmlns="http://www.w3.org/2000/svg">
<path d="M11.9998 9.50009C11.9998 7.84324 13.343 6.50009 14.9998 6.50009C16.6567 6.50009 17.9998 7.84324 17.9998 9.50009V13.9151L14.4628 17.4522C13.0622 17.199 11.9998 15.9736 11.9998 14.5001V9.50009Z" fill="white"/>
<path d="M13.1869 18.7281C11.5297 17.9952 10.357 16.2876 10.357 14.2779V12.9287C10.357 12.4158 9.94126 12.0001 9.42842 12.0001C8.91558 12.0001 8.49985 12.4158 8.49985 12.9287V14.2779C8.49985 16.7746 9.82056 18.9662 11.7898 20.1252L13.1869 18.7281Z" fill="white"/>
<path d="M13.8482 20.8952C13.8996 20.9046 13.9511 20.9135 14.0029 20.9217C14.0009 20.9476 13.9998 20.9737 13.9998 21.0001V23.0001C13.9998 23.5524 14.4476 24.0001 14.9998 24.0001C15.5521 24.0001 15.9998 23.5524 15.9998 23.0001V21.0001C15.9998 20.9737 15.9988 20.9476 15.9968 20.9217C19.1253 20.4248 21.4998 17.6256 21.4998 14.2779V13.2436L19.562 15.1814C19.1965 17.1983 17.63 18.7585 15.6846 19.0588L13.8482 20.8952Z" fill="white"/>
<path d="M22.7791 6.30754C23.1696 5.91702 23.8028 5.91702 24.1933 6.30754C24.5838 6.69807 24.5838 7.33123 24.1933 7.72175L7.22273 24.6923C6.83221 25.0828 6.19904 25.0828 5.80852 24.6923C5.41799 24.3018 5.41799 23.6686 5.80852 23.2781L22.7791 6.30754Z" fill="white"/>
</svg>
