<svg width="30" height="31" viewBox="0 0 30 31" fill="none" xmlns="http://www.w3.org/2000/svg">
<path fill-rule="evenodd" clip-rule="evenodd" d="M6 14.7075V16.2925C6 17.229 6.76462 18.0035 7.70915 18.0035C9.33733 18.0035 10.003 19.1561 9.18441 20.57C8.71664 21.3805 8.9955 22.4341 9.81409 22.9023L11.3703 23.7939C12.081 24.2171 12.9985 23.965 13.4213 23.2536L13.5202 23.0825C14.3388 21.6686 15.6702 21.6686 16.4798 23.0825L16.5787 23.2536C17.0015 23.965 17.919 24.2171 18.6297 23.7939L20.1859 22.9023C21.0045 22.4341 21.2834 21.3895 20.8156 20.57C19.997 19.1561 20.6627 18.0035 22.2909 18.0035C23.2354 18.0035 24 17.229 24 16.2925V14.7075C24 13.762 23.2264 12.9965 22.2909 12.9965C20.6627 12.9965 19.997 11.8439 20.8156 10.43C21.2834 9.61955 21.0045 8.56593 20.1859 8.09766L18.6297 7.20613C17.919 6.78288 17.0015 7.03503 16.5787 7.74645L16.4798 7.91755C15.6612 9.33138 14.3298 9.33138 13.5202 7.91755L13.4213 7.74645C12.9985 7.03503 12.081 6.78288 11.3703 7.20613L9.81409 8.09766C8.9955 8.56593 8.71664 9.61955 9.18441 10.43C10.003 11.8439 9.33733 12.9965 7.70915 12.9965C6.76462 12.9965 6 13.771 6 14.7075ZM18 15.5C18 17.1569 16.6569 18.5 15 18.5C13.3431 18.5 12 17.1569 12 15.5C12 13.8431 13.3431 12.5 15 12.5C16.6569 12.5 18 13.8431 18 15.5Z" fill="white"/>
</svg>
