<svg width="30" height="30" viewBox="0 0 30 30" fill="none" xmlns="http://www.w3.org/2000/svg">
<path fill-rule="evenodd" clip-rule="evenodd" d="M16.0001 9.35744V15.5004V21.6433C16.0001 22.1404 15.5946 22.5491 15.1005 22.4949C11.6936 22.1211 9.93444 19.6737 9.46154 18.4004H8.30769C6.15385 18.4004 6.00009 16.329 6 15.5004C6.00009 14.6718 6.15385 12.6003 8.30769 12.6003H9.46154C9.93444 11.327 11.6936 8.8796 15.1005 8.50581C15.5946 8.45161 16.0001 8.86038 16.0001 9.35744Z" fill="white"/>
<path fill-rule="evenodd" clip-rule="evenodd" d="M18.3894 11.7082C18.8267 11.3709 19.4546 11.452 19.7919 11.8893C20.7245 13.0985 21.9565 16.0197 19.8194 19.0734C19.5027 19.5259 18.8792 19.636 18.4267 19.3193C17.9742 19.0027 17.8641 18.3792 18.1808 17.9267C19.6428 15.8376 18.8182 13.9016 18.2082 13.1108C17.8709 12.6734 17.952 12.0455 18.3894 11.7082Z" fill="white"/>
<path fill-rule="evenodd" clip-rule="evenodd" d="M21.3323 9.7556C21.7434 9.38683 22.3756 9.42116 22.7444 9.83229C23.5895 10.7745 24.6087 12.4062 24.9114 14.4133C25.2213 16.4674 24.7673 18.8473 22.7538 21.1571C22.3909 21.5734 21.7593 21.6167 21.3429 21.2538C20.9266 20.8909 20.8833 20.2592 21.2462 19.8429C22.8648 17.9861 23.1582 16.1993 22.9338 14.7117C22.7023 13.1771 21.9055 11.8922 21.2556 11.1677C20.8868 10.7566 20.9212 10.1244 21.3323 9.7556Z" fill="white"/>
</svg>
