<svg width="30" height="30" viewBox="0 0 30 30" fill="none" xmlns="http://www.w3.org/2000/svg">
<path d="M24.1913 6.30779C23.8008 5.91726 23.1677 5.91726 22.7771 6.30779L15.9999 13.085V9.35704C15.9999 8.85999 15.5945 8.45121 15.1004 8.50542C11.6934 8.8792 9.9343 11.3266 9.4614 12.5999H8.30755C6.1537 12.5999 5.99994 14.6714 5.99986 15.5C5.99994 16.3286 6.1537 18.4 8.30755 18.4H9.4614C9.55011 18.6389 9.6841 18.9191 9.86574 19.2192L5.80656 23.2783C5.41604 23.6689 5.41604 24.302 5.80656 24.6926C6.19709 25.0831 6.83025 25.0831 7.22078 24.6926L24.1913 7.722C24.5819 7.33147 24.5819 6.69831 24.1913 6.30779Z" fill="white"/>
<path d="M18.989 15.7527L20.791 13.9507C21.1737 15.3619 21.1355 17.1925 19.8192 19.0733C19.5026 19.5258 18.8791 19.6359 18.4266 19.3192C17.9741 19.0025 17.864 18.379 18.1807 17.9265C18.7132 17.1656 18.9423 16.425 18.989 15.7527Z" fill="white"/>
<path d="M12.8602 21.8815L15.9999 18.7418V21.6429C15.9999 22.14 15.5945 22.5487 15.1004 22.4945C14.2537 22.4016 13.5089 22.1807 12.8602 21.8815Z" fill="white"/>
<path d="M23.6662 11.0755L22.2016 12.5401C22.533 13.1644 22.8118 13.9034 22.9337 14.7115C23.1581 16.1991 22.8646 17.9859 21.2461 19.8428C20.8832 20.2591 20.9265 20.8908 21.3428 21.2537C21.7591 21.6166 22.3908 21.5733 22.7537 21.1569C24.7671 18.8471 25.2212 16.4673 24.9113 14.4132C24.7155 13.1154 24.2203 11.9745 23.6662 11.0755Z" fill="white"/>
</svg>
