<svg width="30" height="30" viewBox="0 0 30 30" fill="none" xmlns="http://www.w3.org/2000/svg">
<rect x="12" y="6" width="6" height="11" rx="3" fill="white" fill-opacity="0.1"/>
<path fill-rule="evenodd" clip-rule="evenodd" d="M8.5 13.7778C8.5 17.1255 10.8745 19.9247 14.003 20.4216C14.001 20.4475 14 20.4736 14 20.5V22.5C14 23.0523 14.4477 23.5 15 23.5C15.5523 23.5 16 23.0523 16 22.5V20.5C16 20.4736 15.999 20.4475 15.997 20.4216C19.1255 19.9247 21.5 17.1255 21.5 13.7778V12.4286C21.5 11.9157 21.0843 11.5 20.5714 11.5C20.0586 11.5 19.6429 11.9157 19.6429 12.4286V13.7778C19.6429 16.4644 17.5472 18.6111 15 18.6111C12.4528 18.6111 10.3571 16.4644 10.3571 13.7778V12.4286C10.3571 11.9157 9.94141 11.5 9.42857 11.5C8.91574 11.5 8.5 11.9157 8.5 12.4286V13.7778Z" fill="white" fill-opacity="0.1"/>
</svg>
