<svg width="30" height="30" viewBox="0 0 30 30" fill="none" xmlns="http://www.w3.org/2000/svg">
<rect x="5.6" y="5.6" width="18.8" height="18.8" rx="5.4" stroke="white" stroke-opacity="0.1" stroke-width="1.2"/>
<path d="M9.2876 18.3117V11.8694H10.5884V14.405H13.1372V11.8694H14.438V18.3117H13.1372V15.4948H10.5884V18.3117H9.2876ZM15.7827 11.8694H18.1602C18.6963 11.8694 19.105 11.9104 19.3862 11.9924C19.7642 12.1037 20.0879 12.3015 20.3574 12.5857C20.627 12.8698 20.832 13.2185 20.9727 13.6316C21.1133 14.0417 21.1836 14.5486 21.1836 15.1521C21.1836 15.6823 21.1177 16.1394 20.9858 16.5232C20.8247 16.9919 20.5947 17.3713 20.2959 17.6613C20.0703 17.8811 19.7656 18.0525 19.3818 18.1755C19.0947 18.2663 18.7109 18.3117 18.2305 18.3117H15.7827V11.8694ZM17.0835 12.9592V17.2263H18.0547C18.418 17.2263 18.6802 17.2058 18.8413 17.1648C19.0522 17.112 19.2266 17.0227 19.3643 16.8967C19.5049 16.7707 19.6191 16.5642 19.707 16.2771C19.7949 15.987 19.8389 15.593 19.8389 15.0949C19.8389 14.5969 19.7949 14.2146 19.707 13.948C19.6191 13.6814 19.4961 13.4734 19.3379 13.3239C19.1797 13.1745 18.979 13.0735 18.7358 13.0207C18.5542 12.9797 18.1982 12.9592 17.668 12.9592H17.0835Z" fill="white" fill-opacity="0.1"/>
</svg>
