<svg width="30" height="30" viewBox="0 0 30 30" fill="none" xmlns="http://www.w3.org/2000/svg">
<path fill-rule="evenodd" clip-rule="evenodd" d="M16.0001 8.85705V15V21.1429C16.0001 21.64 15.5946 22.0488 15.1005 21.9945C11.6936 21.6208 9.93444 19.1733 9.46154 17.9H8.30769C6.15385 17.9 6.00009 15.8286 6 15C6.00009 14.1714 6.15385 12.1 8.30769 12.1H9.46154C9.93444 10.8266 11.6936 8.37921 15.1005 8.00543C15.5946 7.95122 16.0001 8.36 16.0001 8.85705Z" fill="white" fill-opacity="0.1"/>
<path fill-rule="evenodd" clip-rule="evenodd" d="M18.3894 11.2081C18.8267 10.8708 19.4546 10.9519 19.7919 11.3892C20.7245 12.5984 21.9565 15.5196 19.8194 18.5733C19.5027 19.0258 18.8792 19.1359 18.4267 18.8192C17.9742 18.5026 17.8641 17.879 18.1808 17.4266C19.6428 15.3375 18.8182 13.4015 18.2082 12.6107C17.8709 12.1733 17.952 11.5454 18.3894 11.2081Z" fill="white" fill-opacity="0.1"/>
<path fill-rule="evenodd" clip-rule="evenodd" d="M21.3323 9.25556C21.7434 8.88679 22.3756 8.92112 22.7444 9.33225C23.5895 10.2744 24.6087 11.9062 24.9114 13.9133C25.2213 15.9674 24.7673 18.3472 22.7538 20.6571C22.3909 21.0734 21.7593 21.1167 21.3429 20.7538C20.9266 20.3909 20.8833 19.7592 21.2462 19.3429C22.8648 17.4861 23.1582 15.6992 22.9338 14.2116C22.7023 12.6771 21.9055 11.3922 21.2556 10.6677C20.8868 10.2566 20.9212 9.62434 21.3323 9.25556Z" fill="white" fill-opacity="0.1"/>
</svg>
