<svg width="22" height="22" viewBox="0 0 22 22" fill="none" xmlns="http://www.w3.org/2000/svg">
<g id="&#236;&#134;&#140;&#236;&#138;&#164;/ic_&#235;&#185;&#132;&#235;&#148;&#148;&#236;&#152;&#164; &#236;&#186;&#161;&#236;&#179;&#144;">
<path id="Rectangle 1104 (Stroke)" d="M7.33333 2.75C4.80203 2.75 2.75 4.67378 2.75 7.04688V8.76563C2.75 11.1387 4.80203 13.0625 7.33333 13.0625H14.6667C17.198 13.0625 19.25 11.1387 19.25 8.76563V7.04688C19.25 4.67378 17.198 2.75 14.6667 2.75H7.33333Z" fill="#00E0FF"/>
<circle id="Ellipse 105" cx="11" cy="7.90625" r="1.71875" stroke="#24272D" stroke-width="1.375"/>
<path id="Union" fill-rule="evenodd" clip-rule="evenodd" d="M11.6885 13.0645H10.3135V15.127H8.93848C7.04 15.127 5.50098 16.666 5.50098 18.5645V19.252C5.50098 19.6316 5.80878 19.9395 6.18848 19.9395C6.56817 19.9395 6.87598 19.6316 6.87598 19.252V18.5645C6.87598 17.4254 7.79939 16.502 8.93848 16.502H10.3135H11.6885H13.0635C14.2026 16.502 15.126 17.4254 15.126 18.5645V19.252C15.126 19.6316 15.4338 19.9395 15.8135 19.9395C16.1932 19.9395 16.501 19.6316 16.501 19.252V18.5645C16.501 16.666 14.962 15.127 13.0635 15.127H11.6885V13.0645Z" fill="#00E0FF"/>
</g>
</svg>
