<svg width="22" height="22" viewBox="0 0 22 22" fill="none" xmlns="http://www.w3.org/2000/svg">
<g id="&#236;&#134;&#140;&#236;&#138;&#164;/ic_&#235;&#148;&#148;&#236;&#138;&#164;&#237;&#148;&#140;&#235;&#160;&#136;&#236;&#157;&#180;&#236;&#186;&#161;&#236;&#179;&#144;">
<path id="Rectangle 1107 (Stroke)" d="M7.33333 2.75C4.80203 2.75 2.75 4.80203 2.75 7.33333V14.6667C2.75 17.198 4.80203 19.25 7.33333 19.25H14.6667C17.198 19.25 19.25 17.198 19.25 14.6667V7.33333C19.25 4.80203 17.198 2.75 14.6667 2.75H7.33333Z" fill="#00E0FF"/>
<path id="Union" fill-rule="evenodd" clip-rule="evenodd" d="M8.25098 4.81445C6.3525 4.81445 4.81348 6.35347 4.81348 8.25195V9.62695C4.81348 10.0066 5.12128 10.3145 5.50098 10.3145C5.88067 10.3145 6.18848 10.0066 6.18848 9.62695V8.25195C6.18848 7.11287 7.11189 6.18945 8.25098 6.18945H9.62598C10.0057 6.18945 10.3135 5.88165 10.3135 5.50195C10.3135 5.12226 10.0057 4.81445 9.62598 4.81445H8.25098ZM13.751 17.1895C15.6495 17.1895 17.1885 15.6504 17.1885 13.752V12.377C17.1885 11.9973 16.8807 11.6895 16.501 11.6895C16.1213 11.6895 15.8135 11.9973 15.8135 12.377V13.752C15.8135 14.891 14.8901 15.8145 13.751 15.8145H12.376C11.9963 15.8145 11.6885 16.1223 11.6885 16.502C11.6885 16.8816 11.9963 17.1895 12.376 17.1895H13.751Z" fill="#24272D"/>
</g>
</svg>
