<svg width="22" height="22" viewBox="0 0 22 22" fill="none" xmlns="http://www.w3.org/2000/svg">
<g id="&#236;&#134;&#140;&#236;&#138;&#164;/ic_&#236;&#158;&#165;&#235;&#169;&#180;">
<g id="Group 92">
<path id="Rectangle 1107 (Stroke)" fill-rule="evenodd" clip-rule="evenodd" d="M7.33431 2.75195C4.80301 2.75195 2.75098 4.80398 2.75098 7.33529V14.6686C2.75098 17.1999 4.80301 19.252 7.33431 19.252H14.6676C17.1989 19.252 19.251 17.1999 19.251 14.6686V7.33529C19.251 4.80398 17.1989 2.75195 14.6676 2.75195H7.33431Z" fill="#00E0FF"/>
<g id="Group 84">
<path id="Union" fill-rule="evenodd" clip-rule="evenodd" d="M7.56445 8.25391C7.56445 8.6336 7.25665 8.9414 6.87695 8.9414C6.49726 8.9414 6.18945 8.6336 6.18945 8.25391C6.18945 7.87421 6.49726 7.56641 6.87695 7.56641C7.25665 7.56641 7.56445 7.87421 7.56445 8.25391ZM6.87695 11.6914C7.25665 11.6914 7.56445 11.3836 7.56445 11.0039C7.56445 10.6242 7.25665 10.3164 6.87695 10.3164C6.49726 10.3164 6.18945 10.6242 6.18945 11.0039C6.18945 11.3836 6.49726 11.6914 6.87695 11.6914ZM6.87695 14.4414C7.25665 14.4414 7.56445 14.1336 7.56445 13.7539C7.56445 13.3742 7.25665 13.0664 6.87695 13.0664C6.49726 13.0664 6.18945 13.3742 6.18945 13.7539C6.18945 14.1336 6.49726 14.4414 6.87695 14.4414ZM9.62695 13.0664C9.24726 13.0664 8.93945 13.3742 8.93945 13.7539C8.93945 14.1336 9.24726 14.4414 9.62695 14.4414H15.127C15.5066 14.4414 15.8145 14.1336 15.8145 13.7539C15.8145 13.3742 15.5066 13.0664 15.127 13.0664H9.62695ZM8.93945 11.0039C8.93945 10.6242 9.24726 10.3164 9.62695 10.3164H15.127C15.5066 10.3164 15.8145 10.6242 15.8145 11.0039C15.8145 11.3836 15.5066 11.6914 15.127 11.6914H9.62695C9.24726 11.6914 8.93945 11.3836 8.93945 11.0039ZM9.62695 7.56641C9.24726 7.56641 8.93945 7.87421 8.93945 8.25391C8.93945 8.6336 9.24726 8.94141 9.62695 8.94141H15.127C15.5066 8.94141 15.8145 8.6336 15.8145 8.25391C15.8145 7.87421 15.5066 7.56641 15.127 7.56641H9.62695Z" fill="#24272D"/>
</g>
</g>
</g>
</svg>
