<svg width="22" height="22" viewBox="0 0 22 22" fill="none" xmlns="http://www.w3.org/2000/svg">
<g id="&#236;&#134;&#140;&#236;&#138;&#164;/ic_&#236;&#152;&#164;&#235;&#148;&#148;&#236;&#152;&#164; &#236;&#182;&#156;&#235;&#160;&#165; &#236;&#186;&#161;&#236;&#179;&#144;">
<g id="Group 83">
<path id="Vector (Stroke)" d="M12.3253 4.40752C13.2645 4.89301 13.751 5.92523 13.751 7.22987V14.7756C13.751 16.0767 13.2642 17.1083 12.3258 17.5946C11.3801 18.0848 10.1719 17.9213 8.98255 17.2238L6.42196 15.7226C6.20947 15.6056 5.97159 15.5423 5.74457 15.5423H4.48803C3.53157 15.5423 2.72784 15.3178 2.16847 14.7945C1.61213 14.2741 1.37598 13.5312 1.37598 12.6467V9.35879C1.37598 8.47434 1.61213 7.73141 2.16847 7.21099C2.72784 6.68772 3.53157 6.4632 4.48803 6.4632H5.74457C5.97159 6.4632 6.20948 6.39992 6.42197 6.28288L8.98247 4.78176C10.1711 4.08466 11.3792 3.91852 12.3253 4.40752Z" fill="#00E0FF"/>
</g>
<path id="Ellipse 106" d="M15.8125 15.125C18.0907 15.125 19.9375 13.2782 19.9375 11C19.9375 8.72183 18.0907 6.875 15.8125 6.875" stroke="#00E0FF" stroke-width="1.375" stroke-linecap="round"/>
<path id="Ellipse 107" d="M15.8125 13.0625C16.9516 13.0625 17.875 12.1391 17.875 11C17.875 9.86091 16.9516 8.9375 15.8125 8.9375" stroke="#00E0FF" stroke-width="1.375" stroke-linecap="round"/>
</g>
</svg>
