<svg width="22" height="22" viewBox="0 0 22 22" fill="none" xmlns="http://www.w3.org/2000/svg">
<g id="&#236;&#134;&#140;&#236;&#138;&#164;/ic_&#236;&#152;&#164;&#235;&#148;&#148;&#236;&#152;&#164; &#236;&#158;&#133;&#235;&#160;&#165; &#236;&#186;&#161;&#236;&#179;&#144;">
<path id="Union" fill-rule="evenodd" clip-rule="evenodd" d="M4.81348 10.6582C4.81348 10.2785 4.50567 9.9707 4.12598 9.9707C3.74628 9.9707 3.43848 10.2785 3.43848 10.6582C3.43848 14.6031 6.45901 17.8425 10.3135 18.1899V19.9395C10.3135 20.3191 10.6213 20.627 11.001 20.627C11.3807 20.627 11.6885 20.3191 11.6885 19.9395V18.1899C15.5429 17.8425 18.5635 14.6031 18.5635 10.6582C18.5635 10.2785 18.2557 9.9707 17.876 9.9707C17.4963 9.9707 17.1885 10.2785 17.1885 10.6582C17.1885 14.0755 14.4182 16.8457 11.001 16.8457C7.58371 16.8457 4.81348 14.0755 4.81348 10.6582Z" fill="#00E0FF"/>
<path id="Vector (Stroke)" fill-rule="evenodd" clip-rule="evenodd" d="M6.875 5.90923C6.875 3.76843 8.73749 2.0625 11 2.0625C13.2625 2.0625 15.125 3.76843 15.125 5.90923V10.5908C15.125 12.7316 13.2625 14.4375 11 14.4375C8.73749 14.4375 6.875 12.7316 6.875 10.5908V5.90923Z" fill="#00E0FF"/>
<rect id="Rectangle 1129" x="8.59375" y="5.84375" width="4.8125" height="1.375" rx="0.6875" fill="#24272D"/>
<rect id="Rectangle 1130" x="8.59375" y="8.9375" width="4.8125" height="1.375" rx="0.6875" fill="#24272D"/>
</g>
</svg>
