<svg width="24" height="24" viewBox="0 0 24 24" fill="none" xmlns="http://www.w3.org/2000/svg">
<g id="Frame 387">
<path id="Union" fill-rule="evenodd" clip-rule="evenodd" d="M16.0701 5.5C16.0701 5.22386 15.8462 5 15.5701 5C15.2939 5 15.0701 5.22386 15.0701 5.5V6.99029C13.5957 7.22932 12.47 8.5083 12.47 10.0502C12.47 11.7623 13.8579 13.1502 15.57 13.1502C17.2821 13.1502 18.67 11.7623 18.67 10.0502C18.67 8.50837 17.5444 7.22944 16.0701 6.99032V5.5ZM16.0701 14.6001C16.0701 14.324 15.8462 14.1001 15.5701 14.1001C15.2939 14.1001 15.0701 14.324 15.0701 14.6001V18.5001C15.0701 18.7762 15.2939 19.0001 15.5701 19.0001C15.8462 19.0001 16.0701 18.7762 16.0701 18.5001V14.6001ZM15.57 7.9502C14.4102 7.9502 13.47 8.8904 13.47 10.0502C13.47 11.21 14.4102 12.1502 15.57 12.1502C16.7298 12.1502 17.67 11.21 17.67 10.0502C17.67 8.8904 16.7298 7.9502 15.57 7.9502ZM8.44546 16.05C8.44031 16.0499 8.43513 16.0498 8.42993 16.0498C8.42475 16.0498 8.4196 16.0499 8.41446 16.05C7.26185 16.0416 6.33008 15.1047 6.33008 13.9501C6.33008 12.7903 7.27028 11.8501 8.43008 11.8501C9.58988 11.8501 10.5301 12.7903 10.5301 13.9501C10.5301 15.1048 9.59818 16.0418 8.44546 16.05ZM8.92993 17.01C10.4043 16.771 11.5301 15.492 11.5301 13.9501C11.5301 12.238 10.1422 10.8501 8.43008 10.8501C6.718 10.8501 5.33008 12.238 5.33008 13.9501C5.33008 15.4919 6.45566 16.7708 7.92993 17.01V18.4998C7.92993 18.7759 8.15379 18.9998 8.42993 18.9998C8.70607 18.9998 8.92993 18.7759 8.92993 18.4998V17.01ZM8.42993 5C8.70607 5 8.92993 5.22386 8.92993 5.5V9.4C8.92993 9.67614 8.70607 9.9 8.42993 9.9C8.15379 9.9 7.92993 9.67614 7.92993 9.4V5.5C7.92993 5.22386 8.15379 5 8.42993 5Z" fill="white" fill-opacity="0.5"/>
</g>
</svg>
